<svg width="1812" height="670" viewBox="0 0 1812 670" fill="none" xmlns="http://www.w3.org/2000/svg">
<rect width="1812" height="669.735" fill="white"/>
<path d="M559.25 283.409C561.606 284.85 564.683 284.108 566.124 281.752L589.602 243.362C591.043 241.006 590.301 237.929 587.945 236.488C585.589 235.047 582.512 235.789 581.071 238.145L560.202 272.269L526.077 251.4C523.721 249.959 520.644 250.701 519.203 253.057C517.762 255.412 518.504 258.49 520.86 259.931L559.25 283.409ZM387.413 123.597C390.575 123.335 393.68 123.132 396.729 122.987L396.255 112.998C393.083 113.149 389.861 113.36 386.587 113.631L387.413 123.597ZM415.327 122.864C421.725 123.105 427.847 123.655 433.709 124.517L435.165 114.624C428.916 113.704 422.432 113.125 415.704 112.871L415.327 122.864ZM451.616 128.356C457.587 130.078 463.258 132.2 468.655 134.733L472.904 125.68C467.01 122.914 460.842 120.609 454.387 118.747L451.616 128.356ZM484.368 143.796C489.27 147.207 493.934 151.058 498.38 155.367L505.34 148.186C500.52 143.515 495.439 139.318 490.079 135.588L484.368 143.796ZM510.567 169.025C514.193 173.692 517.659 178.746 520.978 184.203L529.522 179.006C526.021 173.251 522.341 167.881 518.464 162.89L510.567 169.025ZM529.865 200.485C532.502 205.854 535.034 211.53 537.469 217.52L546.733 213.755C544.217 207.566 541.59 201.675 538.841 196.077L529.865 200.485ZM544.018 235.063C545.983 240.786 547.879 246.751 549.711 252.961L559.302 250.131C557.432 243.792 555.492 237.688 553.475 231.815L544.018 235.063ZM554.713 271.136C555.487 274.145 556.248 277.204 556.998 280.315L566.719 277.972C565.958 274.814 565.185 271.706 564.398 268.646L554.713 271.136ZM559.25 283.409C561.606 284.85 564.683 284.108 566.124 281.752L589.602 243.362C591.043 241.006 590.301 237.929 587.945 236.488C585.589 235.047 582.512 235.789 581.071 238.145L560.202 272.269L526.077 251.4C523.721 249.959 520.644 250.701 519.203 253.057C517.762 255.412 518.504 258.49 520.86 259.931L559.25 283.409ZM387.413 123.597C390.575 123.335 393.68 123.132 396.729 122.987L396.255 112.998C393.083 113.149 389.861 113.36 386.587 113.631L387.413 123.597ZM415.327 122.864C421.725 123.105 427.847 123.655 433.709 124.517L435.165 114.624C428.916 113.704 422.432 113.125 415.704 112.871L415.327 122.864ZM451.616 128.356C457.587 130.078 463.258 132.2 468.655 134.733L472.904 125.68C467.01 122.914 460.842 120.609 454.387 118.747L451.616 128.356ZM484.368 143.796C489.27 147.207 493.934 151.058 498.38 155.367L505.34 148.186C500.52 143.515 495.439 139.318 490.079 135.588L484.368 143.796ZM510.567 169.025C514.193 173.692 517.659 178.746 520.978 184.203L529.522 179.006C526.021 173.251 522.341 167.881 518.464 162.89L510.567 169.025ZM529.865 200.485C532.502 205.854 535.034 211.53 537.469 217.52L546.733 213.755C544.217 207.566 541.59 201.675 538.841 196.077L529.865 200.485ZM544.018 235.063C545.983 240.786 547.879 246.751 549.711 252.961L559.302 250.131C557.432 243.792 555.492 237.688 553.475 231.815L544.018 235.063ZM554.713 271.136C555.487 274.145 556.248 277.204 556.998 280.315L566.719 277.972C565.958 274.814 565.185 271.706 564.398 268.646L554.713 271.136Z" fill="#929292"/>
<path d="M625.4 373.417C677.316 373.417 719.403 359.388 719.403 342.082C719.403 324.777 677.316 310.748 625.4 310.748C573.484 310.748 531.398 324.777 531.398 342.082C531.398 359.388 573.484 373.417 625.4 373.417Z" fill="#E8EDFF"/>
<path d="M531.398 342.082V488.308C531.398 496.618 541.302 504.588 558.931 510.465C576.56 516.341 600.47 519.642 625.4 519.642C650.331 519.642 674.241 516.341 691.87 510.465C709.499 504.588 719.403 496.618 719.403 488.308V342.082" fill="#E8EDFF"/>
<path d="M531.398 415.195C531.398 423.506 541.302 431.476 558.931 437.352C576.56 443.228 600.47 446.529 625.4 446.529C650.331 446.529 674.241 443.228 691.87 437.352C709.499 431.476 719.403 423.506 719.403 415.195" fill="#E8EDFF"/>
<path d="M719.403 342.082C719.403 359.388 677.316 373.417 625.4 373.417C573.484 373.417 531.398 359.388 531.398 342.082M719.403 342.082C719.403 324.777 677.316 310.748 625.4 310.748C573.484 310.748 531.398 324.777 531.398 342.082M719.403 342.082V488.308C719.403 496.618 709.499 504.588 691.87 510.465C674.241 516.341 650.331 519.642 625.4 519.642C600.47 519.642 576.56 516.341 558.931 510.465C541.302 504.588 531.398 496.618 531.398 488.308V342.082M531.398 415.195C531.398 423.506 541.302 431.476 558.931 437.352C576.56 443.228 600.47 446.529 625.4 446.529C650.331 446.529 674.241 443.228 691.87 437.352C709.499 431.476 719.403 423.506 719.403 415.195" stroke="#000091" stroke-width="6" stroke-linecap="round" stroke-linejoin="round"/>
<path d="M538.211 594.079L543.155 589.519C545.171 592.111 547.859 593.647 550.595 593.647C553.283 593.647 554.915 592.207 554.915 589.807C554.915 583.615 539.651 585.295 539.651 573.919C539.651 568.591 544.067 564.175 550.499 564.175C555.539 564.175 559.379 566.431 562.259 569.839L557.267 574.351C555.299 571.807 553.091 570.127 550.547 570.127C548.147 570.127 546.563 571.663 546.563 573.679C546.563 579.775 561.827 578.047 561.827 589.567C561.731 595.903 556.835 599.695 550.643 599.695C544.979 599.695 541.187 597.631 538.211 594.079ZM590.336 594.799C588.08 597.823 584.336 599.695 579.776 599.695C571.184 599.695 566.336 593.695 566.336 586.639C566.336 579.487 570.848 573.583 578.768 573.583C585.488 573.583 589.904 578.143 589.904 584.479C589.904 585.823 589.712 587.071 589.52 587.887H572.576C573.152 592.399 575.936 594.223 579.728 594.223C582.368 594.223 584.672 593.071 585.968 591.343L590.336 594.799ZM578.624 578.575C575.504 578.575 573.44 580.303 572.768 583.471H583.904C583.808 581.023 582.032 578.575 578.624 578.575ZM595.861 598.735V574.543H601.957V576.943C603.541 575.311 605.605 574.063 608.341 574.063C609.157 574.063 609.877 574.207 610.453 574.399V580.399C609.685 580.207 608.869 580.063 607.765 580.063C604.789 580.063 602.869 581.695 601.957 583.231V598.735H595.861ZM613.124 574.543H619.652L625.94 591.823L632.18 574.543H638.756L629.924 598.735H621.908L613.124 574.543ZM664.586 594.799C662.33 597.823 658.586 599.695 654.026 599.695C645.434 599.695 640.586 593.695 640.586 586.639C640.586 579.487 645.098 573.583 653.018 573.583C659.738 573.583 664.154 578.143 664.154 584.479C664.154 585.823 663.962 587.071 663.77 587.887H646.826C647.402 592.399 650.186 594.223 653.978 594.223C656.618 594.223 658.922 593.071 660.218 591.343L664.586 594.799ZM652.874 578.575C649.754 578.575 647.69 580.303 647.018 583.471H658.154C658.058 581.023 656.282 578.575 652.874 578.575ZM685.766 588.271V574.543H691.91V587.983C691.91 595.231 687.686 599.695 680.582 599.695C673.478 599.695 669.302 595.231 669.302 587.983V574.543H675.446V588.271C675.446 591.775 677.27 593.935 680.63 593.935C683.942 593.935 685.766 591.775 685.766 588.271ZM698.658 598.735V574.543H704.754V576.943C706.338 575.311 708.402 574.063 711.138 574.063C711.954 574.063 712.674 574.207 713.25 574.399V580.399C712.482 580.207 711.666 580.063 710.562 580.063C707.586 580.063 705.666 581.695 704.754 583.231V598.735H698.658Z" fill="#000091"/>
<path d="M132.308 312.702V284.702H143.308C152.188 284.702 158.188 291.142 158.188 298.702C158.188 306.262 152.188 312.702 143.308 312.702H132.308ZM143.388 289.862H137.988V307.542H143.388C148.588 307.542 152.348 303.662 152.348 298.702C152.348 293.702 148.588 289.862 143.388 289.862ZM172.703 291.742C179.263 291.742 183.743 296.582 183.743 302.622C183.743 308.662 179.263 313.502 172.703 313.502C166.143 313.502 161.663 308.662 161.663 302.622C161.663 296.582 166.143 291.742 172.703 291.742ZM172.783 308.702C176.023 308.702 178.463 306.102 178.463 302.622C178.463 299.102 176.023 296.542 172.783 296.542C169.423 296.542 166.943 299.102 166.943 302.622C166.943 306.142 169.423 308.702 172.783 308.702ZM188.376 312.702V292.542H193.456V294.142C194.856 292.782 196.736 291.742 199.416 291.742C203.776 291.742 207.256 294.742 207.256 300.702V312.702H202.136V300.902C202.136 298.222 200.616 296.542 198.136 296.542C195.576 296.542 194.216 298.262 193.456 299.542V312.702H188.376ZM213.024 312.702V292.542H218.104V294.142C219.504 292.782 221.384 291.742 224.064 291.742C228.424 291.742 231.904 294.742 231.904 300.702V312.702H226.784V300.902C226.784 298.222 225.264 296.542 222.784 296.542C220.224 296.542 218.864 298.262 218.104 299.542V312.702H213.024ZM249.393 289.342H244.513L248.673 282.702H254.193L249.393 289.342ZM256.233 309.422C254.353 311.942 251.233 313.502 247.433 313.502C240.273 313.502 236.233 308.502 236.233 302.622C236.233 296.662 239.993 291.742 246.593 291.742C252.193 291.742 255.873 295.542 255.873 300.822C255.873 301.942 255.713 302.982 255.553 303.662H241.433C241.913 307.422 244.233 308.942 247.393 308.942C249.593 308.942 251.513 307.982 252.593 306.542L256.233 309.422ZM246.473 295.902C243.873 295.902 242.153 297.342 241.593 299.982H250.873C250.793 297.942 249.313 295.902 246.473 295.902ZM279.241 309.422C277.361 311.942 274.241 313.502 270.441 313.502C263.281 313.502 259.241 308.502 259.241 302.622C259.241 296.662 263.001 291.742 269.601 291.742C275.201 291.742 278.881 295.542 278.881 300.822C278.881 301.942 278.721 302.982 278.561 303.662H264.441C264.921 307.422 267.241 308.942 270.401 308.942C272.601 308.942 274.521 307.982 275.601 306.542L279.241 309.422ZM269.481 295.902C266.881 295.902 265.161 297.342 264.601 299.982H273.881C273.801 297.942 272.321 295.902 269.481 295.902ZM281.811 309.782L285.171 306.742C286.411 308.302 287.891 309.422 289.811 309.422C291.451 309.422 292.291 308.462 292.291 307.262C292.291 303.742 282.651 305.062 282.651 297.982C282.651 294.422 285.651 291.742 289.851 291.742C292.931 291.742 295.731 293.222 297.171 295.182L293.811 298.142C292.771 296.862 291.451 295.822 289.891 295.822C288.291 295.822 287.531 296.702 287.531 297.742C287.531 301.182 297.171 299.982 297.171 306.942C297.091 311.182 293.691 313.502 289.891 313.502C286.291 313.502 283.731 312.062 281.811 309.782ZM73.0166 364.222C73.0166 362.222 74.0166 360.622 75.8166 359.302C75.0166 358.502 74.5766 357.422 74.5766 356.382C74.5766 354.782 75.2566 353.502 76.7766 352.382C75.0166 351.062 74.0566 349.062 74.0566 346.822C74.0566 342.902 77.0966 339.742 82.1366 339.742C83.6966 339.742 85.0566 340.022 86.2166 340.542H93.5766V344.862H90.0166C90.2166 345.502 90.2966 346.142 90.2966 346.822C90.2966 350.782 87.3366 353.982 82.1366 353.982C81.4566 353.982 80.8166 353.942 80.2166 353.822C79.7766 354.222 79.5366 354.662 79.5366 355.102C79.5366 355.902 79.9766 356.302 80.8966 356.302H85.9766C91.0566 356.302 93.8166 359.022 93.8166 362.782C93.8166 367.262 89.5366 370.702 83.2566 370.702C76.8166 370.702 73.0166 368.462 73.0166 364.222ZM82.2166 350.142C84.3366 350.142 85.6966 348.822 85.6966 346.822C85.6966 344.822 84.3366 343.542 82.2166 343.542C80.0166 343.542 78.6966 344.862 78.6966 346.822C78.6966 348.822 80.0166 350.142 82.2166 350.142ZM77.8166 363.502C77.8166 365.422 79.6566 366.622 83.2166 366.622C86.8966 366.622 88.7766 365.262 88.7766 363.262C88.7766 361.742 87.8566 360.662 85.4166 360.662H79.1766C78.4166 361.382 77.8166 362.262 77.8166 363.502ZM108.065 337.342H103.185L107.345 330.702H112.865L108.065 337.342ZM114.905 357.422C113.025 359.942 109.905 361.502 106.105 361.502C98.9447 361.502 94.9047 356.502 94.9047 350.622C94.9047 344.662 98.6647 339.742 105.265 339.742C110.865 339.742 114.545 343.542 114.545 348.822C114.545 349.942 114.385 350.982 114.225 351.662H100.105C100.585 355.422 102.905 356.942 106.065 356.942C108.265 356.942 110.185 355.982 111.265 354.542L114.905 357.422ZM105.145 343.902C102.545 343.902 100.825 345.342 100.265 347.982H109.545C109.465 345.942 107.985 343.902 105.145 343.902ZM128.953 339.742C135.513 339.742 139.993 344.582 139.993 350.622C139.993 356.662 135.513 361.502 128.953 361.502C122.393 361.502 117.913 356.662 117.913 350.622C117.913 344.582 122.393 339.742 128.953 339.742ZM129.033 356.702C132.273 356.702 134.713 354.102 134.713 350.622C134.713 347.102 132.273 344.542 129.033 344.542C125.673 344.542 123.193 347.102 123.193 350.622C123.193 354.142 125.673 356.702 129.033 356.702ZM142.353 364.222C142.353 362.222 143.353 360.622 145.153 359.302C144.353 358.502 143.913 357.422 143.913 356.382C143.913 354.782 144.593 353.502 146.113 352.382C144.353 351.062 143.393 349.062 143.393 346.822C143.393 342.902 146.433 339.742 151.473 339.742C153.033 339.742 154.393 340.022 155.553 340.542H162.913V344.862H159.353C159.553 345.502 159.633 346.142 159.633 346.822C159.633 350.782 156.673 353.982 151.473 353.982C150.793 353.982 150.153 353.942 149.553 353.822C149.113 354.222 148.873 354.662 148.873 355.102C148.873 355.902 149.313 356.302 150.233 356.302H155.313C160.393 356.302 163.153 359.022 163.153 362.782C163.153 367.262 158.873 370.702 152.593 370.702C146.153 370.702 142.353 368.462 142.353 364.222ZM151.553 350.142C153.673 350.142 155.033 348.822 155.033 346.822C155.033 344.822 153.673 343.542 151.553 343.542C149.353 343.542 148.033 344.862 148.033 346.822C148.033 348.822 149.353 350.142 151.553 350.142ZM147.153 363.502C147.153 365.422 148.993 366.622 152.553 366.622C156.233 366.622 158.113 365.262 158.113 363.262C158.113 361.742 157.193 360.662 154.753 360.662H148.513C147.753 361.382 147.153 362.262 147.153 363.502ZM166.657 360.702V340.542H171.737V342.542C173.057 341.182 174.777 340.142 177.057 340.142C177.737 340.142 178.337 340.262 178.817 340.422V345.422C178.177 345.262 177.497 345.142 176.577 345.142C174.097 345.142 172.497 346.502 171.737 347.782V360.702H166.657ZM187.611 361.302C183.571 361.302 180.811 358.982 180.811 355.262C180.811 352.222 183.171 349.942 187.491 349.222L193.651 348.182V347.662C193.651 345.542 192.051 344.182 189.731 344.182C187.771 344.182 186.251 345.102 185.171 346.582L181.451 343.742C183.251 341.262 186.211 339.742 189.891 339.742C195.731 339.742 198.731 343.222 198.731 347.662V360.702H193.651V358.742C192.371 360.302 189.971 361.302 187.611 361.302ZM185.851 355.022C185.851 356.382 186.931 357.262 188.651 357.262C190.971 357.262 192.651 356.182 193.651 354.582V351.742L188.851 352.542C186.731 352.902 185.851 353.782 185.851 355.022ZM204.548 370.542V340.542H209.628V342.182C211.188 340.622 213.148 339.742 215.908 339.742C222.308 339.742 226.148 344.742 226.148 350.622C226.148 356.502 222.308 361.502 215.908 361.502C213.148 361.502 211.188 360.622 209.628 359.062V370.542H204.548ZM215.188 344.542C212.828 344.542 210.908 345.582 209.628 347.462V353.782C210.988 355.702 212.868 356.702 215.188 356.702C218.628 356.702 220.868 354.142 220.868 350.622C220.868 347.102 218.628 344.542 215.188 344.542ZM230.798 360.702V330.702H235.878V342.142C237.278 340.782 239.158 339.742 241.838 339.742C246.198 339.742 249.678 342.742 249.678 348.702V360.702H244.558V348.902C244.558 346.222 243.078 344.542 240.558 344.542C237.998 344.542 236.638 346.262 235.878 347.542V360.702H230.798ZM258.006 337.022C256.206 337.022 254.686 335.502 254.686 333.702C254.686 331.902 256.206 330.382 258.006 330.382C259.806 330.382 261.286 331.902 261.286 333.702C261.286 335.502 259.806 337.022 258.006 337.022ZM255.446 360.702V340.542H260.526V360.702H255.446ZM265.178 350.622C265.178 344.742 269.018 339.742 275.418 339.742C278.138 339.742 280.098 340.622 281.658 342.182V340.542H286.778V370.542H281.658V359.062C280.098 360.622 278.138 361.502 275.418 361.502C269.018 361.502 265.178 356.502 265.178 350.622ZM270.458 350.622C270.458 354.142 272.658 356.702 276.098 356.702C278.458 356.702 280.418 355.662 281.658 353.822V347.422C280.298 345.542 278.378 344.542 276.098 344.542C272.658 344.542 270.458 347.102 270.458 350.622ZM306.148 351.982V340.542H311.268V351.742C311.268 357.782 307.748 361.502 301.828 361.502C295.908 361.502 292.428 357.782 292.428 351.742V340.542H297.548V351.982C297.548 354.902 299.068 356.702 301.868 356.702C304.628 356.702 306.148 354.902 306.148 351.982ZM335.452 357.422C333.572 359.942 330.452 361.502 326.652 361.502C319.492 361.502 315.452 356.502 315.452 350.622C315.452 344.662 319.212 339.742 325.812 339.742C331.412 339.742 335.092 343.542 335.092 348.822C335.092 349.942 334.932 350.982 334.772 351.662H320.652C321.132 355.422 323.452 356.942 326.612 356.942C328.812 356.942 330.732 355.982 331.812 354.542L335.452 357.422ZM325.692 343.902C323.092 343.902 321.372 345.342 320.812 347.982H330.092C330.012 345.942 328.532 343.902 325.692 343.902ZM338.022 357.782L341.382 354.742C342.622 356.302 344.102 357.422 346.022 357.422C347.662 357.422 348.502 356.462 348.502 355.262C348.502 351.742 338.862 353.062 338.862 345.982C338.862 342.422 341.862 339.742 346.062 339.742C349.142 339.742 351.942 341.222 353.382 343.182L350.022 346.142C348.982 344.862 347.662 343.822 346.102 343.822C344.502 343.822 343.742 344.702 343.742 345.742C343.742 349.182 353.382 347.982 353.382 354.942C353.302 359.182 349.902 361.502 346.102 361.502C342.502 361.502 339.942 360.062 338.022 357.782Z" fill="#161616"/>
<path d="M92.2031 409.702V392.902H96.6671C100.051 392.902 102.139 394.75 102.139 397.63C102.139 399.646 101.107 401.158 99.3071 401.878L104.731 409.702H102.067L97.1951 402.31C97.0271 402.334 96.8351 402.334 96.6671 402.334H94.4591V409.702H92.2031ZM96.7631 394.822H94.4591V400.414H96.7631C98.6831 400.414 99.8111 399.382 99.8111 397.582C99.8111 395.878 98.6831 394.822 96.7631 394.822ZM110.456 410.038C108.08 410.038 106.472 408.718 106.472 406.654C106.472 404.83 107.864 403.534 110.432 403.102L114.512 402.43V401.59C114.512 399.91 113.312 398.95 111.584 398.95C110.192 398.95 109.064 399.598 108.32 400.63L106.784 399.454C107.84 398.014 109.544 397.126 111.656 397.126C114.728 397.126 116.552 398.926 116.552 401.59V409.702H114.512V408.166C113.6 409.342 112.016 410.038 110.456 410.038ZM108.536 406.582C108.536 407.614 109.376 408.358 110.792 408.358C112.4 408.358 113.72 407.59 114.512 406.294V403.918L110.936 404.518C109.28 404.806 108.536 405.55 108.536 406.582ZM119.348 408.046L120.788 406.822C121.628 407.878 122.636 408.478 123.86 408.478C125.204 408.478 125.972 407.662 125.972 406.606C125.972 403.894 119.924 404.854 119.924 400.582C119.924 398.686 121.532 397.126 123.86 397.126C125.588 397.126 127.076 397.942 127.916 399.118L126.5 400.318C125.852 399.406 124.94 398.83 123.884 398.83C122.588 398.83 121.892 399.598 121.892 400.534C121.892 403.246 127.964 402.382 127.964 406.51C127.94 408.766 126.14 410.182 123.884 410.182C121.964 410.182 120.452 409.414 119.348 408.046ZM132.075 405.646V399.454H129.795V397.606H132.075V394.582H134.139V397.606H138.339V399.454H134.139V405.646C134.139 407.542 135.099 408.07 136.563 408.07C137.355 408.07 137.907 407.974 138.363 407.782V409.606C137.787 409.846 137.139 409.942 136.275 409.942C133.587 409.942 132.075 408.598 132.075 405.646ZM151.975 407.71C150.847 409.222 149.047 410.182 146.791 410.182C142.711 410.182 140.191 407.182 140.191 403.654C140.191 399.982 142.543 397.126 146.287 397.126C149.575 397.126 151.711 399.43 151.711 402.406C151.711 402.886 151.639 403.342 151.567 403.678H142.279C142.351 406.582 144.199 408.334 146.791 408.334C148.351 408.334 149.671 407.614 150.463 406.534L151.975 407.71ZM146.239 398.854C144.247 398.854 142.855 400.03 142.423 402.118H149.671C149.599 400.342 148.375 398.854 146.239 398.854ZM155.168 409.702V397.606H157.208V399.118C158.096 398.062 159.2 397.366 160.736 397.366C161.12 397.366 161.48 397.414 161.768 397.51V399.502C161.408 399.406 161.048 399.358 160.568 399.358C158.984 399.358 157.952 400.174 157.208 401.398V409.702H155.168ZM176.696 397.126C180.584 397.126 183.248 400.126 183.248 403.654C183.248 407.182 180.584 410.182 176.696 410.182C172.784 410.182 170.144 407.182 170.144 403.654C170.144 400.126 172.784 397.126 176.696 397.126ZM176.72 408.262C179.24 408.262 181.088 406.15 181.088 403.654C181.088 401.134 179.24 399.046 176.72 399.046C174.128 399.046 172.28 401.134 172.28 403.654C172.28 406.174 174.128 408.262 176.72 408.262ZM194.951 404.518V397.606H196.991V404.446C196.991 408.07 194.903 410.182 191.615 410.182C188.351 410.182 186.263 408.07 186.263 404.446V397.606H188.303V404.518C188.303 406.894 189.575 408.262 191.639 408.262C193.655 408.262 194.951 406.894 194.951 404.518ZM205.656 397.606H207.864L211.728 407.566L215.592 397.606H217.8L213.072 409.702H210.384L205.656 397.606ZM230.865 407.71C229.737 409.222 227.937 410.182 225.681 410.182C221.601 410.182 219.081 407.182 219.081 403.654C219.081 399.982 221.433 397.126 225.177 397.126C228.465 397.126 230.601 399.43 230.601 402.406C230.601 402.886 230.529 403.342 230.457 403.678H221.169C221.241 406.582 223.089 408.334 225.681 408.334C227.241 408.334 228.561 407.614 229.353 406.534L230.865 407.71ZM225.129 398.854C223.137 398.854 221.745 400.03 221.313 402.118H228.561C228.489 400.342 227.265 398.854 225.129 398.854ZM239.58 408.262C241.068 408.262 242.292 407.542 243.036 406.486L244.644 407.71C243.516 409.222 241.764 410.182 239.556 410.182C235.548 410.182 232.98 407.182 232.98 403.654C232.98 400.126 235.548 397.126 239.556 397.126C241.74 397.126 243.516 398.11 244.644 399.598L243.036 400.822C242.292 399.766 241.068 399.046 239.556 399.046C236.964 399.046 235.116 401.086 235.116 403.654C235.116 406.246 236.964 408.262 239.58 408.262ZM248.09 405.646V399.454H245.81V397.606H248.09V394.582H250.154V397.606H254.354V399.454H250.154V405.646C250.154 407.542 251.114 408.07 252.578 408.07C253.37 408.07 253.922 407.974 254.378 407.782V409.606C253.802 409.846 253.154 409.942 252.29 409.942C249.602 409.942 248.09 408.598 248.09 405.646ZM262.758 397.126C266.646 397.126 269.31 400.126 269.31 403.654C269.31 407.182 266.646 410.182 262.758 410.182C258.846 410.182 256.206 407.182 256.206 403.654C256.206 400.126 258.846 397.126 262.758 397.126ZM262.782 408.262C265.302 408.262 267.15 406.15 267.15 403.654C267.15 401.134 265.302 399.046 262.782 399.046C260.19 399.046 258.342 401.134 258.342 403.654C258.342 406.174 260.19 408.262 262.782 408.262ZM272.59 409.702V397.606H274.63V399.118C275.518 398.062 276.622 397.366 278.158 397.366C278.542 397.366 278.902 397.414 279.19 397.51V399.502C278.83 399.406 278.47 399.358 277.99 399.358C276.406 399.358 275.374 400.174 274.63 401.398V409.702H272.59ZM283.161 394.462C282.369 394.462 281.721 393.814 281.721 393.022C281.721 392.254 282.369 391.606 283.161 391.606C283.953 391.606 284.577 392.254 284.577 393.022C284.577 393.814 283.953 394.462 283.161 394.462ZM282.129 409.702V397.606H284.169V409.702H282.129ZM299.232 407.71C298.104 409.222 296.304 410.182 294.048 410.182C289.968 410.182 287.448 407.182 287.448 403.654C287.448 399.982 289.8 397.126 293.544 397.126C296.832 397.126 298.968 399.43 298.968 402.406C298.968 402.886 298.896 403.342 298.824 403.678H289.536C289.608 406.582 291.456 408.334 294.048 408.334C295.608 408.334 296.928 407.614 297.72 406.534L299.232 407.71ZM293.496 398.854C291.504 398.854 290.112 400.03 289.68 402.118H296.928C296.856 400.342 295.632 398.854 293.496 398.854ZM302.426 409.702V391.702H304.466V409.702H302.426ZM308.777 409.702V391.702H310.817V409.702H308.777ZM325.881 407.71C324.753 409.222 322.953 410.182 320.697 410.182C316.617 410.182 314.097 407.182 314.097 403.654C314.097 399.982 316.449 397.126 320.193 397.126C323.481 397.126 325.617 399.43 325.617 402.406C325.617 402.886 325.545 403.342 325.473 403.678H316.185C316.257 406.582 318.105 408.334 320.697 408.334C322.257 408.334 323.577 407.614 324.369 406.534L325.881 407.71ZM320.145 398.854C318.153 398.854 316.761 400.03 316.329 402.118H323.577C323.505 400.342 322.281 398.854 320.145 398.854ZM327.684 408.046L329.124 406.822C329.964 407.878 330.972 408.478 332.196 408.478C333.54 408.478 334.308 407.662 334.308 406.606C334.308 403.894 328.26 404.854 328.26 400.582C328.26 398.686 329.868 397.126 332.196 397.126C333.924 397.126 335.412 397.942 336.252 399.118L334.836 400.318C334.188 399.406 333.276 398.83 332.22 398.83C330.924 398.83 330.228 399.598 330.228 400.534C330.228 403.246 336.3 402.382 336.3 406.51C336.276 408.766 334.476 410.182 332.22 410.182C330.3 410.182 328.788 409.414 327.684 408.046Z" fill="#666666"/>
<path d="M76.8335 188.284C71.3106 188.284 66.8335 183.807 66.8335 178.284C66.8335 172.761 71.3106 168.284 76.8335 168.284C82.3563 168.284 86.8335 172.761 86.8335 178.284C86.8335 183.807 82.3563 188.284 76.8335 188.284ZM123.5 188.284C117.977 188.284 113.5 183.807 113.5 178.284C113.5 172.761 117.977 168.284 123.5 168.284C129.023 168.284 133.5 172.761 133.5 178.284C133.5 183.807 129.023 188.284 123.5 188.284ZM123.5 234.951C117.977 234.951 113.5 230.474 113.5 224.951C113.5 219.428 117.977 214.951 123.5 214.951C129.023 214.951 133.5 219.428 133.5 224.951C133.5 230.474 129.023 234.951 123.5 234.951ZM76.8335 234.951C71.3106 234.951 66.8335 230.474 66.8335 224.951C66.8335 219.428 71.3106 214.951 76.8335 214.951C82.3563 214.951 86.8335 219.428 86.8335 224.951C86.8335 230.474 82.3563 234.951 76.8335 234.951ZM90.1668 174.951H110.167V181.617H90.1668V174.951ZM90.1668 221.617H110.167V228.284H90.1668V221.617ZM73.5001 191.617H80.1668V211.617H73.5001V191.617ZM120.167 191.617H126.833V211.617H120.167V191.617Z" fill="#929292"/>
<path d="M299.167 80.6667H245.833V127.333L276.807 96.3533C277.432 95.7284 278.28 95.3774 279.163 95.3774C280.047 95.3774 280.895 95.7284 281.52 96.3533L299.167 114.033V80.6667ZM239.167 77.31C239.173 76.4346 239.523 75.5967 240.142 74.9774C240.761 74.3581 241.598 74.007 242.473 74H302.527C304.353 74 305.833 75.4833 305.833 77.31V130.69C305.827 131.565 305.477 132.403 304.858 133.023C304.24 133.642 303.402 133.993 302.527 134H242.473C241.596 133.999 240.755 133.65 240.135 133.029C239.515 132.409 239.167 131.567 239.167 130.69V77.31ZM259.167 100.667C257.399 100.667 255.703 99.9643 254.453 98.714C253.202 97.4638 252.5 95.7681 252.5 94C252.5 92.2319 253.202 90.5362 254.453 89.286C255.703 88.0357 257.399 87.3333 259.167 87.3333C260.935 87.3333 262.631 88.0357 263.881 89.286C265.131 90.5362 265.833 92.2319 265.833 94C265.833 95.7681 265.131 97.4638 263.881 98.714C262.631 99.9643 260.935 100.667 259.167 100.667Z" fill="#929292"/>
<path fill-rule="evenodd" clip-rule="evenodd" d="M213.5 168.284C231.91 168.284 246.833 183.207 246.833 201.617C246.833 220.027 231.91 234.951 213.5 234.951C195.09 234.951 180.167 220.027 180.167 201.617C180.167 183.207 195.09 168.284 213.5 168.284ZM228.5 186.617L206.833 194.951L198.5 216.617L220.167 208.284L228.5 186.617ZM213.5 198.284C215.341 198.284 216.833 199.776 216.833 201.617C216.833 203.458 215.341 204.951 213.5 204.951C211.659 204.951 210.167 203.458 210.167 201.617C210.167 199.776 211.659 198.284 213.5 198.284Z" fill="#929292"/>
<path fill-rule="evenodd" clip-rule="evenodd" d="M356.225 217.603C355.705 216.507 354.432 215.983 353.266 216.385L352.965 216.49L352.682 216.297C352.985 215.935 353.169 215.49 353.209 215.014C353.27 214.303 353.003 213.615 352.48 213.128L352.312 212.971C352.855 212.561 353.207 211.927 353.247 211.236L353.312 210.021C353.34 209.438 353.145 208.867 352.761 208.412L351.861 207.357C352.442 206.57 352.464 205.5 351.914 204.686L351.151 203.572L350.827 203.171L350.573 202.319C350.33 201.505 349.667 200.91 348.868 200.712L351.2 197.762C351.494 197.67 351.769 197.524 352.007 197.33L353.365 196.219C353.922 195.763 354.233 195.095 354.219 194.388L354.161 190.906L354.902 188.805C354.961 188.635 354.998 188.462 355.017 188.273L355.07 187.694L356.106 185.765C356.681 184.698 356.316 183.352 355.275 182.699L354.313 182.103C353.945 181.872 353.518 181.745 353.076 181.735L351.973 181.716L351.217 181.316C350.806 181.101 350.35 181.011 349.851 181.052L348.608 181.177L347.673 180.058C347.373 179.697 346.972 179.436 346.517 179.302L345.223 178.921C344.71 178.77 344.148 178.798 343.637 178.999L343.307 179.132L343.048 179.022C342.703 178.873 342.322 178.807 341.956 178.828L340.34 177.754V176.918C340.34 176.197 340.009 175.528 339.43 175.08C338.855 174.637 338.095 174.474 337.401 174.645L336.614 174.831C336.385 174.456 336.05 174.147 335.634 173.94L334.678 173.472C334.48 173.373 334.273 173.303 334.058 173.262C333.716 172.833 333.231 172.533 332.688 172.418L332.557 171.999C332.252 171.005 331.336 170.338 330.277 170.338H329.903L329.181 169.302C328.623 168.496 327.592 168.115 326.612 168.355L322.769 169.337C322.074 169.515 321.503 169.985 321.204 170.628L320.358 172.445C320.202 172.789 320.131 173.17 320.154 173.552L320.309 175.918L319.224 176.891L315.18 178.252C314.281 178.551 313.651 179.344 313.574 180.269L313.552 180.534L311.421 180.122L309.78 178.392C309.285 177.873 308.56 177.592 307.919 177.654L306.006 177.75C305.29 177.789 304.639 178.135 304.22 178.697C303.801 179.255 303.657 179.963 303.823 180.64L304.455 183.163L305.299 185.149L304.674 185.038C304.238 184.957 303.785 184.998 303.363 185.159L303.182 185.229L302.317 184.367C301.83 183.88 301.142 183.631 300.405 183.677L295.736 184.089C295.465 184.111 295.205 184.178 294.931 184.299L291.541 185.851C290.432 186.36 289.898 187.599 290.3 188.735L290.817 190.195C290.984 190.664 291.306 191.073 291.734 191.362C291.618 191.923 291.712 192.518 292.011 193.014L292.558 193.929C292.984 194.643 293.772 195.087 294.614 195.087H295.901L300.377 196.832L301.179 197.875C301.331 198.069 301.512 198.238 301.718 198.377L301.965 198.545C301.967 198.554 301.969 198.564 301.971 198.573L302.524 201.03C302.599 201.352 302.74 201.649 302.943 201.913L304.805 204.339C305.02 204.625 305.306 204.862 305.63 205.025L306.723 205.575C306.765 205.824 306.848 206.065 306.969 206.289C306.477 206.746 306.198 207.382 306.207 208.047C306.213 208.435 306.319 208.818 306.511 209.155C306.481 209.264 306.46 209.375 306.447 209.487L305.738 215.56C305.693 215.935 305.74 216.308 305.872 216.655C305.839 216.756 305.812 216.859 305.793 216.963L304.935 221.561L303.389 223.407C302.941 223.943 302.76 224.645 302.892 225.334C303.028 226.013 303.46 226.596 304.082 226.936L305.075 227.472L305.548 228.289C305.804 228.73 306.205 229.083 306.678 229.283L309 230.262L309.695 230.986C310.143 231.454 310.774 231.721 311.428 231.721H312.458L313.143 232.118C313.422 232.281 313.725 232.386 314.047 232.428L318.1 232.964C318.788 233.062 319.481 232.857 320.003 232.407C320.101 232.322 320.191 232.231 320.273 232.132L320.667 232.216L321.606 232.593C321.798 233.211 322.248 233.734 322.846 234.019L323.992 234.565C324.452 234.779 324.985 234.842 325.493 234.744L326.466 234.549L328.612 234.925L328.953 234.951C329.168 234.951 329.382 234.923 329.564 234.872L332.126 234.204C332.739 234.04 333.266 233.639 333.57 233.107C333.884 232.568 333.967 231.914 333.794 231.31L333.173 229.168L333.811 227.898L335.84 226.701C336.363 227.028 336.995 227.139 337.599 227.018L338.339 227.419C338.776 227.649 339.276 227.74 339.769 227.679C339.822 227.699 339.877 227.717 339.934 227.733L342.086 228.348L345.32 229.088C345.617 229.161 345.932 229.176 346.231 229.134L347.805 228.913C347.96 228.892 348.108 228.856 348.301 228.79L350.404 228.029C351 227.812 351.49 227.363 351.745 226.8C351.898 226.467 351.969 226.104 351.954 225.743L352.994 225.088L355.394 223.134C356.039 222.604 356.347 221.795 356.222 220.994L356.353 220.811C356.88 220.127 356.981 219.217 356.617 218.435L356.225 217.603Z" fill="#929292"/>
<path d="M173.307 103.833C176.131 101.012 178.183 97.5132 179.267 93.6717C180.352 89.8302 180.432 85.7747 179.5 81.8933L187.817 78.3267C188.071 78.2179 188.347 78.1739 188.622 78.1985C188.897 78.2231 189.161 78.3155 189.392 78.4675C189.622 78.6195 189.811 78.8263 189.942 79.0693C190.072 79.3124 190.141 79.5841 190.14 79.86V127.333L166.807 137.333L146.807 127.333L125.797 136.337C125.543 136.445 125.267 136.489 124.992 136.465C124.717 136.44 124.453 136.348 124.222 136.196C123.992 136.044 123.803 135.837 123.672 135.594C123.542 135.351 123.473 135.079 123.474 134.803V87.3333L133.904 82.8633C133.17 86.6153 133.37 90.4901 134.487 94.1464C135.603 97.8027 137.602 101.128 140.307 103.83L156.807 120.333L173.307 103.833ZM168.594 99.12L156.807 110.9L145.02 99.1167C142.69 96.7856 141.103 93.8159 140.46 90.583C139.817 87.3501 140.148 83.9992 141.409 80.954C142.671 77.9089 144.807 75.3061 147.548 73.475C150.289 71.6438 153.511 70.6664 156.807 70.6664C160.103 70.6664 163.325 71.6438 166.066 73.475C168.807 75.3061 170.943 77.9089 172.205 80.954C173.466 83.9992 173.796 87.3501 173.154 90.583C172.511 93.8159 170.924 96.7856 168.594 99.1167V99.12Z" fill="#929292"/>
<path fill-rule="evenodd" clip-rule="evenodd" d="M1720.81 290.702C1724.47 290.702 1727.43 293.696 1727.43 297.416V383.989C1727.43 387.696 1724.39 390.702 1720.81 390.702H1667.43V404.036H1694.09V417.369H1627.43V404.036H1654.09V390.702H1600.71C1598.94 390.692 1597.25 389.978 1596.01 388.718C1594.77 387.459 1594.08 385.757 1594.09 383.989V297.416C1594.09 293.709 1597.13 290.702 1600.71 290.702H1720.81ZM1714.09 304.036H1607.43V377.369H1714.09V304.036Z" fill="#000091"/>
<path d="M1607.05 467.913V446.889H1613.87V467.337C1613.87 476.169 1608.68 481.449 1600.24 481.449C1591.84 481.449 1586.65 476.169 1586.65 467.337V446.889H1593.47V467.913C1593.47 472.425 1596.01 475.065 1600.28 475.065C1604.46 475.065 1607.05 472.425 1607.05 467.913ZM1618.61 476.985L1622.64 473.337C1624.13 475.209 1625.91 476.553 1628.21 476.553C1630.18 476.553 1631.19 475.401 1631.19 473.961C1631.19 469.737 1619.62 471.321 1619.62 462.825C1619.62 458.553 1623.22 455.337 1628.26 455.337C1631.95 455.337 1635.31 457.113 1637.04 459.465L1633.01 463.017C1631.76 461.481 1630.18 460.233 1628.31 460.233C1626.39 460.233 1625.47 461.289 1625.47 462.537C1625.47 466.665 1637.04 465.225 1637.04 473.577C1636.95 478.665 1632.87 481.449 1628.31 481.449C1623.99 481.449 1620.91 479.721 1618.61 476.985ZM1649.29 481.209C1644.44 481.209 1641.13 478.425 1641.13 473.961C1641.13 470.313 1643.96 467.577 1649.14 466.713L1656.54 465.465V464.841C1656.54 462.297 1654.62 460.665 1651.83 460.665C1649.48 460.665 1647.66 461.769 1646.36 463.545L1641.9 460.137C1644.06 457.161 1647.61 455.337 1652.02 455.337C1659.03 455.337 1662.63 459.513 1662.63 464.841V480.489H1656.54V478.137C1655 480.009 1652.12 481.209 1649.29 481.209ZM1647.18 473.673C1647.18 475.305 1648.47 476.361 1650.54 476.361C1653.32 476.361 1655.34 475.065 1656.54 473.145V469.737L1650.78 470.697C1648.23 471.129 1647.18 472.185 1647.18 473.673ZM1667.21 484.713C1667.21 482.313 1668.41 480.393 1670.57 478.809C1669.61 477.849 1669.08 476.553 1669.08 475.305C1669.08 473.385 1669.9 471.849 1671.72 470.505C1669.61 468.921 1668.46 466.521 1668.46 463.833C1668.46 459.129 1672.11 455.337 1678.16 455.337C1680.03 455.337 1681.66 455.673 1683.05 456.297H1691.88V461.481H1687.61C1687.85 462.249 1687.95 463.017 1687.95 463.833C1687.95 468.585 1684.4 472.425 1678.16 472.425C1677.34 472.425 1676.57 472.377 1675.85 472.233C1675.32 472.713 1675.04 473.241 1675.04 473.769C1675.04 474.729 1675.56 475.209 1676.67 475.209H1682.76C1688.86 475.209 1692.17 478.473 1692.17 482.985C1692.17 488.361 1687.04 492.489 1679.5 492.489C1671.77 492.489 1667.21 489.801 1667.21 484.713ZM1678.25 467.817C1680.8 467.817 1682.43 466.233 1682.43 463.833C1682.43 461.433 1680.8 459.897 1678.25 459.897C1675.61 459.897 1674.03 461.481 1674.03 463.833C1674.03 466.233 1675.61 467.817 1678.25 467.817ZM1672.97 483.849C1672.97 486.153 1675.18 487.593 1679.45 487.593C1683.87 487.593 1686.12 485.961 1686.12 483.561C1686.12 481.737 1685.02 480.441 1682.09 480.441H1674.6C1673.69 481.305 1672.97 482.361 1672.97 483.849ZM1717.48 476.553C1715.22 479.577 1711.48 481.449 1706.92 481.449C1698.33 481.449 1693.48 475.449 1693.48 468.393C1693.48 461.241 1697.99 455.337 1705.91 455.337C1712.63 455.337 1717.05 459.897 1717.05 466.233C1717.05 467.577 1716.85 468.825 1716.66 469.641H1699.72C1700.29 474.153 1703.08 475.977 1706.87 475.977C1709.51 475.977 1711.81 474.825 1713.11 473.097L1717.48 476.553ZM1705.77 460.329C1702.65 460.329 1700.58 462.057 1699.91 465.225H1711.05C1710.95 462.777 1709.17 460.329 1705.77 460.329ZM1723 480.489V456.297H1729.1V458.697C1730.68 457.065 1732.75 455.817 1735.48 455.817C1736.3 455.817 1737.02 455.961 1737.59 456.153V462.153C1736.83 461.961 1736.01 461.817 1734.91 461.817C1731.93 461.817 1730.01 463.449 1729.1 464.985V480.489H1723Z" fill="#000091"/>
<path d="M1579.48 530.705C1580.87 531.929 1582.17 532.385 1583.23 532.385C1583.61 532.385 1584.07 532.337 1584.4 532.217V534.185C1583.97 534.329 1583.51 534.401 1582.91 534.401C1581.33 534.401 1579.7 533.777 1578.02 532.361L1575.83 530.537C1574.95 530.825 1574.01 530.969 1572.98 530.969C1567.72 530.969 1564.15 526.889 1564.15 522.089C1564.15 517.289 1567.72 513.209 1572.98 513.209C1578.21 513.209 1581.79 517.289 1581.79 522.089C1581.79 525.113 1580.37 527.825 1578.04 529.433L1579.48 530.705ZM1572.98 528.857C1576.75 528.857 1579.46 525.833 1579.46 522.089C1579.46 518.345 1576.75 515.321 1572.98 515.321C1569.19 515.321 1566.47 518.345 1566.47 522.089C1566.47 525.833 1569.19 528.857 1572.98 528.857ZM1593.59 525.305V518.393H1595.63V525.233C1595.63 528.857 1593.54 530.969 1590.25 530.969C1586.99 530.969 1584.9 528.857 1584.9 525.233V518.393H1586.94V525.305C1586.94 527.681 1588.21 529.049 1590.28 529.049C1592.29 529.049 1593.59 527.681 1593.59 525.305ZM1600.68 515.249C1599.89 515.249 1599.24 514.601 1599.24 513.809C1599.24 513.041 1599.89 512.393 1600.68 512.393C1601.48 512.393 1602.1 513.041 1602.1 513.809C1602.1 514.601 1601.48 515.249 1600.68 515.249ZM1599.65 530.489V518.393H1601.69V530.489H1599.65ZM1618.04 529.049C1619.53 529.049 1620.75 528.329 1621.5 527.273L1623.1 528.497C1621.98 530.009 1620.22 530.969 1618.02 530.969C1614.01 530.969 1611.44 527.969 1611.44 524.441C1611.44 520.913 1614.01 517.913 1618.02 517.913C1620.2 517.913 1621.98 518.897 1623.1 520.385L1621.5 521.609C1620.75 520.553 1619.53 519.833 1618.02 519.833C1615.42 519.833 1613.58 521.873 1613.58 524.441C1613.58 527.033 1615.42 529.049 1618.04 529.049ZM1630.95 517.913C1634.84 517.913 1637.5 520.913 1637.5 524.441C1637.5 527.969 1634.84 530.969 1630.95 530.969C1627.04 530.969 1624.4 527.969 1624.4 524.441C1624.4 520.913 1627.04 517.913 1630.95 517.913ZM1630.98 529.049C1633.5 529.049 1635.34 526.937 1635.34 524.441C1635.34 521.921 1633.5 519.833 1630.98 519.833C1628.38 519.833 1626.54 521.921 1626.54 524.441C1626.54 526.961 1628.38 529.049 1630.98 529.049ZM1640.78 530.489V518.393H1642.82V519.761C1643.81 518.681 1645.06 517.913 1646.86 517.913C1649.57 517.913 1651.58 519.737 1651.58 523.169V530.489H1649.54V523.241C1649.54 521.081 1648.32 519.833 1646.45 519.833C1644.7 519.833 1643.59 520.841 1642.82 522.113V530.489H1640.78ZM1654.39 528.833L1655.83 527.609C1656.67 528.665 1657.68 529.265 1658.91 529.265C1660.25 529.265 1661.02 528.449 1661.02 527.393C1661.02 524.681 1654.97 525.641 1654.97 521.369C1654.97 519.473 1656.58 517.913 1658.91 517.913C1660.63 517.913 1662.12 518.729 1662.96 519.905L1661.55 521.105C1660.9 520.193 1659.99 519.617 1658.93 519.617C1657.63 519.617 1656.94 520.385 1656.94 521.321C1656.94 524.033 1663.01 523.169 1663.01 527.297C1662.99 529.553 1661.19 530.969 1658.93 530.969C1657.01 530.969 1655.5 530.201 1654.39 528.833ZM1674.76 525.305V518.393H1676.8V525.233C1676.8 528.857 1674.71 530.969 1671.42 530.969C1668.16 530.969 1666.07 528.857 1666.07 525.233V518.393H1668.11V525.305C1668.11 527.681 1669.38 529.049 1671.44 529.049C1673.46 529.049 1674.76 527.681 1674.76 525.305ZM1680.82 530.489V512.489H1682.86V530.489H1680.82ZM1687.86 526.433V520.241H1685.58V518.393H1687.86V515.369H1689.93V518.393H1694.13V520.241H1689.93V526.433C1689.93 528.329 1690.89 528.857 1692.35 528.857C1693.14 528.857 1693.69 528.761 1694.15 528.569V530.393C1693.57 530.633 1692.93 530.729 1692.06 530.729C1689.37 530.729 1687.86 529.385 1687.86 526.433ZM1707.76 528.497C1706.63 530.009 1704.83 530.969 1702.58 530.969C1698.5 530.969 1695.98 527.969 1695.98 524.441C1695.98 520.769 1698.33 517.913 1702.07 517.913C1705.36 517.913 1707.5 520.217 1707.5 523.193C1707.5 523.673 1707.43 524.129 1707.35 524.465H1698.07C1698.14 527.369 1699.99 529.121 1702.58 529.121C1704.14 529.121 1705.46 528.401 1706.25 527.321L1707.76 528.497ZM1702.03 519.641C1700.03 519.641 1698.64 520.817 1698.21 522.905H1705.46C1705.39 521.129 1704.16 519.641 1702.03 519.641ZM1725.85 525.305V518.393H1727.89V525.233C1727.89 528.857 1725.8 530.969 1722.51 530.969C1719.25 530.969 1717.16 528.857 1717.16 525.233V518.393H1719.2V525.305C1719.2 527.681 1720.47 529.049 1722.54 529.049C1724.55 529.049 1725.85 527.681 1725.85 525.305ZM1731.91 530.489V518.393H1733.95V519.761C1734.93 518.681 1736.18 517.913 1737.98 517.913C1740.69 517.913 1742.71 519.737 1742.71 523.169V530.489H1740.67V523.241C1740.67 521.081 1739.45 519.833 1737.57 519.833C1735.82 519.833 1734.72 520.841 1733.95 522.113V530.489H1731.91ZM1757.57 528.497C1756.44 530.009 1754.64 530.969 1752.38 530.969C1748.3 530.969 1745.78 527.969 1745.78 524.441C1745.78 520.769 1748.14 517.913 1751.88 517.913C1755.17 517.913 1757.3 520.217 1757.3 523.193C1757.3 523.673 1757.23 524.129 1757.16 524.465H1747.87C1747.94 527.369 1749.79 529.121 1752.38 529.121C1753.94 529.121 1755.26 528.401 1756.06 527.321L1757.57 528.497ZM1751.83 519.641C1749.84 519.641 1748.45 520.817 1748.02 522.905H1755.26C1755.19 521.129 1753.97 519.641 1751.83 519.641ZM1576.05 561.049C1577.54 561.049 1578.76 560.329 1579.51 559.273L1581.12 560.497C1579.99 562.009 1578.24 562.969 1576.03 562.969C1572.02 562.969 1569.45 559.969 1569.45 556.441C1569.45 552.913 1572.02 549.913 1576.03 549.913C1578.21 549.913 1579.99 550.897 1581.12 552.385L1579.51 553.609C1578.76 552.553 1577.54 551.833 1576.03 551.833C1573.44 551.833 1571.59 553.873 1571.59 556.441C1571.59 559.033 1573.44 561.049 1576.05 561.049ZM1587.04 562.825C1584.66 562.825 1583.05 561.505 1583.05 559.441C1583.05 557.617 1584.44 556.321 1587.01 555.889L1591.09 555.217V554.377C1591.09 552.697 1589.89 551.737 1588.16 551.737C1586.77 551.737 1585.64 552.385 1584.9 553.417L1583.36 552.241C1584.42 550.801 1586.12 549.913 1588.24 549.913C1591.31 549.913 1593.13 551.713 1593.13 554.377V562.489H1591.09V560.953C1590.18 562.129 1588.6 562.825 1587.04 562.825ZM1585.12 559.369C1585.12 560.401 1585.96 561.145 1587.37 561.145C1588.98 561.145 1590.3 560.377 1591.09 559.081V556.705L1587.52 557.305C1585.86 557.593 1585.12 558.337 1585.12 559.369ZM1597.23 562.489V550.393H1599.27V551.905C1600.15 550.849 1601.26 550.153 1602.79 550.153C1603.18 550.153 1603.54 550.201 1603.83 550.297V552.289C1603.47 552.193 1603.11 552.145 1602.63 552.145C1601.04 552.145 1600.01 552.961 1599.27 554.185V562.489H1597.23ZM1608.02 558.433V552.241H1605.74V550.393H1608.02V547.369H1610.09V550.393H1614.29V552.241H1610.09V558.433C1610.09 560.329 1611.05 560.857 1612.51 560.857C1613.3 560.857 1613.86 560.761 1614.31 560.569V562.393C1613.74 562.633 1613.09 562.729 1612.22 562.729C1609.54 562.729 1608.02 561.385 1608.02 558.433ZM1627.92 560.497C1626.79 562.009 1624.99 562.969 1622.74 562.969C1618.66 562.969 1616.14 559.969 1616.14 556.441C1616.14 552.769 1618.49 549.913 1622.23 549.913C1625.52 549.913 1627.66 552.217 1627.66 555.193C1627.66 555.673 1627.59 556.129 1627.51 556.465H1618.23C1618.3 559.369 1620.15 561.121 1622.74 561.121C1624.3 561.121 1625.62 560.401 1626.41 559.321L1627.92 560.497ZM1622.19 551.641C1620.19 551.641 1618.8 552.817 1618.37 554.905H1625.62C1625.55 553.129 1624.32 551.641 1622.19 551.641ZM1636.29 560.833L1637.73 559.609C1638.57 560.665 1639.58 561.265 1640.8 561.265C1642.14 561.265 1642.91 560.449 1642.91 559.393C1642.91 556.681 1636.86 557.641 1636.86 553.369C1636.86 551.473 1638.47 549.913 1640.8 549.913C1642.53 549.913 1644.02 550.729 1644.86 551.905L1643.44 553.105C1642.79 552.193 1641.88 551.617 1640.82 551.617C1639.53 551.617 1638.83 552.385 1638.83 553.321C1638.83 556.033 1644.9 555.169 1644.9 559.297C1644.88 561.553 1643.08 562.969 1640.82 562.969C1638.9 562.969 1637.39 562.201 1636.29 560.833ZM1656.65 557.305V550.393H1658.69V557.233C1658.69 560.857 1656.6 562.969 1653.31 562.969C1650.05 562.969 1647.96 560.857 1647.96 557.233V550.393H1650V557.305C1650 559.681 1651.27 561.049 1653.34 561.049C1655.35 561.049 1656.65 559.681 1656.65 557.305ZM1662.71 562.489V550.393H1664.75V551.905C1665.64 550.849 1666.74 550.153 1668.28 550.153C1668.66 550.153 1669.02 550.201 1669.31 550.297V552.289C1668.95 552.193 1668.59 552.145 1668.11 552.145C1666.53 552.145 1665.49 552.961 1664.75 554.185V562.489H1662.71ZM1687.14 557.305V550.393H1689.18V557.233C1689.18 560.857 1687.09 562.969 1683.81 562.969C1680.54 562.969 1678.45 560.857 1678.45 557.233V550.393H1680.49V557.305C1680.49 559.681 1681.77 561.049 1683.83 561.049C1685.85 561.049 1687.14 559.681 1687.14 557.305ZM1693.2 562.489V550.393H1695.24V551.761C1696.23 550.681 1697.47 549.913 1699.27 549.913C1701.99 549.913 1704 551.737 1704 555.169V562.489H1701.96V555.241C1701.96 553.081 1700.74 551.833 1698.87 551.833C1697.11 551.833 1696.01 552.841 1695.24 554.113V562.489H1693.2ZM1713.28 560.833L1714.72 559.609C1715.56 560.665 1716.57 561.265 1717.79 561.265C1719.14 561.265 1719.91 560.449 1719.91 559.393C1719.91 556.681 1713.86 557.641 1713.86 553.369C1713.86 551.473 1715.47 549.913 1717.79 549.913C1719.52 549.913 1721.01 550.729 1721.85 551.905L1720.43 553.105C1719.79 552.193 1718.87 551.617 1717.82 551.617C1716.52 551.617 1715.83 552.385 1715.83 553.321C1715.83 556.033 1721.9 555.169 1721.9 559.297C1721.87 561.553 1720.07 562.969 1717.82 562.969C1715.9 562.969 1714.39 562.201 1713.28 560.833ZM1726.25 547.249C1725.46 547.249 1724.81 546.601 1724.81 545.809C1724.81 545.041 1725.46 544.393 1726.25 544.393C1727.04 544.393 1727.67 545.041 1727.67 545.809C1727.67 546.601 1727.04 547.249 1726.25 547.249ZM1725.22 562.489V550.393H1727.26V562.489H1725.22ZM1732.27 558.433V552.241H1729.99V550.393H1732.27V547.369H1734.33V550.393H1738.53V552.241H1734.33V558.433C1734.33 560.329 1735.29 560.857 1736.75 560.857C1737.55 560.857 1738.1 560.761 1738.55 560.569V562.393C1737.98 562.633 1737.33 562.729 1736.47 562.729C1733.78 562.729 1732.27 561.385 1732.27 558.433ZM1752.17 560.497C1751.04 562.009 1749.24 562.969 1746.98 562.969C1742.9 562.969 1740.38 559.969 1740.38 556.441C1740.38 552.769 1742.73 549.913 1746.48 549.913C1749.77 549.913 1751.9 552.217 1751.9 555.193C1751.9 555.673 1751.83 556.129 1751.76 556.465H1742.47C1742.54 559.369 1744.39 561.121 1746.98 561.121C1748.54 561.121 1749.86 560.401 1750.65 559.321L1752.17 560.497ZM1746.43 551.641C1744.44 551.641 1743.05 552.817 1742.61 554.905H1749.86C1749.79 553.129 1748.57 551.641 1746.43 551.641Z" fill="#666666"/>
<path d="M779.276 371.476C777.323 373.429 777.323 376.594 779.276 378.547L811.095 410.367C813.048 412.319 816.214 412.319 818.166 410.367C820.119 408.414 820.119 405.248 818.166 403.296L789.882 375.011L818.166 346.727C820.119 344.775 820.119 341.609 818.166 339.656C816.214 337.704 813.048 337.704 811.095 339.656L779.276 371.476ZM1223.51 370.011L782.811 370.011V380.011L1223.51 380.011V370.011Z" fill="#6A6AF4"/>
<path d="M1227.05 472.099C1229 470.147 1229 466.981 1227.05 465.028L1195.23 433.209C1193.27 431.256 1190.11 431.256 1188.15 433.209C1186.2 435.161 1186.2 438.327 1188.15 440.28L1216.44 468.564L1188.15 496.848C1186.2 498.801 1186.2 501.967 1188.15 503.919C1190.11 505.872 1193.27 505.872 1195.23 503.919L1227.05 472.099ZM1223.51 463.564L782.811 463.564V473.564L1223.51 473.564V463.564Z" fill="#6A6AF4"/>
<path d="M924.015 214.702V181.102H943.599V186.766H930.831V194.734H941.679V200.398H930.831V214.702H924.015ZM948.781 214.702V178.702H954.877V214.702H948.781ZM978.123 204.238V190.51H984.267V203.95C984.267 211.198 980.043 215.662 972.939 215.662C965.835 215.662 961.659 211.198 961.659 203.95V190.51H967.803V204.238C967.803 207.742 969.627 209.902 972.987 209.902C976.299 209.902 978.123 207.742 978.123 204.238ZM994.68 214.702H987.672L996.216 202.27L988.152 190.51H995.112L1000.1 197.95L1005.1 190.51H1012.1L1003.99 202.27L1012.54 214.702H1005.58L1000.1 206.59L994.68 214.702ZM1028.38 202.606C1028.38 195.55 1033.04 189.55 1040.67 189.55C1043.93 189.55 1046.29 190.558 1048.16 192.43V178.702H1054.3V214.702H1048.16V212.782C1046.29 214.654 1043.93 215.662 1040.67 215.662C1033.04 215.662 1028.38 209.662 1028.38 202.606ZM1034.77 202.606C1034.77 206.83 1037.41 209.902 1041.53 209.902C1044.27 209.902 1046.53 208.75 1048.16 206.542V198.67C1046.53 196.462 1044.27 195.31 1041.53 195.31C1037.41 195.31 1034.77 198.382 1034.77 202.606ZM1083.88 210.766C1081.63 213.79 1077.88 215.662 1073.32 215.662C1064.73 215.662 1059.88 209.662 1059.88 202.606C1059.88 195.454 1064.39 189.55 1072.31 189.55C1079.03 189.55 1083.45 194.11 1083.45 200.446C1083.45 201.79 1083.26 203.038 1083.07 203.854H1066.12C1066.7 208.366 1069.48 210.19 1073.27 210.19C1075.91 210.19 1078.22 209.038 1079.51 207.31L1083.88 210.766ZM1072.17 194.542C1069.05 194.542 1066.99 196.27 1066.31 199.438H1077.45C1077.35 196.99 1075.58 194.542 1072.17 194.542ZM905.334 258.606C905.334 251.55 909.99 245.55 917.622 245.55C920.886 245.55 923.238 246.558 925.11 248.43V234.702H931.254V270.702H925.11V268.782C923.238 270.654 920.886 271.662 917.622 271.662C909.99 271.662 905.334 265.662 905.334 258.606ZM911.718 258.606C911.718 262.83 914.358 265.902 918.486 265.902C921.222 265.902 923.478 264.75 925.11 262.542V254.67C923.478 252.462 921.222 251.31 918.486 251.31C914.358 251.31 911.718 254.382 911.718 258.606ZM950.082 245.55C957.954 245.55 963.33 251.358 963.33 258.606C963.33 265.854 957.954 271.662 950.082 271.662C942.21 271.662 936.834 265.854 936.834 258.606C936.834 251.358 942.21 245.55 950.082 245.55ZM950.178 265.902C954.066 265.902 956.994 262.782 956.994 258.606C956.994 254.382 954.066 251.31 950.178 251.31C946.146 251.31 943.17 254.382 943.17 258.606C943.17 262.83 946.146 265.902 950.178 265.902ZM968.891 270.702V246.51H974.987V248.43C976.667 246.798 978.923 245.55 982.139 245.55C987.371 245.55 991.547 249.15 991.547 256.302V270.702H985.403V256.542C985.403 253.326 983.579 251.31 980.603 251.31C977.531 251.31 975.899 253.374 974.987 254.91V270.702H968.891ZM998.469 270.702V246.51H1004.56V248.43C1006.24 246.798 1008.5 245.55 1011.72 245.55C1016.95 245.55 1021.12 249.15 1021.12 256.302V270.702H1014.98V256.542C1014.98 253.326 1013.16 251.31 1010.18 251.31C1007.11 251.31 1005.48 253.374 1004.56 254.91V270.702H998.469ZM1042.11 242.67H1036.25L1041.25 234.702H1047.87L1042.11 242.67ZM1050.32 266.766C1048.06 269.79 1044.32 271.662 1039.76 271.662C1031.17 271.662 1026.32 265.662 1026.32 258.606C1026.32 251.454 1030.83 245.55 1038.75 245.55C1045.47 245.55 1049.89 250.11 1049.89 256.446C1049.89 257.79 1049.69 259.038 1049.5 259.854H1032.56C1033.13 264.366 1035.92 266.19 1039.71 266.19C1042.35 266.19 1044.65 265.038 1045.95 263.31L1050.32 266.766ZM1038.61 250.542C1035.49 250.542 1033.42 252.27 1032.75 255.438H1043.89C1043.79 252.99 1042.01 250.542 1038.61 250.542ZM1077.93 266.766C1075.67 269.79 1071.93 271.662 1067.37 271.662C1058.78 271.662 1053.93 265.662 1053.93 258.606C1053.93 251.454 1058.44 245.55 1066.36 245.55C1073.08 245.55 1077.5 250.11 1077.5 256.446C1077.5 257.79 1077.3 259.038 1077.11 259.854H1060.17C1060.74 264.366 1063.53 266.19 1067.32 266.19C1069.96 266.19 1072.26 265.038 1073.56 263.31L1077.93 266.766ZM1066.22 250.542C1063.1 250.542 1061.03 252.27 1060.36 255.438H1071.5C1071.4 252.99 1069.62 250.542 1066.22 250.542ZM1081.01 267.198L1085.04 263.55C1086.53 265.422 1088.31 266.766 1090.61 266.766C1092.58 266.766 1093.59 265.614 1093.59 264.174C1093.59 259.95 1082.02 261.534 1082.02 253.038C1082.02 248.766 1085.62 245.55 1090.66 245.55C1094.36 245.55 1097.72 247.326 1099.44 249.678L1095.41 253.23C1094.16 251.694 1092.58 250.446 1090.71 250.446C1088.79 250.446 1087.88 251.502 1087.88 252.75C1087.88 256.878 1099.44 255.438 1099.44 263.79C1099.35 268.878 1095.27 271.662 1090.71 271.662C1086.39 271.662 1083.32 269.934 1081.01 267.198Z" fill="#000091"/>
<path d="M956.516 351.076V334.276H960.98C964.364 334.276 966.452 336.124 966.452 339.004C966.452 341.02 965.42 342.532 963.62 343.252L969.044 351.076H966.38L961.508 343.684C961.34 343.708 961.148 343.708 960.98 343.708H958.772V351.076H956.516ZM961.076 336.196H958.772V341.788H961.076C962.996 341.788 964.124 340.756 964.124 338.956C964.124 337.252 962.996 336.196 961.076 336.196ZM981.998 349.084C980.87 350.596 979.07 351.556 976.814 351.556C972.734 351.556 970.214 348.556 970.214 345.028C970.214 341.356 972.566 338.5 976.31 338.5C979.598 338.5 981.734 340.804 981.734 343.78C981.734 344.26 981.662 344.716 981.59 345.052H972.302C972.374 347.956 974.222 349.708 976.814 349.708C978.374 349.708 979.694 348.988 980.486 347.908L981.998 349.084ZM976.262 340.228C974.27 340.228 972.878 341.404 972.446 343.492H979.694C979.622 341.716 978.398 340.228 976.262 340.228ZM984.113 345.028C984.113 341.5 986.537 338.5 990.329 338.5C992.129 338.5 993.545 339.196 994.625 340.444V338.98H996.665V356.98H994.625V349.612C993.545 350.86 992.129 351.556 990.329 351.556C986.537 351.556 984.113 348.556 984.113 345.028ZM986.249 345.028C986.249 347.596 988.001 349.636 990.545 349.636C992.249 349.636 993.713 348.82 994.625 347.38V342.676C993.689 341.212 992.225 340.42 990.545 340.42C988.001 340.42 986.249 342.46 986.249 345.028ZM1009.41 345.892V338.98H1011.45V345.82C1011.45 349.444 1009.36 351.556 1006.08 351.556C1002.81 351.556 1000.72 349.444 1000.72 345.82V338.98H1002.76V345.892C1002.76 348.268 1004.04 349.636 1006.1 349.636C1008.12 349.636 1009.41 348.268 1009.41 345.892ZM1018.54 337.06H1016.7L1019.22 333.076H1021.98L1024.47 337.06H1022.65L1020.61 334.036L1018.54 337.06ZM1026.22 349.084C1025.1 350.596 1023.3 351.556 1021.04 351.556C1016.96 351.556 1014.44 348.556 1014.44 345.028C1014.44 341.356 1016.79 338.5 1020.54 338.5C1023.82 338.5 1025.96 340.804 1025.96 343.78C1025.96 344.26 1025.89 344.716 1025.82 345.052H1016.53C1016.6 347.956 1018.45 349.708 1021.04 349.708C1022.6 349.708 1023.92 348.988 1024.71 347.908L1026.22 349.084ZM1020.49 340.228C1018.5 340.228 1017.1 341.404 1016.67 343.492H1023.92C1023.85 341.716 1022.62 340.228 1020.49 340.228ZM1030.04 347.02V340.828H1027.76V338.98H1030.04V335.956H1032.11V338.98H1036.31V340.828H1032.11V347.02C1032.11 348.916 1033.07 349.444 1034.53 349.444C1035.32 349.444 1035.88 349.348 1036.33 349.156V350.98C1035.76 351.22 1035.11 351.316 1034.24 351.316C1031.56 351.316 1030.04 349.972 1030.04 347.02ZM1049.94 349.084C1048.82 350.596 1047.02 351.556 1044.76 351.556C1040.68 351.556 1038.16 348.556 1038.16 345.028C1038.16 341.356 1040.51 338.5 1044.26 338.5C1047.54 338.5 1049.68 340.804 1049.68 343.78C1049.68 344.26 1049.61 344.716 1049.54 345.052H1040.25C1040.32 347.956 1042.17 349.708 1044.76 349.708C1046.32 349.708 1047.64 348.988 1048.43 347.908L1049.94 349.084ZM1044.21 340.228C1042.22 340.228 1040.82 341.404 1040.39 343.492H1047.64C1047.57 341.716 1046.34 340.228 1044.21 340.228Z" fill="#666666"/>
<path d="M925.765 443.615V426.815H930.229C933.613 426.815 935.701 428.663 935.701 431.543C935.701 433.559 934.669 435.071 932.869 435.791L938.293 443.615H935.629L930.757 436.223C930.589 436.247 930.397 436.247 930.229 436.247H928.021V443.615H925.765ZM930.325 428.735H928.021V434.327H930.325C932.245 434.327 933.373 433.295 933.373 431.495C933.373 429.791 932.245 428.735 930.325 428.735ZM946.64 429.599H944.648L947.144 425.615H949.448L946.64 429.599ZM951.248 441.623C950.12 443.135 948.32 444.095 946.064 444.095C941.984 444.095 939.464 441.095 939.464 437.567C939.464 433.895 941.816 431.039 945.56 431.039C948.848 431.039 950.984 433.343 950.984 436.319C950.984 436.799 950.912 437.255 950.84 437.591H941.552C941.624 440.495 943.472 442.247 946.064 442.247C947.624 442.247 948.944 441.527 949.736 440.447L951.248 441.623ZM945.512 432.767C943.52 432.767 942.128 433.943 941.696 436.031H948.944C948.872 434.255 947.648 432.767 945.512 432.767ZM954.441 449.519V431.519H956.481V432.959C957.561 431.735 958.977 431.039 960.777 431.039C964.569 431.039 966.993 434.039 966.993 437.567C966.993 441.095 964.569 444.095 960.777 444.095C958.977 444.095 957.561 443.399 956.481 442.175V449.519H954.441ZM960.537 432.959C958.857 432.959 957.393 433.775 956.481 435.215V439.919C957.417 441.383 958.881 442.175 960.537 442.175C963.105 442.175 964.857 440.135 964.857 437.567C964.857 434.999 963.105 432.959 960.537 432.959ZM975.922 431.039C979.81 431.039 982.474 434.039 982.474 437.567C982.474 441.095 979.81 444.095 975.922 444.095C972.01 444.095 969.37 441.095 969.37 437.567C969.37 434.039 972.01 431.039 975.922 431.039ZM975.946 442.175C978.466 442.175 980.314 440.063 980.314 437.567C980.314 435.047 978.466 432.959 975.946 432.959C973.354 432.959 971.506 435.047 971.506 437.567C971.506 440.087 973.354 442.175 975.946 442.175ZM985.753 443.615V431.519H987.793V432.887C988.777 431.807 990.025 431.039 991.825 431.039C994.537 431.039 996.553 432.863 996.553 436.295V443.615H994.513V436.367C994.513 434.207 993.289 432.959 991.417 432.959C989.665 432.959 988.561 433.967 987.793 435.239V443.615H985.753ZM999.364 441.959L1000.8 440.735C1001.64 441.791 1002.65 442.391 1003.88 442.391C1005.22 442.391 1005.99 441.575 1005.99 440.519C1005.99 437.807 999.94 438.767 999.94 434.495C999.94 432.599 1001.55 431.039 1003.88 431.039C1005.6 431.039 1007.09 431.855 1007.93 433.031L1006.52 434.231C1005.87 433.319 1004.96 432.743 1003.9 432.743C1002.6 432.743 1001.91 433.511 1001.91 434.447C1001.91 437.159 1007.98 436.295 1007.98 440.423C1007.96 442.679 1006.16 444.095 1003.9 444.095C1001.98 444.095 1000.47 443.327 999.364 441.959ZM1021.91 441.623C1020.78 443.135 1018.98 444.095 1016.73 444.095C1012.65 444.095 1010.13 441.095 1010.13 437.567C1010.13 433.895 1012.48 431.039 1016.22 431.039C1019.51 431.039 1021.65 433.343 1021.65 436.319C1021.65 436.799 1021.58 437.255 1021.5 437.591H1012.22C1012.29 440.495 1014.14 442.247 1016.73 442.247C1018.29 442.247 1019.61 441.527 1020.4 440.447L1021.91 441.623ZM1016.18 432.767C1014.18 432.767 1012.79 433.943 1012.36 436.031H1019.61C1019.54 434.255 1018.31 432.767 1016.18 432.767Z" fill="#666666"/>
<mask id="path-20-inside-1_21_4" fill="white">
<path d="M1278.78 303.827H1515.78V557.827H1278.78V303.827Z"/>
</mask>
<path d="M1278.78 303.827H1515.78V557.827H1278.78V303.827Z" fill="#EEEEEE"/>
<path d="M1275.78 303.827V314.41H1281.78V303.827H1275.78ZM1275.78 335.577V356.744H1281.78V335.577H1275.78ZM1275.78 377.91V399.077H1281.78V377.91H1275.78ZM1275.78 420.244V441.41H1281.78V420.244H1275.78ZM1275.78 462.577V483.744H1281.78V462.577H1275.78ZM1275.78 504.91V526.077H1281.78V504.91H1275.78ZM1275.78 547.244V557.827H1281.78V547.244H1275.78ZM1518.78 557.827V547.244H1512.78V557.827H1518.78ZM1518.78 526.077V504.91H1512.78V526.077H1518.78ZM1518.78 483.744V462.577H1512.78V483.744H1518.78ZM1518.78 441.41V420.244H1512.78V441.41H1518.78ZM1518.78 399.077V377.91H1512.78V399.077H1518.78ZM1518.78 356.744V335.577H1512.78V356.744H1518.78ZM1518.78 314.41V303.827H1512.78V314.41H1518.78ZM1272.78 303.827V314.41H1284.78V303.827H1272.78ZM1272.78 335.577V356.744H1284.78V335.577H1272.78ZM1272.78 377.91V399.077H1284.78V377.91H1272.78ZM1272.78 420.244V441.41H1284.78V420.244H1272.78ZM1272.78 462.577V483.744H1284.78V462.577H1272.78ZM1272.78 504.91V526.077H1284.78V504.91H1272.78ZM1272.78 547.244V557.827H1284.78V547.244H1272.78ZM1521.78 557.827V547.244H1509.78V557.827H1521.78ZM1521.78 526.077V504.91H1509.78V526.077H1521.78ZM1521.78 483.744V462.577H1509.78V483.744H1521.78ZM1521.78 441.41V420.244H1509.78V441.41H1521.78ZM1521.78 399.077V377.91H1509.78V399.077H1521.78ZM1521.78 356.744V335.577H1509.78V356.744H1521.78ZM1521.78 314.41V303.827H1509.78V314.41H1521.78Z" fill="#6A6AF4" mask="url(#path-20-inside-1_21_4)"/>
<path fill-rule="evenodd" clip-rule="evenodd" d="M1397.28 341.494C1415.68 341.494 1430.61 354.754 1430.61 371.124C1430.6 381.349 1422.32 389.637 1412.09 389.641H1405.54C1402.46 389.641 1399.98 392.124 1399.98 395.197C1399.98 396.604 1400.54 397.901 1401.39 398.864C1402.28 399.864 1402.83 401.161 1402.83 402.604C1402.83 405.681 1400.28 408.161 1397.28 408.161C1378.87 408.161 1363.94 393.234 1363.94 374.827C1363.94 356.421 1378.87 341.494 1397.28 341.494ZM1397.28 348.16C1382.98 348.147 1371.21 359.414 1370.61 373.7C1370 387.985 1380.77 400.205 1395.02 401.401C1393.91 399.525 1393.32 397.383 1393.31 395.201V395.197C1393.31 391.955 1394.6 388.844 1396.89 386.551C1399.18 384.258 1402.29 382.971 1405.54 382.974H1412.09C1418.63 382.97 1423.94 377.669 1423.94 371.127C1423.94 358.624 1412.17 348.16 1397.28 348.16ZM1382.28 364.827C1385.04 364.827 1387.28 367.066 1387.28 369.827C1387.28 372.589 1385.04 374.827 1382.28 374.827C1379.51 374.827 1377.28 372.589 1377.28 369.827C1377.28 367.066 1379.51 364.827 1382.28 364.827ZM1412.28 364.827C1415.04 364.827 1417.28 367.066 1417.28 369.827C1417.28 372.589 1415.04 374.827 1412.28 374.827C1409.51 374.827 1407.28 372.589 1407.28 369.827C1407.28 367.066 1409.51 364.827 1412.28 364.827ZM1397.28 354.827C1400.04 354.827 1402.28 357.066 1402.28 359.827C1402.28 362.589 1400.04 364.827 1397.28 364.827C1394.51 364.827 1392.28 362.589 1392.28 359.827C1392.28 357.066 1394.51 354.827 1397.28 354.827Z" fill="#000091"/>
<path d="M1320.44 468.947L1324.56 465.147C1326.24 467.307 1328.48 468.587 1330.76 468.587C1333 468.587 1334.36 467.387 1334.36 465.387C1334.36 460.227 1321.64 461.627 1321.64 452.147C1321.64 447.707 1325.32 444.027 1330.68 444.027C1334.88 444.027 1338.08 445.907 1340.48 448.747L1336.32 452.507C1334.68 450.387 1332.84 448.987 1330.72 448.987C1328.72 448.987 1327.4 450.267 1327.4 451.947C1327.4 457.027 1340.12 455.587 1340.12 465.187C1340.04 470.467 1335.96 473.627 1330.8 473.627C1326.08 473.627 1322.92 471.907 1320.44 468.947ZM1346.01 465.467V457.227H1342.25V452.667H1346.01V447.627H1351.13V452.667H1357.29V457.227H1351.13V465.467C1351.13 467.707 1352.33 468.587 1354.33 468.587C1355.73 468.587 1356.65 468.427 1357.33 468.147V472.587C1356.33 473.027 1355.13 473.227 1353.45 473.227C1348.41 473.227 1346.01 470.387 1346.01 465.467ZM1370.88 477.427C1369.48 480.747 1367.2 482.827 1363.36 482.827C1361.8 482.827 1360.72 482.587 1359.76 482.187V477.707C1360.4 477.987 1361.36 478.187 1362.24 478.187C1364.24 478.187 1365.48 477.507 1366.32 475.467L1367.44 472.787L1358.96 452.667H1364.6L1370.12 466.227L1375.68 452.667H1381.04L1370.88 477.427ZM1384.22 472.827V442.827H1389.3V472.827H1384.22ZM1413.95 469.547C1412.07 472.067 1408.95 473.627 1405.15 473.627C1397.99 473.627 1393.95 468.627 1393.95 462.747C1393.95 456.787 1397.71 451.867 1404.31 451.867C1409.91 451.867 1413.59 455.667 1413.59 460.947C1413.59 462.067 1413.43 463.107 1413.27 463.787H1399.15C1399.63 467.547 1401.95 469.067 1405.11 469.067C1407.31 469.067 1409.23 468.107 1410.31 466.667L1413.95 469.547ZM1404.19 456.027C1401.59 456.027 1399.87 457.467 1399.31 460.107H1408.59C1408.51 458.067 1407.03 456.027 1404.19 456.027ZM1427.9 462.747C1427.9 456.867 1431.78 451.867 1438.14 451.867C1440.86 451.867 1442.82 452.707 1444.38 454.267V442.827H1449.5V472.827H1444.38V471.227C1442.82 472.787 1440.86 473.627 1438.14 473.627C1431.78 473.627 1427.9 468.627 1427.9 462.747ZM1433.22 462.747C1433.22 466.267 1435.42 468.827 1438.86 468.827C1441.14 468.827 1443.02 467.867 1444.38 466.027V459.467C1443.02 457.627 1441.14 456.667 1438.86 456.667C1435.42 456.667 1433.22 459.227 1433.22 462.747ZM1474.15 469.547C1472.27 472.067 1469.15 473.627 1465.35 473.627C1458.19 473.627 1454.15 468.627 1454.15 462.747C1454.15 456.787 1457.91 451.867 1464.51 451.867C1470.11 451.867 1473.79 455.667 1473.79 460.947C1473.79 462.067 1473.63 463.107 1473.47 463.787H1459.35C1459.83 467.547 1462.15 469.067 1465.31 469.067C1467.51 469.067 1469.43 468.107 1470.51 466.667L1474.15 469.547ZM1464.39 456.027C1461.79 456.027 1460.07 457.467 1459.51 460.107H1468.79C1468.71 458.067 1467.23 456.027 1464.39 456.027ZM1359.14 516.827C1361.14 516.827 1362.74 515.907 1363.7 514.507L1367.66 517.547C1365.78 520.027 1362.82 521.627 1359.14 521.627C1352.18 521.627 1348.02 516.627 1348.02 510.747C1348.02 504.867 1352.18 499.867 1359.14 499.867C1362.82 499.867 1365.78 501.467 1367.66 503.947L1363.7 506.987C1362.74 505.587 1361.14 504.667 1359.06 504.667C1355.74 504.667 1353.3 507.227 1353.3 510.747C1353.3 514.307 1355.74 516.827 1359.14 516.827ZM1376.78 521.427C1372.74 521.427 1369.98 519.107 1369.98 515.387C1369.98 512.347 1372.34 510.067 1376.66 509.347L1382.82 508.307V507.787C1382.82 505.667 1381.22 504.307 1378.9 504.307C1376.94 504.307 1375.42 505.227 1374.34 506.707L1370.62 503.867C1372.42 501.387 1375.38 499.867 1379.06 499.867C1384.9 499.867 1387.9 503.347 1387.9 507.787V520.827H1382.82V518.867C1381.54 520.427 1379.14 521.427 1376.78 521.427ZM1375.02 515.147C1375.02 516.507 1376.1 517.387 1377.82 517.387C1380.14 517.387 1381.82 516.307 1382.82 514.707V511.867L1378.02 512.667C1375.9 513.027 1375.02 513.907 1375.02 515.147ZM1393.71 520.827V500.667H1398.79V502.667C1400.11 501.307 1401.83 500.267 1404.11 500.267C1404.79 500.267 1405.39 500.387 1405.87 500.547V505.547C1405.23 505.387 1404.55 505.267 1403.63 505.267C1401.15 505.267 1399.55 506.627 1398.79 507.907V520.827H1393.71ZM1412.57 513.467V505.227H1408.81V500.667H1412.57V495.627H1417.69V500.667H1423.85V505.227H1417.69V513.467C1417.69 515.707 1418.89 516.587 1420.89 516.587C1422.29 516.587 1423.21 516.427 1423.89 516.147V520.587C1422.89 521.027 1421.69 521.227 1420.01 521.227C1414.97 521.227 1412.57 518.387 1412.57 513.467ZM1446.57 517.547C1444.69 520.067 1441.57 521.627 1437.77 521.627C1430.61 521.627 1426.57 516.627 1426.57 510.747C1426.57 504.787 1430.33 499.867 1436.93 499.867C1442.53 499.867 1446.21 503.667 1446.21 508.947C1446.21 510.067 1446.05 511.107 1445.89 511.787H1431.77C1432.25 515.547 1434.57 517.067 1437.73 517.067C1439.93 517.067 1441.85 516.107 1442.93 514.667L1446.57 517.547ZM1436.81 504.027C1434.21 504.027 1432.49 505.467 1431.93 508.107H1441.21C1441.13 506.067 1439.65 504.027 1436.81 504.027Z" fill="#000091"/>
</svg>
