<svg width="1812" height="600" viewBox="0 0 1812 600" fill="none" xmlns="http://www.w3.org/2000/svg">
<path d="M554.369 248.542C556.725 249.982 559.803 249.24 561.244 246.885L584.722 208.495C586.162 206.139 585.421 203.061 583.065 201.621C580.709 200.18 577.631 200.922 576.191 203.277L555.321 237.402L521.197 216.532C518.841 215.092 515.763 215.834 514.323 218.189C512.882 220.545 513.624 223.623 515.979 225.064L554.369 248.542ZM382.532 88.7297C385.694 88.4678 388.799 88.2643 391.849 88.1196L391.375 78.1308C388.203 78.2813 384.98 78.4926 381.707 78.7638L382.532 88.7297ZM410.446 87.9962C416.844 88.2377 422.966 88.7874 428.828 89.65L430.284 79.7566C424.036 78.8371 417.552 78.2573 410.823 78.0033L410.446 87.9962ZM446.736 93.4885C452.706 95.2102 458.378 97.3329 463.774 99.8656L468.023 90.8131C462.13 88.047 455.962 85.7416 449.507 83.88L446.736 93.4885ZM479.487 108.929C484.389 112.34 489.054 116.191 493.499 120.5L500.459 113.319C495.639 108.647 490.559 104.45 485.199 100.721L479.487 108.929ZM505.686 134.158C509.312 138.825 512.779 143.879 516.098 149.335L524.641 144.138C521.141 138.384 517.46 133.013 513.583 128.023L505.686 134.158ZM524.984 165.618C527.621 170.987 530.153 176.663 532.588 182.653L541.852 178.888C539.337 172.699 536.709 166.807 533.96 161.21L524.984 165.618ZM539.137 200.195C541.102 205.919 542.998 211.883 544.83 218.094L554.422 215.264C552.552 208.925 550.612 202.821 548.595 196.948L539.137 200.195ZM549.833 236.268C550.606 239.278 551.367 242.337 552.117 245.448L561.839 243.104C561.078 239.947 560.304 236.839 559.518 233.779L549.833 236.268ZM554.369 248.542C556.725 249.982 559.803 249.24 561.244 246.885L584.722 208.495C586.162 206.139 585.421 203.061 583.065 201.621C580.709 200.18 577.631 200.922 576.191 203.277L555.321 237.402L521.197 216.532C518.841 215.092 515.763 215.834 514.323 218.189C512.882 220.545 513.624 223.623 515.979 225.064L554.369 248.542ZM382.532 88.7297C385.694 88.4678 388.799 88.2643 391.849 88.1196L391.375 78.1308C388.203 78.2813 384.98 78.4926 381.707 78.7638L382.532 88.7297ZM410.446 87.9962C416.844 88.2377 422.966 88.7874 428.828 89.65L430.284 79.7566C424.036 78.8371 417.552 78.2573 410.823 78.0033L410.446 87.9962ZM446.736 93.4885C452.706 95.2102 458.378 97.3329 463.774 99.8656L468.023 90.8131C462.13 88.047 455.962 85.7416 449.507 83.88L446.736 93.4885ZM479.487 108.929C484.389 112.34 489.054 116.191 493.499 120.5L500.459 113.319C495.639 108.647 490.559 104.45 485.199 100.721L479.487 108.929ZM505.686 134.158C509.312 138.825 512.779 143.879 516.098 149.335L524.641 144.138C521.141 138.384 517.46 133.013 513.583 128.023L505.686 134.158ZM524.984 165.618C527.621 170.987 530.153 176.663 532.588 182.653L541.852 178.888C539.337 172.699 536.709 166.807 533.96 161.21L524.984 165.618ZM539.137 200.195C541.102 205.919 542.998 211.883 544.83 218.094L554.422 215.264C552.552 208.925 550.612 202.821 548.595 196.948L539.137 200.195ZM549.833 236.268C550.606 239.278 551.367 242.337 552.117 245.448L561.839 243.104C561.078 239.947 560.304 236.839 559.518 233.779L549.833 236.268Z" fill="#929292"/>
<path d="M620.52 338.549C672.436 338.549 714.522 324.52 714.522 307.215C714.522 289.91 672.436 275.881 620.52 275.881C568.604 275.881 526.518 289.91 526.518 307.215C526.518 324.52 568.604 338.549 620.52 338.549Z" fill="#E8EDFF"/>
<path d="M526.518 307.215V453.441C526.518 461.751 536.422 469.721 554.05 475.597C571.679 481.474 595.589 484.775 620.52 484.775C645.451 484.775 669.361 481.474 686.99 475.597C704.618 469.721 714.522 461.751 714.522 453.441V307.215" fill="#E8EDFF"/>
<path d="M526.518 380.328C526.518 388.638 536.422 396.608 554.05 402.484C571.679 408.361 595.589 411.662 620.52 411.662C645.451 411.662 669.361 408.361 686.99 402.484C704.618 396.608 714.522 388.638 714.522 380.328" fill="#E8EDFF"/>
<path d="M714.522 307.215C714.522 324.52 672.436 338.549 620.52 338.549C568.604 338.549 526.518 324.52 526.518 307.215M714.522 307.215C714.522 289.91 672.436 275.881 620.52 275.881C568.604 275.881 526.518 289.91 526.518 307.215M714.522 307.215V453.441C714.522 461.751 704.618 469.721 686.99 475.597C669.361 481.474 645.451 484.775 620.52 484.775C595.589 484.775 571.679 481.474 554.05 475.597C536.422 469.721 526.518 461.751 526.518 453.441V307.215M526.518 380.328C526.518 388.638 536.422 396.608 554.05 402.484C571.679 408.361 595.589 411.662 620.52 411.662C645.451 411.662 669.361 408.361 686.99 402.484C704.618 396.608 714.522 388.638 714.522 380.328" stroke="#000091" stroke-width="6" stroke-linecap="round" stroke-linejoin="round"/>
<path d="M533.331 559.211L538.275 554.651C540.291 557.243 542.979 558.779 545.715 558.779C548.403 558.779 550.035 557.339 550.035 554.939C550.035 548.747 534.771 550.427 534.771 539.051C534.771 533.723 539.187 529.307 545.619 529.307C550.659 529.307 554.499 531.563 557.379 534.971L552.387 539.483C550.419 536.939 548.211 535.259 545.667 535.259C543.267 535.259 541.683 536.795 541.683 538.811C541.683 544.907 556.947 543.179 556.947 554.699C556.851 561.035 551.955 564.827 545.763 564.827C540.099 564.827 536.307 562.763 533.331 559.211ZM585.456 559.931C583.2 562.955 579.456 564.827 574.896 564.827C566.304 564.827 561.456 558.827 561.456 551.771C561.456 544.619 565.968 538.715 573.888 538.715C580.608 538.715 585.024 543.275 585.024 549.611C585.024 550.955 584.832 552.203 584.64 553.019H567.696C568.272 557.531 571.056 559.355 574.848 559.355C577.488 559.355 579.792 558.203 581.088 556.475L585.456 559.931ZM573.744 543.707C570.624 543.707 568.56 545.435 567.888 548.603H579.024C578.928 546.155 577.152 543.707 573.744 543.707ZM590.981 563.867V539.675H597.077V542.075C598.661 540.443 600.725 539.195 603.461 539.195C604.277 539.195 604.997 539.339 605.573 539.531V545.531C604.805 545.339 603.989 545.195 602.885 545.195C599.909 545.195 597.989 546.827 597.077 548.363V563.867H590.981ZM608.243 539.675H614.771L621.059 556.955L627.299 539.675H633.875L625.043 563.867H617.027L608.243 539.675ZM659.706 559.931C657.45 562.955 653.706 564.827 649.146 564.827C640.554 564.827 635.706 558.827 635.706 551.771C635.706 544.619 640.218 538.715 648.138 538.715C654.858 538.715 659.274 543.275 659.274 549.611C659.274 550.955 659.082 552.203 658.89 553.019H641.946C642.522 557.531 645.306 559.355 649.098 559.355C651.738 559.355 654.042 558.203 655.338 556.475L659.706 559.931ZM647.994 543.707C644.874 543.707 642.81 545.435 642.138 548.603H653.274C653.178 546.155 651.402 543.707 647.994 543.707ZM680.885 553.403V539.675H687.029V553.115C687.029 560.363 682.805 564.827 675.701 564.827C668.597 564.827 664.421 560.363 664.421 553.115V539.675H670.565V553.403C670.565 556.907 672.389 559.067 675.749 559.067C679.061 559.067 680.885 556.907 680.885 553.403ZM693.777 563.867V539.675H699.873V542.075C701.457 540.443 703.521 539.195 706.257 539.195C707.073 539.195 707.793 539.339 708.369 539.531V545.531C707.601 545.339 706.785 545.195 705.681 545.195C702.705 545.195 700.785 546.827 699.873 548.363V563.867H693.777Z" fill="#000091"/>
<path d="M127.427 277.835V249.835H138.427C147.307 249.835 153.307 256.275 153.307 263.835C153.307 271.395 147.307 277.835 138.427 277.835H127.427ZM138.507 254.995H133.107V272.675H138.507C143.707 272.675 147.467 268.795 147.467 263.835C147.467 258.835 143.707 254.995 138.507 254.995ZM167.822 256.875C174.382 256.875 178.862 261.715 178.862 267.755C178.862 273.795 174.382 278.635 167.822 278.635C161.262 278.635 156.782 273.795 156.782 267.755C156.782 261.715 161.262 256.875 167.822 256.875ZM167.902 273.835C171.142 273.835 173.582 271.235 173.582 267.755C173.582 264.235 171.142 261.675 167.902 261.675C164.542 261.675 162.062 264.235 162.062 267.755C162.062 271.275 164.542 273.835 167.902 273.835ZM183.496 277.835V257.675H188.576V259.275C189.976 257.915 191.856 256.875 194.536 256.875C198.896 256.875 202.376 259.875 202.376 265.835V277.835H197.256V266.035C197.256 263.355 195.736 261.675 193.256 261.675C190.696 261.675 189.336 263.395 188.576 264.675V277.835H183.496ZM208.144 277.835V257.675H213.224V259.275C214.624 257.915 216.504 256.875 219.184 256.875C223.544 256.875 227.024 259.875 227.024 265.835V277.835H221.904V266.035C221.904 263.355 220.384 261.675 217.904 261.675C215.344 261.675 213.984 263.395 213.224 264.675V277.835H208.144ZM244.512 254.475H239.632L243.792 247.835H249.312L244.512 254.475ZM251.352 274.555C249.472 277.075 246.352 278.635 242.552 278.635C235.392 278.635 231.352 273.635 231.352 267.755C231.352 261.795 235.112 256.875 241.712 256.875C247.312 256.875 250.992 260.675 250.992 265.955C250.992 267.075 250.832 268.115 250.672 268.795H236.552C237.032 272.555 239.352 274.075 242.512 274.075C244.712 274.075 246.632 273.115 247.712 271.675L251.352 274.555ZM241.592 261.035C238.992 261.035 237.272 262.475 236.712 265.115H245.992C245.912 263.075 244.432 261.035 241.592 261.035ZM274.36 274.555C272.48 277.075 269.36 278.635 265.56 278.635C258.4 278.635 254.36 273.635 254.36 267.755C254.36 261.795 258.12 256.875 264.72 256.875C270.32 256.875 274 260.675 274 265.955C274 267.075 273.84 268.115 273.68 268.795H259.56C260.04 272.555 262.36 274.075 265.52 274.075C267.72 274.075 269.64 273.115 270.72 271.675L274.36 274.555ZM264.6 261.035C262 261.035 260.28 262.475 259.72 265.115H269C268.92 263.075 267.44 261.035 264.6 261.035ZM276.931 274.915L280.291 271.875C281.531 273.435 283.011 274.555 284.931 274.555C286.571 274.555 287.411 273.595 287.411 272.395C287.411 268.875 277.771 270.195 277.771 263.115C277.771 259.555 280.771 256.875 284.971 256.875C288.051 256.875 290.851 258.355 292.291 260.315L288.931 263.275C287.891 261.995 286.571 260.955 285.011 260.955C283.411 260.955 282.651 261.835 282.651 262.875C282.651 266.315 292.291 265.115 292.291 272.075C292.211 276.315 288.811 278.635 285.011 278.635C281.411 278.635 278.851 277.195 276.931 274.915ZM68.1361 329.355C68.1361 327.355 69.1361 325.755 70.9361 324.435C70.1361 323.635 69.6961 322.555 69.6961 321.515C69.6961 319.915 70.3761 318.635 71.8961 317.515C70.1361 316.195 69.1761 314.195 69.1761 311.955C69.1761 308.035 72.2161 304.875 77.2561 304.875C78.8161 304.875 80.1761 305.155 81.3361 305.675H88.6961V309.995H85.1361C85.3361 310.635 85.4161 311.275 85.4161 311.955C85.4161 315.915 82.4561 319.115 77.2561 319.115C76.5761 319.115 75.9361 319.075 75.3361 318.955C74.8961 319.355 74.6561 319.795 74.6561 320.235C74.6561 321.035 75.0961 321.435 76.0161 321.435H81.0961C86.1761 321.435 88.9361 324.155 88.9361 327.915C88.9361 332.395 84.6561 335.835 78.3761 335.835C71.9361 335.835 68.1361 333.595 68.1361 329.355ZM77.3361 315.275C79.4561 315.275 80.8161 313.955 80.8161 311.955C80.8161 309.955 79.4561 308.675 77.3361 308.675C75.1361 308.675 73.8161 309.995 73.8161 311.955C73.8161 313.955 75.1361 315.275 77.3361 315.275ZM72.9361 328.635C72.9361 330.555 74.7761 331.755 78.3361 331.755C82.0161 331.755 83.8961 330.395 83.8961 328.395C83.8961 326.875 82.9761 325.795 80.5361 325.795H74.2961C73.5361 326.515 72.9361 327.395 72.9361 328.635ZM103.184 302.475H98.3043L102.464 295.835H107.984L103.184 302.475ZM110.024 322.555C108.144 325.075 105.024 326.635 101.224 326.635C94.0643 326.635 90.0243 321.635 90.0243 315.755C90.0243 309.795 93.7843 304.875 100.384 304.875C105.984 304.875 109.664 308.675 109.664 313.955C109.664 315.075 109.504 316.115 109.344 316.795H95.2243C95.7043 320.555 98.0243 322.075 101.184 322.075C103.384 322.075 105.304 321.115 106.384 319.675L110.024 322.555ZM100.264 309.035C97.6643 309.035 95.9443 310.475 95.3843 313.115H104.664C104.584 311.075 103.104 309.035 100.264 309.035ZM124.072 304.875C130.632 304.875 135.112 309.715 135.112 315.755C135.112 321.795 130.632 326.635 124.072 326.635C117.512 326.635 113.032 321.795 113.032 315.755C113.032 309.715 117.512 304.875 124.072 304.875ZM124.152 321.835C127.392 321.835 129.832 319.235 129.832 315.755C129.832 312.235 127.392 309.675 124.152 309.675C120.792 309.675 118.312 312.235 118.312 315.755C118.312 319.275 120.792 321.835 124.152 321.835ZM137.472 329.355C137.472 327.355 138.472 325.755 140.272 324.435C139.472 323.635 139.032 322.555 139.032 321.515C139.032 319.915 139.712 318.635 141.232 317.515C139.472 316.195 138.512 314.195 138.512 311.955C138.512 308.035 141.552 304.875 146.592 304.875C148.152 304.875 149.512 305.155 150.672 305.675H158.032V309.995H154.472C154.672 310.635 154.752 311.275 154.752 311.955C154.752 315.915 151.792 319.115 146.592 319.115C145.912 319.115 145.272 319.075 144.672 318.955C144.232 319.355 143.992 319.795 143.992 320.235C143.992 321.035 144.432 321.435 145.352 321.435H150.432C155.512 321.435 158.272 324.155 158.272 327.915C158.272 332.395 153.992 335.835 147.712 335.835C141.272 335.835 137.472 333.595 137.472 329.355ZM146.672 315.275C148.792 315.275 150.152 313.955 150.152 311.955C150.152 309.955 148.792 308.675 146.672 308.675C144.472 308.675 143.152 309.995 143.152 311.955C143.152 313.955 144.472 315.275 146.672 315.275ZM142.272 328.635C142.272 330.555 144.112 331.755 147.672 331.755C151.352 331.755 153.232 330.395 153.232 328.395C153.232 326.875 152.312 325.795 149.872 325.795H143.632C142.872 326.515 142.272 327.395 142.272 328.635ZM161.777 325.835V305.675H166.857V307.675C168.177 306.315 169.897 305.275 172.177 305.275C172.857 305.275 173.457 305.395 173.937 305.555V310.555C173.297 310.395 172.617 310.275 171.697 310.275C169.217 310.275 167.617 311.635 166.857 312.915V325.835H161.777ZM182.73 326.435C178.69 326.435 175.93 324.115 175.93 320.395C175.93 317.355 178.29 315.075 182.61 314.355L188.77 313.315V312.795C188.77 310.675 187.17 309.315 184.85 309.315C182.89 309.315 181.37 310.235 180.29 311.715L176.57 308.875C178.37 306.395 181.33 304.875 185.01 304.875C190.85 304.875 193.85 308.355 193.85 312.795V325.835H188.77V323.875C187.49 325.435 185.09 326.435 182.73 326.435ZM180.97 320.155C180.97 321.515 182.05 322.395 183.77 322.395C186.09 322.395 187.77 321.315 188.77 319.715V316.875L183.97 317.675C181.85 318.035 180.97 318.915 180.97 320.155ZM199.667 335.675V305.675H204.747V307.315C206.307 305.755 208.267 304.875 211.027 304.875C217.427 304.875 221.267 309.875 221.267 315.755C221.267 321.635 217.427 326.635 211.027 326.635C208.267 326.635 206.307 325.755 204.747 324.195V335.675H199.667ZM210.307 309.675C207.947 309.675 206.027 310.715 204.747 312.595V318.915C206.107 320.835 207.987 321.835 210.307 321.835C213.747 321.835 215.987 319.275 215.987 315.755C215.987 312.235 213.747 309.675 210.307 309.675ZM225.917 325.835V295.835H230.997V307.275C232.397 305.915 234.277 304.875 236.957 304.875C241.317 304.875 244.797 307.875 244.797 313.835V325.835H239.677V314.035C239.677 311.355 238.197 309.675 235.677 309.675C233.117 309.675 231.757 311.395 230.997 312.675V325.835H225.917ZM253.126 302.155C251.326 302.155 249.806 300.635 249.806 298.835C249.806 297.035 251.326 295.515 253.126 295.515C254.926 295.515 256.406 297.035 256.406 298.835C256.406 300.635 254.926 302.155 253.126 302.155ZM250.566 325.835V305.675H255.646V325.835H250.566ZM260.298 315.755C260.298 309.875 264.138 304.875 270.538 304.875C273.258 304.875 275.218 305.755 276.778 307.315V305.675H281.898V335.675H276.778V324.195C275.218 325.755 273.258 326.635 270.538 326.635C264.138 326.635 260.298 321.635 260.298 315.755ZM265.578 315.755C265.578 319.275 267.778 321.835 271.218 321.835C273.578 321.835 275.538 320.795 276.778 318.955V312.555C275.418 310.675 273.498 309.675 271.218 309.675C267.778 309.675 265.578 312.235 265.578 315.755ZM301.268 317.115V305.675H306.388V316.875C306.388 322.915 302.868 326.635 296.948 326.635C291.028 326.635 287.548 322.915 287.548 316.875V305.675H292.668V317.115C292.668 320.035 294.188 321.835 296.988 321.835C299.748 321.835 301.268 320.035 301.268 317.115ZM330.571 322.555C328.691 325.075 325.571 326.635 321.771 326.635C314.611 326.635 310.571 321.635 310.571 315.755C310.571 309.795 314.331 304.875 320.931 304.875C326.531 304.875 330.211 308.675 330.211 313.955C330.211 315.075 330.051 316.115 329.891 316.795H315.771C316.251 320.555 318.571 322.075 321.731 322.075C323.931 322.075 325.851 321.115 326.931 319.675L330.571 322.555ZM320.811 309.035C318.211 309.035 316.491 310.475 315.931 313.115H325.211C325.131 311.075 323.651 309.035 320.811 309.035ZM333.142 322.915L336.502 319.875C337.742 321.435 339.222 322.555 341.142 322.555C342.782 322.555 343.622 321.595 343.622 320.395C343.622 316.875 333.982 318.195 333.982 311.115C333.982 307.555 336.982 304.875 341.182 304.875C344.262 304.875 347.062 306.355 348.502 308.315L345.142 311.275C344.102 309.995 342.782 308.955 341.222 308.955C339.622 308.955 338.862 309.835 338.862 310.875C338.862 314.315 348.502 313.115 348.502 320.075C348.422 324.315 345.022 326.635 341.222 326.635C337.622 326.635 335.062 325.195 333.142 322.915Z" fill="#161616"/>
<path d="M87.3226 374.835V358.035H91.7866C95.1706 358.035 97.2586 359.883 97.2586 362.763C97.2586 364.779 96.2266 366.291 94.4266 367.011L99.8506 374.835H97.1866L92.3146 367.443C92.1466 367.467 91.9546 367.467 91.7866 367.467H89.5786V374.835H87.3226ZM91.8826 359.955H89.5786V365.547H91.8826C93.8026 365.547 94.9306 364.515 94.9306 362.715C94.9306 361.011 93.8026 359.955 91.8826 359.955ZM105.575 375.171C103.199 375.171 101.591 373.851 101.591 371.787C101.591 369.963 102.983 368.667 105.551 368.235L109.631 367.563V366.723C109.631 365.043 108.431 364.083 106.703 364.083C105.311 364.083 104.183 364.731 103.439 365.763L101.903 364.587C102.959 363.147 104.663 362.259 106.775 362.259C109.847 362.259 111.671 364.059 111.671 366.723V374.835H109.631V373.299C108.719 374.475 107.135 375.171 105.575 375.171ZM103.655 371.715C103.655 372.747 104.495 373.491 105.911 373.491C107.519 373.491 108.839 372.723 109.631 371.427V369.051L106.055 369.651C104.399 369.939 103.655 370.683 103.655 371.715ZM114.468 373.179L115.908 371.955C116.748 373.011 117.756 373.611 118.98 373.611C120.324 373.611 121.092 372.795 121.092 371.739C121.092 369.027 115.044 369.987 115.044 365.715C115.044 363.819 116.652 362.259 118.98 362.259C120.708 362.259 122.196 363.075 123.036 364.251L121.62 365.451C120.972 364.539 120.06 363.963 119.004 363.963C117.708 363.963 117.012 364.731 117.012 365.667C117.012 368.379 123.084 367.515 123.084 371.643C123.06 373.899 121.26 375.315 119.004 375.315C117.084 375.315 115.572 374.547 114.468 373.179ZM127.194 370.779V364.587H124.914V362.739H127.194V359.715H129.258V362.739H133.458V364.587H129.258V370.779C129.258 372.675 130.218 373.203 131.682 373.203C132.474 373.203 133.026 373.107 133.482 372.915V374.739C132.906 374.979 132.258 375.075 131.394 375.075C128.706 375.075 127.194 373.731 127.194 370.779ZM147.094 372.843C145.966 374.355 144.166 375.315 141.91 375.315C137.83 375.315 135.31 372.315 135.31 368.787C135.31 365.115 137.662 362.259 141.406 362.259C144.694 362.259 146.83 364.563 146.83 367.539C146.83 368.019 146.758 368.475 146.686 368.811H137.398C137.47 371.715 139.318 373.467 141.91 373.467C143.47 373.467 144.79 372.747 145.582 371.667L147.094 372.843ZM141.358 363.987C139.366 363.987 137.974 365.163 137.542 367.251H144.79C144.718 365.475 143.494 363.987 141.358 363.987ZM150.287 374.835V362.739H152.327V364.251C153.215 363.195 154.319 362.499 155.855 362.499C156.239 362.499 156.599 362.547 156.887 362.643V364.635C156.527 364.539 156.167 364.491 155.687 364.491C154.103 364.491 153.071 365.307 152.327 366.531V374.835H150.287ZM171.815 362.259C175.703 362.259 178.367 365.259 178.367 368.787C178.367 372.315 175.703 375.315 171.815 375.315C167.903 375.315 165.263 372.315 165.263 368.787C165.263 365.259 167.903 362.259 171.815 362.259ZM171.839 373.395C174.359 373.395 176.207 371.283 176.207 368.787C176.207 366.267 174.359 364.179 171.839 364.179C169.247 364.179 167.399 366.267 167.399 368.787C167.399 371.307 169.247 373.395 171.839 373.395ZM190.071 369.651V362.739H192.111V369.579C192.111 373.203 190.023 375.315 186.735 375.315C183.471 375.315 181.383 373.203 181.383 369.579V362.739H183.423V369.651C183.423 372.027 184.695 373.395 186.759 373.395C188.775 373.395 190.071 372.027 190.071 369.651ZM200.776 362.739H202.984L206.848 372.699L210.712 362.739H212.92L208.192 374.835H205.504L200.776 362.739ZM225.985 372.843C224.857 374.355 223.057 375.315 220.801 375.315C216.721 375.315 214.201 372.315 214.201 368.787C214.201 365.115 216.553 362.259 220.297 362.259C223.585 362.259 225.721 364.563 225.721 367.539C225.721 368.019 225.649 368.475 225.577 368.811H216.289C216.361 371.715 218.209 373.467 220.801 373.467C222.361 373.467 223.681 372.747 224.473 371.667L225.985 372.843ZM220.249 363.987C218.257 363.987 216.865 365.163 216.433 367.251H223.681C223.609 365.475 222.385 363.987 220.249 363.987ZM234.699 373.395C236.187 373.395 237.411 372.675 238.155 371.619L239.763 372.843C238.635 374.355 236.883 375.315 234.675 375.315C230.667 375.315 228.099 372.315 228.099 368.787C228.099 365.259 230.667 362.259 234.675 362.259C236.859 362.259 238.635 363.243 239.763 364.731L238.155 365.955C237.411 364.899 236.187 364.179 234.675 364.179C232.083 364.179 230.235 366.219 230.235 368.787C230.235 371.379 232.083 373.395 234.699 373.395ZM243.21 370.779V364.587H240.93V362.739H243.21V359.715H245.274V362.739H249.474V364.587H245.274V370.779C245.274 372.675 246.234 373.203 247.698 373.203C248.49 373.203 249.042 373.107 249.498 372.915V374.739C248.922 374.979 248.274 375.075 247.41 375.075C244.722 375.075 243.21 373.731 243.21 370.779ZM257.878 362.259C261.766 362.259 264.43 365.259 264.43 368.787C264.43 372.315 261.766 375.315 257.878 375.315C253.966 375.315 251.326 372.315 251.326 368.787C251.326 365.259 253.966 362.259 257.878 362.259ZM257.902 373.395C260.422 373.395 262.27 371.283 262.27 368.787C262.27 366.267 260.422 364.179 257.902 364.179C255.31 364.179 253.462 366.267 253.462 368.787C253.462 371.307 255.31 373.395 257.902 373.395ZM267.709 374.835V362.739H269.749V364.251C270.637 363.195 271.741 362.499 273.277 362.499C273.661 362.499 274.021 362.547 274.309 362.643V364.635C273.949 364.539 273.589 364.491 273.109 364.491C271.525 364.491 270.493 365.307 269.749 366.531V374.835H267.709ZM278.28 359.595C277.488 359.595 276.84 358.947 276.84 358.155C276.84 357.387 277.488 356.739 278.28 356.739C279.072 356.739 279.696 357.387 279.696 358.155C279.696 358.947 279.072 359.595 278.28 359.595ZM277.248 374.835V362.739H279.288V374.835H277.248ZM294.352 372.843C293.224 374.355 291.424 375.315 289.168 375.315C285.088 375.315 282.568 372.315 282.568 368.787C282.568 365.115 284.92 362.259 288.664 362.259C291.952 362.259 294.088 364.563 294.088 367.539C294.088 368.019 294.016 368.475 293.944 368.811H284.656C284.728 371.715 286.576 373.467 289.168 373.467C290.728 373.467 292.048 372.747 292.84 371.667L294.352 372.843ZM288.616 363.987C286.624 363.987 285.232 365.163 284.8 367.251H292.048C291.976 365.475 290.752 363.987 288.616 363.987ZM297.545 374.835V356.835H299.585V374.835H297.545ZM303.897 374.835V356.835H305.937V374.835H303.897ZM321 372.843C319.872 374.355 318.072 375.315 315.816 375.315C311.736 375.315 309.216 372.315 309.216 368.787C309.216 365.115 311.568 362.259 315.312 362.259C318.6 362.259 320.736 364.563 320.736 367.539C320.736 368.019 320.664 368.475 320.592 368.811H311.304C311.376 371.715 313.224 373.467 315.816 373.467C317.376 373.467 318.696 372.747 319.488 371.667L321 372.843ZM315.264 363.987C313.272 363.987 311.88 365.163 311.448 367.251H318.696C318.624 365.475 317.4 363.987 315.264 363.987ZM322.804 373.179L324.244 371.955C325.084 373.011 326.092 373.611 327.316 373.611C328.66 373.611 329.428 372.795 329.428 371.739C329.428 369.027 323.38 369.987 323.38 365.715C323.38 363.819 324.988 362.259 327.316 362.259C329.044 362.259 330.532 363.075 331.372 364.251L329.956 365.451C329.308 364.539 328.396 363.963 327.34 363.963C326.044 363.963 325.348 364.731 325.348 365.667C325.348 368.379 331.42 367.515 331.42 371.643C331.396 373.899 329.596 375.315 327.34 375.315C325.42 375.315 323.908 374.547 322.804 373.179Z" fill="#666666"/>
<path d="M71.9531 153.417C66.4302 153.417 61.9531 148.939 61.9531 143.417C61.9531 137.894 66.4302 133.417 71.9531 133.417C77.4759 133.417 81.9531 137.894 81.9531 143.417C81.9531 148.939 77.4759 153.417 71.9531 153.417ZM118.62 153.417C113.097 153.417 108.62 148.939 108.62 143.417C108.62 137.894 113.097 133.417 118.62 133.417C124.143 133.417 128.62 137.894 128.62 143.417C128.62 148.939 124.143 153.417 118.62 153.417ZM118.62 200.083C113.097 200.083 108.62 195.606 108.62 190.083C108.62 184.56 113.097 180.083 118.62 180.083C124.143 180.083 128.62 184.56 128.62 190.083C128.62 195.606 124.143 200.083 118.62 200.083ZM71.9531 200.083C66.4302 200.083 61.9531 195.606 61.9531 190.083C61.9531 184.56 66.4302 180.083 71.9531 180.083C77.4759 180.083 81.9531 184.56 81.9531 190.083C81.9531 195.606 77.4759 200.083 71.9531 200.083ZM85.2864 140.083H105.286V146.75H85.2864V140.083ZM85.2864 186.75H105.286V193.417H85.2864V186.75ZM68.6197 156.75H75.2864V176.75H68.6197V156.75ZM115.286 156.75H121.953V176.75H115.286V156.75Z" fill="#929292"/>
<path d="M294.286 45.7994H240.953V92.466L271.926 61.486C272.551 60.8611 273.399 60.5101 274.283 60.5101C275.167 60.5101 276.015 60.8611 276.64 61.486L294.286 79.166V45.7994ZM234.286 42.4427C234.292 41.5673 234.643 40.7294 235.261 40.1101C235.88 39.4908 236.718 39.1397 237.593 39.1327H297.646C299.473 39.1327 300.953 40.616 300.953 42.4427V95.8227C300.947 96.6981 300.597 97.536 299.978 98.1553C299.359 98.7746 298.522 99.1257 297.646 99.1327H237.593C236.716 99.1318 235.875 98.7827 235.255 98.162C234.635 97.5414 234.286 96.7 234.286 95.8227V42.4427ZM254.286 65.7994C252.518 65.7994 250.823 65.097 249.572 63.8467C248.322 62.5965 247.62 60.9008 247.62 59.1327C247.62 57.3646 248.322 55.6689 249.572 54.4186C250.823 53.1684 252.518 52.466 254.286 52.466C256.054 52.466 257.75 53.1684 259 54.4186C260.251 55.6689 260.953 57.3646 260.953 59.1327C260.953 60.9008 260.251 62.5965 259 63.8467C257.75 65.097 256.054 65.7994 254.286 65.7994Z" fill="#929292"/>
<path fill-rule="evenodd" clip-rule="evenodd" d="M208.62 133.417C227.03 133.417 241.953 148.34 241.953 166.75C241.953 185.16 227.03 200.083 208.62 200.083C190.21 200.083 175.286 185.16 175.286 166.75C175.286 148.34 190.21 133.417 208.62 133.417ZM223.62 151.75L201.953 160.083L193.62 181.75L215.286 173.417L223.62 151.75ZM208.62 163.417C210.461 163.417 211.953 164.909 211.953 166.75C211.953 168.591 210.461 170.083 208.62 170.083C206.779 170.083 205.286 168.591 205.286 166.75C205.286 164.909 206.779 163.417 208.62 163.417Z" fill="#929292"/>
<path fill-rule="evenodd" clip-rule="evenodd" d="M351.345 182.736C350.824 181.639 349.552 181.116 348.385 181.518L348.085 181.623L347.801 181.43C348.104 181.067 348.289 180.623 348.329 180.147C348.389 179.436 348.123 178.747 347.6 178.261L347.431 178.104C347.975 177.694 348.327 177.059 348.367 176.369L348.432 175.154C348.46 174.571 348.264 174 347.88 173.544L346.98 172.49C347.562 171.703 347.584 170.632 347.033 169.819L346.271 168.705L345.946 168.304L345.693 167.452C345.45 166.638 344.786 166.043 343.987 165.845L346.319 162.895C346.614 162.803 346.889 162.657 347.126 162.463L348.485 161.352C349.042 160.896 349.353 160.227 349.339 159.521L349.281 156.039L350.022 153.938C350.081 153.767 350.118 153.594 350.136 153.406L350.189 152.827L351.226 150.898C351.801 149.83 351.436 148.484 350.394 147.832L349.433 147.235C349.065 147.004 348.637 146.877 348.196 146.868L347.093 146.849L346.336 146.449C345.926 146.234 345.47 146.144 344.971 146.185L343.728 146.31L342.793 145.19C342.492 144.83 342.092 144.569 341.637 144.435L340.342 144.054C339.829 143.903 339.268 143.93 338.757 144.132L338.427 144.265L338.168 144.155C337.823 144.005 337.442 143.94 337.076 143.961L335.46 142.886V142.05C335.46 141.33 335.128 140.66 334.55 140.213C333.974 139.77 333.215 139.607 332.521 139.778L331.734 139.963C331.505 139.588 331.169 139.28 330.754 139.073L329.798 138.605C329.6 138.506 329.393 138.436 329.178 138.395C328.836 137.965 328.35 137.666 327.807 137.551L327.677 137.132C327.372 136.138 326.455 135.471 325.397 135.471H325.022L324.301 134.435C323.743 133.629 322.711 133.248 321.731 133.487L317.889 134.47C317.194 134.648 316.623 135.118 316.323 135.761L315.478 137.578C315.321 137.922 315.251 138.303 315.274 138.684L315.428 141.05L314.344 142.024L310.3 143.384C309.401 143.684 308.771 144.477 308.694 145.402L308.672 145.667L306.541 145.254L304.899 143.525C304.405 143.006 303.68 142.725 303.039 142.787L301.125 142.882C300.409 142.922 299.758 143.268 299.34 143.83C298.921 144.388 298.776 145.095 298.943 145.772L299.574 148.295L300.419 150.282L299.794 150.171C299.357 150.089 298.904 150.131 298.483 150.292L298.301 150.362L297.437 149.5C296.95 149.013 296.262 148.763 295.525 148.809L290.856 149.221C290.585 149.243 290.324 149.311 290.051 149.432L286.66 150.984C285.551 151.493 285.018 152.732 285.419 153.868L285.936 155.328C286.103 155.797 286.426 156.206 286.854 156.495C286.737 157.055 286.831 157.65 287.131 158.146L287.678 159.062C288.103 159.776 288.891 160.219 289.734 160.219H291.02L295.496 161.965L296.299 163.007C296.451 163.202 296.632 163.371 296.837 163.51L297.084 163.678C297.087 163.687 297.089 163.696 297.091 163.706L297.643 166.162C297.719 166.484 297.86 166.781 298.062 167.046L299.925 169.472C300.14 169.758 300.426 169.995 300.75 170.158L301.843 170.708C301.884 170.957 301.967 171.198 302.088 171.421C301.596 171.879 301.317 172.515 301.327 173.179C301.332 173.568 301.438 173.95 301.63 174.287C301.601 174.396 301.58 174.508 301.567 174.62L300.858 180.693C300.813 181.068 300.859 181.441 300.992 181.788C300.959 181.889 300.931 181.992 300.912 182.096L300.055 186.694L298.509 188.539C298.06 189.076 297.879 189.778 298.012 190.467C298.147 191.146 298.58 191.729 299.202 192.068L300.194 192.605L300.668 193.422C300.923 193.863 301.325 194.216 301.798 194.416L304.12 195.395L304.814 196.119C305.262 196.586 305.894 196.854 306.548 196.854H307.577L308.263 197.25C308.542 197.414 308.845 197.519 309.167 197.561L313.219 198.097C313.907 198.195 314.601 197.99 315.123 197.54C315.221 197.455 315.311 197.364 315.393 197.265L315.786 197.349L316.726 197.726C316.918 198.344 317.368 198.867 317.966 199.151L319.112 199.697C319.572 199.912 320.105 199.975 320.612 199.877L321.586 199.682L323.731 200.057L324.072 200.083C324.287 200.083 324.502 200.055 324.684 200.005L327.246 199.337C327.858 199.173 328.385 198.772 328.69 198.24C329.004 197.7 329.086 197.046 328.913 196.443L328.293 194.301L328.931 193.031L330.96 191.833C331.482 192.161 332.114 192.272 332.719 192.15L333.459 192.552C333.896 192.782 334.395 192.873 334.888 192.811C334.942 192.831 334.997 192.849 335.054 192.866L337.206 193.481L340.44 194.221C340.736 194.294 341.052 194.308 341.35 194.266L342.925 194.046C343.079 194.025 343.228 193.988 343.421 193.923L345.523 193.162C346.119 192.944 346.609 192.496 346.864 191.933C347.018 191.6 347.088 191.237 347.073 190.875L348.113 190.22L350.514 188.266C351.158 187.737 351.467 186.928 351.342 186.126L351.473 185.944C352 185.26 352.101 184.349 351.736 183.568L351.345 182.736Z" fill="#929292"/>
<path d="M168.427 68.966C171.25 66.1448 173.303 62.6459 174.387 58.8044C175.471 54.9629 175.552 50.9074 174.62 47.026L182.937 43.4594C183.19 43.3506 183.467 43.3066 183.742 43.3312C184.016 43.3557 184.281 43.4482 184.511 43.6002C184.742 43.7522 184.931 43.959 185.061 44.202C185.192 44.4451 185.26 44.7167 185.26 44.9927V92.466L161.927 102.466L141.927 92.466L120.917 101.469C120.663 101.578 120.386 101.622 120.111 101.598C119.837 101.573 119.572 101.481 119.342 101.329C119.112 101.177 118.923 100.97 118.792 100.727C118.661 100.484 118.593 100.212 118.593 99.936V52.466L129.023 47.996C128.289 51.748 128.49 55.6228 129.606 59.2791C130.723 62.9354 132.722 66.261 135.427 68.9627L151.927 85.466L168.427 68.966ZM163.713 64.2527L151.927 76.0327L140.14 64.2494C137.809 61.9183 136.223 58.9486 135.58 55.7157C134.937 52.4828 135.267 49.1319 136.529 46.0867C137.791 43.0415 139.927 40.4388 142.667 38.6077C145.408 36.7765 148.63 35.7991 151.927 35.7991C155.223 35.7991 158.445 36.7765 161.186 38.6077C163.926 40.4388 166.063 43.0415 167.324 46.0867C168.586 49.1319 168.916 52.4828 168.273 55.7157C167.631 58.9486 166.044 61.9183 163.713 64.2494V64.2527Z" fill="#929292"/>
<path fill-rule="evenodd" clip-rule="evenodd" d="M1715.93 255.835C1719.59 255.835 1722.55 258.828 1722.55 262.548V349.122C1722.55 352.828 1719.51 355.835 1715.93 355.835H1662.55V369.168H1689.21V382.502H1622.55V369.168H1649.21V355.835H1595.83C1594.06 355.824 1592.37 355.111 1591.13 353.851C1589.89 352.591 1589.2 350.89 1589.21 349.122V262.548C1589.21 258.842 1592.25 255.835 1595.83 255.835H1715.93ZM1709.21 269.168H1602.55V342.502H1709.21V269.168Z" fill="#000091"/>
<path d="M1602.17 433.045V412.021H1608.99V432.469C1608.99 441.301 1603.8 446.581 1595.35 446.581C1586.95 446.581 1581.77 441.301 1581.77 432.469V412.021H1588.59V433.045C1588.59 437.557 1591.13 440.197 1595.4 440.197C1599.58 440.197 1602.17 437.557 1602.17 433.045ZM1613.73 442.117L1617.76 438.469C1619.25 440.341 1621.02 441.685 1623.33 441.685C1625.3 441.685 1626.3 440.533 1626.3 439.093C1626.3 434.869 1614.74 436.453 1614.74 427.957C1614.74 423.685 1618.34 420.469 1623.38 420.469C1627.07 420.469 1630.43 422.245 1632.16 424.597L1628.13 428.149C1626.88 426.613 1625.3 425.365 1623.42 425.365C1621.5 425.365 1620.59 426.421 1620.59 427.669C1620.59 431.797 1632.16 430.357 1632.16 438.709C1632.06 443.797 1627.98 446.581 1623.42 446.581C1619.1 446.581 1616.03 444.853 1613.73 442.117ZM1644.41 446.341C1639.56 446.341 1636.25 443.557 1636.25 439.093C1636.25 435.445 1639.08 432.709 1644.26 431.845L1651.65 430.597V429.973C1651.65 427.429 1649.73 425.797 1646.95 425.797C1644.6 425.797 1642.77 426.901 1641.48 428.677L1637.01 425.269C1639.17 422.293 1642.73 420.469 1647.14 420.469C1654.15 420.469 1657.75 424.645 1657.75 429.973V445.621H1651.65V443.269C1650.12 445.141 1647.24 446.341 1644.41 446.341ZM1642.29 438.805C1642.29 440.437 1643.59 441.493 1645.65 441.493C1648.44 441.493 1650.45 440.197 1651.65 438.277V434.869L1645.89 435.829C1643.35 436.261 1642.29 437.317 1642.29 438.805ZM1662.33 449.845C1662.33 447.445 1663.53 445.525 1665.69 443.941C1664.73 442.981 1664.2 441.685 1664.2 440.437C1664.2 438.517 1665.02 436.981 1666.84 435.637C1664.73 434.053 1663.58 431.653 1663.58 428.965C1663.58 424.261 1667.23 420.469 1673.28 420.469C1675.15 420.469 1676.78 420.805 1678.17 421.429H1687V426.613H1682.73C1682.97 427.381 1683.07 428.149 1683.07 428.965C1683.07 433.717 1679.52 437.557 1673.28 437.557C1672.46 437.557 1671.69 437.509 1670.97 437.365C1670.44 437.845 1670.16 438.373 1670.16 438.901C1670.16 439.861 1670.68 440.341 1671.79 440.341H1677.88C1683.98 440.341 1687.29 443.605 1687.29 448.117C1687.29 453.493 1682.16 457.621 1674.62 457.621C1666.89 457.621 1662.33 454.933 1662.33 449.845ZM1673.37 432.949C1675.92 432.949 1677.55 431.365 1677.55 428.965C1677.55 426.565 1675.92 425.029 1673.37 425.029C1670.73 425.029 1669.15 426.613 1669.15 428.965C1669.15 431.365 1670.73 432.949 1673.37 432.949ZM1668.09 448.981C1668.09 451.285 1670.3 452.725 1674.57 452.725C1678.99 452.725 1681.24 451.093 1681.24 448.693C1681.24 446.869 1680.14 445.573 1677.21 445.573H1669.72C1668.81 446.437 1668.09 447.493 1668.09 448.981ZM1712.6 441.685C1710.34 444.709 1706.6 446.581 1702.04 446.581C1693.45 446.581 1688.6 440.581 1688.6 433.525C1688.6 426.373 1693.11 420.469 1701.03 420.469C1707.75 420.469 1712.17 425.029 1712.17 431.365C1712.17 432.709 1711.97 433.957 1711.78 434.773H1694.84C1695.41 439.285 1698.2 441.109 1701.99 441.109C1704.63 441.109 1706.93 439.957 1708.23 438.229L1712.6 441.685ZM1700.89 425.461C1697.77 425.461 1695.7 427.189 1695.03 430.357H1706.17C1706.07 427.909 1704.29 425.461 1700.89 425.461ZM1718.12 445.621V421.429H1724.22V423.829C1725.8 422.197 1727.87 420.949 1730.6 420.949C1731.42 420.949 1732.14 421.093 1732.71 421.285V427.285C1731.95 427.093 1731.13 426.949 1730.03 426.949C1727.05 426.949 1725.13 428.581 1724.22 430.117V445.621H1718.12Z" fill="#000091"/>
<path d="M1574.6 495.837C1575.99 497.061 1577.29 497.517 1578.34 497.517C1578.73 497.517 1579.18 497.469 1579.52 497.349V499.317C1579.09 499.461 1578.63 499.533 1578.03 499.533C1576.45 499.533 1574.82 498.909 1573.14 497.493L1570.95 495.669C1570.06 495.957 1569.13 496.101 1568.1 496.101C1562.84 496.101 1559.26 492.021 1559.26 487.221C1559.26 482.421 1562.84 478.341 1568.1 478.341C1573.33 478.341 1576.9 482.421 1576.9 487.221C1576.9 490.245 1575.49 492.957 1573.16 494.565L1574.6 495.837ZM1568.1 493.989C1571.86 493.989 1574.58 490.965 1574.58 487.221C1574.58 483.477 1571.86 480.453 1568.1 480.453C1564.3 480.453 1561.59 483.477 1561.59 487.221C1561.59 490.965 1564.3 493.989 1568.1 493.989ZM1588.71 490.437V483.525H1590.75V490.365C1590.75 493.989 1588.66 496.101 1585.37 496.101C1582.11 496.101 1580.02 493.989 1580.02 490.365V483.525H1582.06V490.437C1582.06 492.813 1583.33 494.181 1585.4 494.181C1587.41 494.181 1588.71 492.813 1588.71 490.437ZM1595.8 480.381C1595.01 480.381 1594.36 479.733 1594.36 478.941C1594.36 478.173 1595.01 477.525 1595.8 477.525C1596.59 477.525 1597.22 478.173 1597.22 478.941C1597.22 479.733 1596.59 480.381 1595.8 480.381ZM1594.77 495.621V483.525H1596.81V495.621H1594.77ZM1613.16 494.181C1614.65 494.181 1615.87 493.461 1616.62 492.405L1618.22 493.629C1617.1 495.141 1615.34 496.101 1613.14 496.101C1609.13 496.101 1606.56 493.101 1606.56 489.573C1606.56 486.045 1609.13 483.045 1613.14 483.045C1615.32 483.045 1617.1 484.029 1618.22 485.517L1616.62 486.741C1615.87 485.685 1614.65 484.965 1613.14 484.965C1610.54 484.965 1608.7 487.005 1608.7 489.573C1608.7 492.165 1610.54 494.181 1613.16 494.181ZM1626.07 483.045C1629.96 483.045 1632.62 486.045 1632.62 489.573C1632.62 493.101 1629.96 496.101 1626.07 496.101C1622.16 496.101 1619.52 493.101 1619.52 489.573C1619.52 486.045 1622.16 483.045 1626.07 483.045ZM1626.1 494.181C1628.62 494.181 1630.46 492.069 1630.46 489.573C1630.46 487.053 1628.62 484.965 1626.1 484.965C1623.5 484.965 1621.66 487.053 1621.66 489.573C1621.66 492.093 1623.5 494.181 1626.1 494.181ZM1635.9 495.621V483.525H1637.94V484.893C1638.93 483.813 1640.18 483.045 1641.98 483.045C1644.69 483.045 1646.7 484.869 1646.7 488.301V495.621H1644.66V488.373C1644.66 486.213 1643.44 484.965 1641.57 484.965C1639.82 484.965 1638.71 485.973 1637.94 487.245V495.621H1635.9ZM1649.51 493.965L1650.95 492.741C1651.79 493.797 1652.8 494.397 1654.03 494.397C1655.37 494.397 1656.14 493.581 1656.14 492.525C1656.14 489.813 1650.09 490.773 1650.09 486.501C1650.09 484.605 1651.7 483.045 1654.03 483.045C1655.75 483.045 1657.24 483.861 1658.08 485.037L1656.67 486.237C1656.02 485.325 1655.11 484.749 1654.05 484.749C1652.75 484.749 1652.06 485.517 1652.06 486.453C1652.06 489.165 1658.13 488.301 1658.13 492.429C1658.11 494.685 1656.31 496.101 1654.05 496.101C1652.13 496.101 1650.62 495.333 1649.51 493.965ZM1669.87 490.437V483.525H1671.91V490.365C1671.91 493.989 1669.83 496.101 1666.54 496.101C1663.27 496.101 1661.19 493.989 1661.19 490.365V483.525H1663.23V490.437C1663.23 492.813 1664.5 494.181 1666.56 494.181C1668.58 494.181 1669.87 492.813 1669.87 490.437ZM1675.93 495.621V477.621H1677.97V495.621H1675.93ZM1682.98 491.565V485.373H1680.7V483.525H1682.98V480.501H1685.05V483.525H1689.25V485.373H1685.05V491.565C1685.05 493.461 1686.01 493.989 1687.47 493.989C1688.26 493.989 1688.81 493.893 1689.27 493.701V495.525C1688.69 495.765 1688.05 495.861 1687.18 495.861C1684.49 495.861 1682.98 494.517 1682.98 491.565ZM1702.88 493.629C1701.75 495.141 1699.95 496.101 1697.7 496.101C1693.62 496.101 1691.1 493.101 1691.1 489.573C1691.1 485.901 1693.45 483.045 1697.19 483.045C1700.48 483.045 1702.62 485.349 1702.62 488.325C1702.62 488.805 1702.55 489.261 1702.47 489.597H1693.19C1693.26 492.501 1695.11 494.253 1697.7 494.253C1699.26 494.253 1700.58 493.533 1701.37 492.453L1702.88 493.629ZM1697.15 484.773C1695.15 484.773 1693.76 485.949 1693.33 488.037H1700.58C1700.51 486.261 1699.28 484.773 1697.15 484.773ZM1720.97 490.437V483.525H1723.01V490.365C1723.01 493.989 1720.92 496.101 1717.63 496.101C1714.37 496.101 1712.28 493.989 1712.28 490.365V483.525H1714.32V490.437C1714.32 492.813 1715.59 494.181 1717.66 494.181C1719.67 494.181 1720.97 492.813 1720.97 490.437ZM1727.03 495.621V483.525H1729.07V484.893C1730.05 483.813 1731.3 483.045 1733.1 483.045C1735.81 483.045 1737.83 484.869 1737.83 488.301V495.621H1735.79V488.373C1735.79 486.213 1734.56 484.965 1732.69 484.965C1730.94 484.965 1729.84 485.973 1729.07 487.245V495.621H1727.03ZM1752.69 493.629C1751.56 495.141 1749.76 496.101 1747.5 496.101C1743.42 496.101 1740.9 493.101 1740.9 489.573C1740.9 485.901 1743.25 483.045 1747 483.045C1750.29 483.045 1752.42 485.349 1752.42 488.325C1752.42 488.805 1752.35 489.261 1752.28 489.597H1742.99C1743.06 492.501 1744.91 494.253 1747.5 494.253C1749.06 494.253 1750.38 493.533 1751.17 492.453L1752.69 493.629ZM1746.95 484.773C1744.96 484.773 1743.57 485.949 1743.13 488.037H1750.38C1750.31 486.261 1749.09 484.773 1746.95 484.773ZM1571.17 526.181C1572.66 526.181 1573.88 525.461 1574.63 524.405L1576.23 525.629C1575.11 527.141 1573.35 528.101 1571.15 528.101C1567.14 528.101 1564.57 525.101 1564.57 521.573C1564.57 518.045 1567.14 515.045 1571.15 515.045C1573.33 515.045 1575.11 516.029 1576.23 517.517L1574.63 518.741C1573.88 517.685 1572.66 516.965 1571.15 516.965C1568.55 516.965 1566.71 519.005 1566.71 521.573C1566.71 524.165 1568.55 526.181 1571.17 526.181ZM1582.16 527.957C1579.78 527.957 1578.17 526.637 1578.17 524.573C1578.17 522.749 1579.56 521.453 1582.13 521.021L1586.21 520.349V519.509C1586.21 517.829 1585.01 516.869 1583.28 516.869C1581.89 516.869 1580.76 517.517 1580.02 518.549L1578.48 517.373C1579.54 515.933 1581.24 515.045 1583.36 515.045C1586.43 515.045 1588.25 516.845 1588.25 519.509V527.621H1586.21V526.085C1585.3 527.261 1583.72 527.957 1582.16 527.957ZM1580.24 524.501C1580.24 525.533 1581.08 526.277 1582.49 526.277C1584.1 526.277 1585.42 525.509 1586.21 524.213V521.837L1582.64 522.437C1580.98 522.725 1580.24 523.469 1580.24 524.501ZM1592.35 527.621V515.525H1594.39V517.037C1595.27 515.981 1596.38 515.285 1597.91 515.285C1598.3 515.285 1598.66 515.333 1598.95 515.429V517.421C1598.59 517.325 1598.23 517.277 1597.75 517.277C1596.16 517.277 1595.13 518.093 1594.39 519.317V527.621H1592.35ZM1603.14 523.565V517.373H1600.86V515.525H1603.14V512.501H1605.21V515.525H1609.41V517.373H1605.21V523.565C1605.21 525.461 1606.17 525.989 1607.63 525.989C1608.42 525.989 1608.97 525.893 1609.43 525.701V527.525C1608.85 527.765 1608.21 527.861 1607.34 527.861C1604.65 527.861 1603.14 526.517 1603.14 523.565ZM1623.04 525.629C1621.91 527.141 1620.11 528.101 1617.86 528.101C1613.78 528.101 1611.26 525.101 1611.26 521.573C1611.26 517.901 1613.61 515.045 1617.35 515.045C1620.64 515.045 1622.78 517.349 1622.78 520.325C1622.78 520.805 1622.71 521.261 1622.63 521.597H1613.35C1613.42 524.501 1615.27 526.253 1617.86 526.253C1619.42 526.253 1620.74 525.533 1621.53 524.453L1623.04 525.629ZM1617.31 516.773C1615.31 516.773 1613.92 517.949 1613.49 520.037H1620.74C1620.67 518.261 1619.44 516.773 1617.31 516.773ZM1631.41 525.965L1632.85 524.741C1633.69 525.797 1634.7 526.397 1635.92 526.397C1637.26 526.397 1638.03 525.581 1638.03 524.525C1638.03 521.813 1631.98 522.773 1631.98 518.501C1631.98 516.605 1633.59 515.045 1635.92 515.045C1637.65 515.045 1639.14 515.861 1639.98 517.037L1638.56 518.237C1637.91 517.325 1637 516.749 1635.94 516.749C1634.65 516.749 1633.95 517.517 1633.95 518.453C1633.95 521.165 1640.02 520.301 1640.02 524.429C1640 526.685 1638.2 528.101 1635.94 528.101C1634.02 528.101 1632.51 527.333 1631.41 525.965ZM1651.77 522.437V515.525H1653.81V522.365C1653.81 525.989 1651.72 528.101 1648.43 528.101C1645.17 528.101 1643.08 525.989 1643.08 522.365V515.525H1645.12V522.437C1645.12 524.813 1646.39 526.181 1648.46 526.181C1650.47 526.181 1651.77 524.813 1651.77 522.437ZM1657.83 527.621V515.525H1659.87V517.037C1660.76 515.981 1661.86 515.285 1663.4 515.285C1663.78 515.285 1664.14 515.333 1664.43 515.429V517.421C1664.07 517.325 1663.71 517.277 1663.23 517.277C1661.65 517.277 1660.61 518.093 1659.87 519.317V527.621H1657.83ZM1682.26 522.437V515.525H1684.3V522.365C1684.3 525.989 1682.21 528.101 1678.93 528.101C1675.66 528.101 1673.57 525.989 1673.57 522.365V515.525H1675.61V522.437C1675.61 524.813 1676.89 526.181 1678.95 526.181C1680.97 526.181 1682.26 524.813 1682.26 522.437ZM1688.32 527.621V515.525H1690.36V516.893C1691.35 515.813 1692.59 515.045 1694.39 515.045C1697.11 515.045 1699.12 516.869 1699.12 520.301V527.621H1697.08V520.373C1697.08 518.213 1695.86 516.965 1693.99 516.965C1692.23 516.965 1691.13 517.973 1690.36 519.245V527.621H1688.32ZM1708.4 525.965L1709.84 524.741C1710.68 525.797 1711.69 526.397 1712.91 526.397C1714.26 526.397 1715.02 525.581 1715.02 524.525C1715.02 521.813 1708.98 522.773 1708.98 518.501C1708.98 516.605 1710.58 515.045 1712.91 515.045C1714.64 515.045 1716.13 515.861 1716.97 517.037L1715.55 518.237C1714.9 517.325 1713.99 516.749 1712.94 516.749C1711.64 516.749 1710.94 517.517 1710.94 518.453C1710.94 521.165 1717.02 520.301 1717.02 524.429C1716.99 526.685 1715.19 528.101 1712.94 528.101C1711.02 528.101 1709.5 527.333 1708.4 525.965ZM1721.37 512.381C1720.58 512.381 1719.93 511.733 1719.93 510.941C1719.93 510.173 1720.58 509.525 1721.37 509.525C1722.16 509.525 1722.79 510.173 1722.79 510.941C1722.79 511.733 1722.16 512.381 1721.37 512.381ZM1720.34 527.621V515.525H1722.38V527.621H1720.34ZM1727.38 523.565V517.373H1725.1V515.525H1727.38V512.501H1729.45V515.525H1733.65V517.373H1729.45V523.565C1729.45 525.461 1730.41 525.989 1731.87 525.989C1732.66 525.989 1733.22 525.893 1733.67 525.701V527.525C1733.1 527.765 1732.45 527.861 1731.58 527.861C1728.9 527.861 1727.38 526.517 1727.38 523.565ZM1747.28 525.629C1746.16 527.141 1744.36 528.101 1742.1 528.101C1738.02 528.101 1735.5 525.101 1735.5 521.573C1735.5 517.901 1737.85 515.045 1741.6 515.045C1744.88 515.045 1747.02 517.349 1747.02 520.325C1747.02 520.805 1746.95 521.261 1746.88 521.597H1737.59C1737.66 524.501 1739.51 526.253 1742.1 526.253C1743.66 526.253 1744.98 525.533 1745.77 524.453L1747.28 525.629ZM1741.55 516.773C1739.56 516.773 1738.16 517.949 1737.73 520.037H1744.98C1744.91 518.261 1743.68 516.773 1741.55 516.773Z" fill="#666666"/>
<path d="M774.395 336.609C772.442 338.561 772.442 341.727 774.395 343.68L806.215 375.5C808.167 377.452 811.333 377.452 813.286 375.5C815.239 373.547 815.239 370.381 813.286 368.428L785.002 340.144L813.286 311.86C815.239 309.907 815.239 306.741 813.286 304.789C811.333 302.836 808.167 302.836 806.215 304.789L774.395 336.609ZM1218.63 335.144L777.931 335.144V345.144L1218.63 345.144V335.144Z" fill="#6A6AF4"/>
<path d="M1222.17 437.232C1224.12 435.28 1224.12 432.114 1222.17 430.161L1190.35 398.341C1188.39 396.389 1185.23 396.389 1183.27 398.341C1181.32 400.294 1181.32 403.46 1183.27 405.412L1211.56 433.697L1183.27 461.981C1181.32 463.934 1181.32 467.099 1183.27 469.052C1185.23 471.005 1188.39 471.005 1190.35 469.052L1222.17 437.232ZM1218.63 428.697L777.931 428.697V438.697L1218.63 438.697V428.697Z" fill="#6A6AF4"/>
<path d="M919.134 179.835V146.235H938.718V151.899H925.95V159.867H936.798V165.531H925.95V179.835H919.134ZM943.901 179.835V143.835H949.997V179.835H943.901ZM973.243 169.371V155.643H979.387V169.083C979.387 176.331 975.163 180.795 968.059 180.795C960.955 180.795 956.779 176.331 956.779 169.083V155.643H962.923V169.371C962.923 172.875 964.747 175.035 968.107 175.035C971.419 175.035 973.243 172.875 973.243 169.371ZM989.8 179.835H982.792L991.336 167.403L983.272 155.643H990.232L995.224 163.083L1000.22 155.643H1007.22L999.112 167.403L1007.66 179.835H1000.7L995.224 171.723L989.8 179.835ZM1023.5 167.739C1023.5 160.683 1028.16 154.683 1035.79 154.683C1039.05 154.683 1041.4 155.691 1043.28 157.563V143.835H1049.42V179.835H1043.28V177.915C1041.4 179.787 1039.05 180.795 1035.79 180.795C1028.16 180.795 1023.5 174.795 1023.5 167.739ZM1029.88 167.739C1029.88 171.963 1032.52 175.035 1036.65 175.035C1039.39 175.035 1041.64 173.883 1043.28 171.675V163.803C1041.64 161.595 1039.39 160.443 1036.65 160.443C1032.52 160.443 1029.88 163.515 1029.88 167.739ZM1079 175.899C1076.74 178.923 1073 180.795 1068.44 180.795C1059.85 180.795 1055 174.795 1055 167.739C1055 160.587 1059.51 154.683 1067.43 154.683C1074.15 154.683 1078.57 159.243 1078.57 165.579C1078.57 166.923 1078.38 168.171 1078.18 168.987H1061.24C1061.82 173.499 1064.6 175.323 1068.39 175.323C1071.03 175.323 1073.34 174.171 1074.63 172.443L1079 175.899ZM1067.29 159.675C1064.17 159.675 1062.1 161.403 1061.43 164.571H1072.57C1072.47 162.123 1070.7 159.675 1067.29 159.675ZM900.454 223.739C900.454 216.683 905.11 210.683 912.742 210.683C916.006 210.683 918.358 211.691 920.23 213.563V199.835H926.374V235.835H920.23V233.915C918.358 235.787 916.006 236.795 912.742 236.795C905.11 236.795 900.454 230.795 900.454 223.739ZM906.838 223.739C906.838 227.963 909.478 231.035 913.606 231.035C916.342 231.035 918.598 229.883 920.23 227.675V219.803C918.598 217.595 916.342 216.443 913.606 216.443C909.478 216.443 906.838 219.515 906.838 223.739ZM945.202 210.683C953.074 210.683 958.45 216.491 958.45 223.739C958.45 230.987 953.074 236.795 945.202 236.795C937.33 236.795 931.954 230.987 931.954 223.739C931.954 216.491 937.33 210.683 945.202 210.683ZM945.298 231.035C949.186 231.035 952.114 227.915 952.114 223.739C952.114 219.515 949.186 216.443 945.298 216.443C941.266 216.443 938.29 219.515 938.29 223.739C938.29 227.963 941.266 231.035 945.298 231.035ZM964.01 235.835V211.643H970.106V213.563C971.786 211.931 974.042 210.683 977.258 210.683C982.49 210.683 986.666 214.283 986.666 221.435V235.835H980.522V221.675C980.522 218.459 978.698 216.443 975.722 216.443C972.65 216.443 971.018 218.507 970.106 220.043V235.835H964.01ZM993.588 235.835V211.643H999.684V213.563C1001.36 211.931 1003.62 210.683 1006.84 210.683C1012.07 210.683 1016.24 214.283 1016.24 221.435V235.835H1010.1V221.675C1010.1 218.459 1008.28 216.443 1005.3 216.443C1002.23 216.443 1000.6 218.507 999.684 220.043V235.835H993.588ZM1037.23 207.803H1031.37L1036.37 199.835H1042.99L1037.23 207.803ZM1045.44 231.899C1043.18 234.923 1039.44 236.795 1034.88 236.795C1026.29 236.795 1021.44 230.795 1021.44 223.739C1021.44 216.587 1025.95 210.683 1033.87 210.683C1040.59 210.683 1045.01 215.243 1045.01 221.579C1045.01 222.923 1044.81 224.171 1044.62 224.987H1027.68C1028.25 229.499 1031.04 231.323 1034.83 231.323C1037.47 231.323 1039.77 230.171 1041.07 228.443L1045.44 231.899ZM1033.73 215.675C1030.61 215.675 1028.54 217.403 1027.87 220.571H1039.01C1038.91 218.123 1037.13 215.675 1033.73 215.675ZM1073.05 231.899C1070.79 234.923 1067.05 236.795 1062.49 236.795C1053.9 236.795 1049.05 230.795 1049.05 223.739C1049.05 216.587 1053.56 210.683 1061.48 210.683C1068.2 210.683 1072.62 215.243 1072.62 221.579C1072.62 222.923 1072.42 224.171 1072.23 224.987H1055.29C1055.86 229.499 1058.65 231.323 1062.44 231.323C1065.08 231.323 1067.38 230.171 1068.68 228.443L1073.05 231.899ZM1061.34 215.675C1058.22 215.675 1056.15 217.403 1055.48 220.571H1066.62C1066.52 218.123 1064.74 215.675 1061.34 215.675ZM1076.13 232.331L1080.16 228.683C1081.65 230.555 1083.43 231.899 1085.73 231.899C1087.7 231.899 1088.71 230.747 1088.71 229.307C1088.71 225.083 1077.14 226.667 1077.14 218.171C1077.14 213.899 1080.74 210.683 1085.78 210.683C1089.48 210.683 1092.84 212.459 1094.56 214.811L1090.53 218.363C1089.28 216.827 1087.7 215.579 1085.83 215.579C1083.91 215.579 1083 216.635 1083 217.883C1083 222.011 1094.56 220.571 1094.56 228.923C1094.47 234.011 1090.39 236.795 1085.83 236.795C1081.51 236.795 1078.44 235.067 1076.13 232.331Z" fill="#000091"/>
<path d="M951.636 316.208V299.408H956.1C959.484 299.408 961.572 301.256 961.572 304.136C961.572 306.152 960.54 307.664 958.74 308.384L964.164 316.208H961.5L956.628 308.816C956.46 308.84 956.268 308.84 956.1 308.84H953.892V316.208H951.636ZM956.196 301.328H953.892V306.92H956.196C958.116 306.92 959.244 305.888 959.244 304.088C959.244 302.384 958.116 301.328 956.196 301.328ZM977.118 314.216C975.99 315.728 974.19 316.688 971.934 316.688C967.854 316.688 965.334 313.688 965.334 310.16C965.334 306.488 967.686 303.632 971.43 303.632C974.718 303.632 976.854 305.936 976.854 308.912C976.854 309.392 976.782 309.848 976.71 310.184H967.422C967.494 313.088 969.342 314.84 971.934 314.84C973.494 314.84 974.814 314.12 975.606 313.04L977.118 314.216ZM971.382 305.36C969.39 305.36 967.998 306.536 967.566 308.624H974.814C974.742 306.848 973.518 305.36 971.382 305.36ZM979.232 310.16C979.232 306.632 981.656 303.632 985.448 303.632C987.248 303.632 988.664 304.328 989.744 305.576V304.112H991.784V322.112H989.744V314.744C988.664 315.992 987.248 316.688 985.448 316.688C981.656 316.688 979.232 313.688 979.232 310.16ZM981.368 310.16C981.368 312.728 983.12 314.768 985.664 314.768C987.368 314.768 988.832 313.952 989.744 312.512V307.808C988.808 306.344 987.344 305.552 985.664 305.552C983.12 305.552 981.368 307.592 981.368 310.16ZM1004.53 311.024V304.112H1006.57V310.952C1006.57 314.576 1004.48 316.688 1001.2 316.688C997.932 316.688 995.844 314.576 995.844 310.952V304.112H997.884V311.024C997.884 313.4 999.156 314.768 1001.22 314.768C1003.24 314.768 1004.53 313.4 1004.53 311.024ZM1013.66 302.192H1011.82L1014.34 298.208H1017.1L1019.59 302.192H1017.77L1015.73 299.168L1013.66 302.192ZM1021.34 314.216C1020.22 315.728 1018.42 316.688 1016.16 316.688C1012.08 316.688 1009.56 313.688 1009.56 310.16C1009.56 306.488 1011.91 303.632 1015.66 303.632C1018.94 303.632 1021.08 305.936 1021.08 308.912C1021.08 309.392 1021.01 309.848 1020.94 310.184H1011.65C1011.72 313.088 1013.57 314.84 1016.16 314.84C1017.72 314.84 1019.04 314.12 1019.83 313.04L1021.34 314.216ZM1015.61 305.36C1013.62 305.36 1012.22 306.536 1011.79 308.624H1019.04C1018.97 306.848 1017.74 305.36 1015.61 305.36ZM1025.16 312.152V305.96H1022.88V304.112H1025.16V301.088H1027.23V304.112H1031.43V305.96H1027.23V312.152C1027.23 314.048 1028.19 314.576 1029.65 314.576C1030.44 314.576 1031 314.48 1031.45 314.288V316.112C1030.88 316.352 1030.23 316.448 1029.36 316.448C1026.68 316.448 1025.16 315.104 1025.16 312.152ZM1045.06 314.216C1043.94 315.728 1042.14 316.688 1039.88 316.688C1035.8 316.688 1033.28 313.688 1033.28 310.16C1033.28 306.488 1035.63 303.632 1039.38 303.632C1042.66 303.632 1044.8 305.936 1044.8 308.912C1044.8 309.392 1044.73 309.848 1044.66 310.184H1035.37C1035.44 313.088 1037.29 314.84 1039.88 314.84C1041.44 314.84 1042.76 314.12 1043.55 313.04L1045.06 314.216ZM1039.33 305.36C1037.34 305.36 1035.94 306.536 1035.51 308.624H1042.76C1042.69 306.848 1041.46 305.36 1039.33 305.36Z" fill="#666666"/>
<path d="M920.885 408.748V391.948H925.349C928.733 391.948 930.821 393.796 930.821 396.676C930.821 398.692 929.789 400.204 927.989 400.924L933.413 408.748H930.749L925.877 401.356C925.709 401.38 925.517 401.38 925.349 401.38H923.141V408.748H920.885ZM925.445 393.868H923.141V399.46H925.445C927.365 399.46 928.493 398.428 928.493 396.628C928.493 394.924 927.365 393.868 925.445 393.868ZM941.759 394.732H939.767L942.263 390.748H944.567L941.759 394.732ZM946.367 406.756C945.239 408.268 943.439 409.228 941.183 409.228C937.103 409.228 934.583 406.228 934.583 402.7C934.583 399.028 936.935 396.172 940.679 396.172C943.967 396.172 946.103 398.476 946.103 401.452C946.103 401.932 946.031 402.388 945.959 402.724H936.671C936.743 405.628 938.591 407.38 941.183 407.38C942.743 407.38 944.063 406.66 944.855 405.58L946.367 406.756ZM940.631 397.9C938.639 397.9 937.247 399.076 936.815 401.164H944.063C943.991 399.388 942.767 397.9 940.631 397.9ZM949.56 414.652V396.652H951.6V398.092C952.68 396.868 954.096 396.172 955.896 396.172C959.688 396.172 962.112 399.172 962.112 402.7C962.112 406.228 959.688 409.228 955.896 409.228C954.096 409.228 952.68 408.532 951.6 407.308V414.652H949.56ZM955.656 398.092C953.976 398.092 952.512 398.908 951.6 400.348V405.052C952.536 406.516 954 407.308 955.656 407.308C958.224 407.308 959.976 405.268 959.976 402.7C959.976 400.132 958.224 398.092 955.656 398.092ZM971.041 396.172C974.929 396.172 977.593 399.172 977.593 402.7C977.593 406.228 974.929 409.228 971.041 409.228C967.129 409.228 964.489 406.228 964.489 402.7C964.489 399.172 967.129 396.172 971.041 396.172ZM971.065 407.308C973.585 407.308 975.433 405.196 975.433 402.7C975.433 400.18 973.585 398.092 971.065 398.092C968.473 398.092 966.625 400.18 966.625 402.7C966.625 405.22 968.473 407.308 971.065 407.308ZM980.873 408.748V396.652H982.913V398.02C983.897 396.94 985.145 396.172 986.945 396.172C989.657 396.172 991.673 397.996 991.673 401.428V408.748H989.633V401.5C989.633 399.34 988.409 398.092 986.537 398.092C984.785 398.092 983.681 399.1 982.913 400.372V408.748H980.873ZM994.483 407.092L995.923 405.868C996.763 406.924 997.771 407.524 998.995 407.524C1000.34 407.524 1001.11 406.708 1001.11 405.652C1001.11 402.94 995.059 403.9 995.059 399.628C995.059 397.732 996.667 396.172 998.995 396.172C1000.72 396.172 1002.21 396.988 1003.05 398.164L1001.64 399.364C1000.99 398.452 1000.08 397.876 999.019 397.876C997.723 397.876 997.027 398.644 997.027 399.58C997.027 402.292 1003.1 401.428 1003.1 405.556C1003.08 407.812 1001.28 409.228 999.019 409.228C997.099 409.228 995.587 408.46 994.483 407.092ZM1017.03 406.756C1015.9 408.268 1014.1 409.228 1011.85 409.228C1007.77 409.228 1005.25 406.228 1005.25 402.7C1005.25 399.028 1007.6 396.172 1011.34 396.172C1014.63 396.172 1016.77 398.476 1016.77 401.452C1016.77 401.932 1016.7 402.388 1016.62 402.724H1007.34C1007.41 405.628 1009.26 407.38 1011.85 407.38C1013.41 407.38 1014.73 406.66 1015.52 405.58L1017.03 406.756ZM1011.3 397.9C1009.3 397.9 1007.91 399.076 1007.48 401.164H1014.73C1014.66 399.388 1013.43 397.9 1011.3 397.9Z" fill="#666666"/>
<mask id="path-20-inside-1_21_4" fill="white">
<path d="M1273.9 268.96H1510.9V522.96H1273.9V268.96Z"/>
</mask>
<path d="M1273.9 268.96H1510.9V522.96H1273.9V268.96Z" fill="#EEEEEE"/>
<path d="M1270.9 268.96V279.543H1276.9V268.96H1270.9ZM1270.9 300.71V321.877H1276.9V300.71H1270.9ZM1270.9 343.043V364.21H1276.9V343.043H1270.9ZM1270.9 385.376V406.543H1276.9V385.376H1270.9ZM1270.9 427.71V448.877H1276.9V427.71H1270.9ZM1270.9 470.043V491.21H1276.9V470.043H1270.9ZM1270.9 512.377V522.96H1276.9V512.377H1270.9ZM1513.9 522.96V512.377H1507.9V522.96H1513.9ZM1513.9 491.21V470.043H1507.9V491.21H1513.9ZM1513.9 448.877V427.71H1507.9V448.877H1513.9ZM1513.9 406.543V385.377H1507.9V406.543H1513.9ZM1513.9 364.21V343.043H1507.9V364.21H1513.9ZM1513.9 321.877V300.71H1507.9V321.877H1513.9ZM1513.9 279.543V268.96H1507.9V279.543H1513.9ZM1267.9 268.96V279.543H1279.9V268.96H1267.9ZM1267.9 300.71V321.877H1279.9V300.71H1267.9ZM1267.9 343.043V364.21H1279.9V343.043H1267.9ZM1267.9 385.376V406.543H1279.9V385.376H1267.9ZM1267.9 427.71V448.877H1279.9V427.71H1267.9ZM1267.9 470.043V491.21H1279.9V470.043H1267.9ZM1267.9 512.377V522.96H1279.9V512.377H1267.9ZM1516.9 522.96V512.377H1504.9V522.96H1516.9ZM1516.9 491.21V470.043H1504.9V491.21H1516.9ZM1516.9 448.877V427.71H1504.9V448.877H1516.9ZM1516.9 406.543V385.377H1504.9V406.543H1516.9ZM1516.9 364.21V343.043H1504.9V364.21H1516.9ZM1516.9 321.877V300.71H1504.9V321.877H1516.9ZM1516.9 279.543V268.96H1504.9V279.543H1516.9Z" fill="#6A6AF4" mask="url(#path-20-inside-1_21_4)"/>
<path fill-rule="evenodd" clip-rule="evenodd" d="M1392.4 306.627C1410.8 306.627 1425.73 319.887 1425.73 336.257C1425.72 346.482 1417.43 354.77 1407.21 354.773H1400.66C1397.58 354.773 1395.1 357.257 1395.1 360.33C1395.1 361.737 1395.66 363.033 1396.51 363.997C1397.4 364.997 1397.95 366.293 1397.95 367.737C1397.95 370.813 1395.4 373.293 1392.4 373.293C1373.99 373.293 1359.06 358.367 1359.06 339.96C1359.06 321.553 1373.99 306.627 1392.4 306.627ZM1392.4 313.293C1378.1 313.28 1366.33 324.547 1365.73 338.832C1365.12 353.118 1375.89 365.338 1390.14 366.533C1389.03 364.657 1388.44 362.516 1388.43 360.333V360.33C1388.43 357.087 1389.72 353.977 1392.01 351.684C1394.3 349.391 1397.41 348.104 1400.66 348.107H1407.21C1413.75 348.103 1419.06 342.802 1419.06 336.26C1419.06 323.757 1407.29 313.293 1392.4 313.293ZM1377.4 329.96C1380.16 329.96 1382.4 332.198 1382.4 334.96C1382.4 337.721 1380.16 339.96 1377.4 339.96C1374.63 339.96 1372.4 337.721 1372.4 334.96C1372.4 332.198 1374.63 329.96 1377.4 329.96ZM1407.4 329.96C1410.16 329.96 1412.4 332.198 1412.4 334.96C1412.4 337.721 1410.16 339.96 1407.4 339.96C1404.63 339.96 1402.4 337.721 1402.4 334.96C1402.4 332.198 1404.63 329.96 1407.4 329.96ZM1392.4 319.96C1395.16 319.96 1397.4 322.198 1397.4 324.96C1397.4 327.721 1395.16 329.96 1392.4 329.96C1389.63 329.96 1387.4 327.721 1387.4 324.96C1387.4 322.198 1389.63 319.96 1392.4 319.96Z" fill="#000091"/>
<path d="M1315.56 434.08L1319.68 430.28C1321.36 432.44 1323.6 433.72 1325.88 433.72C1328.12 433.72 1329.48 432.52 1329.48 430.52C1329.48 425.36 1316.76 426.76 1316.76 417.28C1316.76 412.84 1320.44 409.16 1325.8 409.16C1330 409.16 1333.2 411.04 1335.6 413.88L1331.44 417.64C1329.8 415.52 1327.96 414.12 1325.84 414.12C1323.84 414.12 1322.52 415.4 1322.52 417.08C1322.52 422.16 1335.24 420.72 1335.24 430.32C1335.16 435.6 1331.08 438.76 1325.92 438.76C1321.2 438.76 1318.04 437.04 1315.56 434.08ZM1341.13 430.6V422.36H1337.37V417.8H1341.13V412.76H1346.25V417.8H1352.41V422.36H1346.25V430.6C1346.25 432.84 1347.45 433.72 1349.45 433.72C1350.85 433.72 1351.77 433.56 1352.45 433.28V437.72C1351.45 438.16 1350.25 438.36 1348.57 438.36C1343.53 438.36 1341.13 435.52 1341.13 430.6ZM1366 442.56C1364.6 445.88 1362.32 447.96 1358.48 447.96C1356.92 447.96 1355.84 447.72 1354.88 447.32V442.84C1355.52 443.12 1356.48 443.32 1357.36 443.32C1359.36 443.32 1360.6 442.64 1361.44 440.6L1362.56 437.92L1354.08 417.8H1359.72L1365.24 431.36L1370.8 417.8H1376.16L1366 442.56ZM1379.34 437.96V407.96H1384.42V437.96H1379.34ZM1409.07 434.68C1407.19 437.2 1404.07 438.76 1400.27 438.76C1393.11 438.76 1389.07 433.76 1389.07 427.88C1389.07 421.92 1392.83 417 1399.43 417C1405.03 417 1408.71 420.8 1408.71 426.08C1408.71 427.2 1408.55 428.24 1408.39 428.92H1394.27C1394.75 432.68 1397.07 434.2 1400.23 434.2C1402.43 434.2 1404.35 433.24 1405.43 431.8L1409.07 434.68ZM1399.31 421.16C1396.71 421.16 1394.99 422.6 1394.43 425.24H1403.71C1403.63 423.2 1402.15 421.16 1399.31 421.16ZM1423.02 427.88C1423.02 422 1426.9 417 1433.26 417C1435.98 417 1437.94 417.84 1439.5 419.4V407.96H1444.62V437.96H1439.5V436.36C1437.94 437.92 1435.98 438.76 1433.26 438.76C1426.9 438.76 1423.02 433.76 1423.02 427.88ZM1428.34 427.88C1428.34 431.4 1430.54 433.96 1433.98 433.96C1436.26 433.96 1438.14 433 1439.5 431.16V424.6C1438.14 422.76 1436.26 421.8 1433.98 421.8C1430.54 421.8 1428.34 424.36 1428.34 427.88ZM1469.27 434.68C1467.39 437.2 1464.27 438.76 1460.47 438.76C1453.31 438.76 1449.27 433.76 1449.27 427.88C1449.27 421.92 1453.03 417 1459.63 417C1465.23 417 1468.91 420.8 1468.91 426.08C1468.91 427.2 1468.75 428.24 1468.59 428.92H1454.47C1454.95 432.68 1457.27 434.2 1460.43 434.2C1462.63 434.2 1464.55 433.24 1465.63 431.8L1469.27 434.68ZM1459.51 421.16C1456.91 421.16 1455.19 422.6 1454.63 425.24H1463.91C1463.83 423.2 1462.35 421.16 1459.51 421.16ZM1354.26 481.96C1356.26 481.96 1357.86 481.04 1358.82 479.64L1362.78 482.68C1360.9 485.16 1357.94 486.76 1354.26 486.76C1347.3 486.76 1343.14 481.76 1343.14 475.88C1343.14 470 1347.3 465 1354.26 465C1357.94 465 1360.9 466.6 1362.78 469.08L1358.82 472.12C1357.86 470.72 1356.26 469.8 1354.18 469.8C1350.86 469.8 1348.42 472.36 1348.42 475.88C1348.42 479.44 1350.86 481.96 1354.26 481.96ZM1371.9 486.56C1367.86 486.56 1365.1 484.24 1365.1 480.52C1365.1 477.48 1367.46 475.2 1371.78 474.48L1377.94 473.44V472.92C1377.94 470.8 1376.34 469.44 1374.02 469.44C1372.06 469.44 1370.54 470.36 1369.46 471.84L1365.74 469C1367.54 466.52 1370.5 465 1374.18 465C1380.02 465 1383.02 468.48 1383.02 472.92V485.96H1377.94V484C1376.66 485.56 1374.26 486.56 1371.9 486.56ZM1370.14 480.28C1370.14 481.64 1371.22 482.52 1372.94 482.52C1375.26 482.52 1376.94 481.44 1377.94 479.84V477L1373.14 477.8C1371.02 478.16 1370.14 479.04 1370.14 480.28ZM1388.83 485.96V465.8H1393.91V467.8C1395.23 466.44 1396.95 465.4 1399.23 465.4C1399.91 465.4 1400.51 465.52 1400.99 465.68V470.68C1400.35 470.52 1399.67 470.4 1398.75 470.4C1396.27 470.4 1394.67 471.76 1393.91 473.04V485.96H1388.83ZM1407.69 478.6V470.36H1403.93V465.8H1407.69V460.76H1412.81V465.8H1418.97V470.36H1412.81V478.6C1412.81 480.84 1414.01 481.72 1416.01 481.72C1417.41 481.72 1418.33 481.56 1419.01 481.28V485.72C1418.01 486.16 1416.81 486.36 1415.13 486.36C1410.09 486.36 1407.69 483.52 1407.69 478.6ZM1441.69 482.68C1439.81 485.2 1436.69 486.76 1432.89 486.76C1425.73 486.76 1421.69 481.76 1421.69 475.88C1421.69 469.92 1425.45 465 1432.05 465C1437.65 465 1441.33 468.8 1441.33 474.08C1441.33 475.2 1441.17 476.24 1441.01 476.92H1426.89C1427.37 480.68 1429.69 482.2 1432.85 482.2C1435.05 482.2 1436.97 481.24 1438.05 479.8L1441.69 482.68ZM1431.93 469.16C1429.33 469.16 1427.61 470.6 1427.05 473.24H1436.33C1436.25 471.2 1434.77 469.16 1431.93 469.16Z" fill="#000091"/>
</svg>
