<?xml version="1.0" encoding="UTF-8" standalone="no"?><!DOCTYPE svg PUBLIC "-//W3C//DTD SVG 1.1//EN" "http://www.w3.org/Graphics/SVG/1.1/DTD/svg11.dtd"><svg width="100%" height="100%" viewBox="0 0 1921 577" version="1.1" xmlns="http://www.w3.org/2000/svg" xmlns:xlink="http://www.w3.org/1999/xlink" xml:space="preserve" xmlns:serif="http://www.serif.com/" style="fill-rule:evenodd;clip-rule:evenodd;stroke-linecap:round;stroke-linejoin:round;"><rect id="Plan-de-travail1" serif:id="Plan de travail1" x="0" y="0" width="1920.77" height="576.728" style="fill:none;"/><path d="M985.125,183.035c51.92,0 94.01,-14.029 94.01,-31.334c0,-17.305 -42.09,-31.334 -94.01,-31.334c-51.91,0 -93.999,14.029 -93.999,31.334c0,17.305 42.089,31.334 93.999,31.334Z" style="fill:#e8edff;fill-rule:nonzero;"/><path d="M891.126,151.701l0,146.226c0,8.31 9.904,16.28 27.529,22.156c17.63,5.877 41.54,9.178 66.47,9.178c24.93,0 48.84,-3.301 66.47,-9.178c17.63,-5.876 27.54,-13.846 27.54,-22.156l0,-146.226" style="fill:#e8edff;fill-rule:nonzero;"/><path d="M891.126,224.814c0,8.31 9.904,16.28 27.529,22.156c17.63,5.877 41.54,9.178 66.47,9.178c24.93,0 48.84,-3.301 66.47,-9.178c17.63,-5.876 27.54,-13.846 27.54,-22.156" style="fill:#e8edff;fill-rule:nonzero;"/><path d="M1079.13,151.701c0,17.305 -42.09,31.334 -94.01,31.334c-51.91,0 -93.999,-14.029 -93.999,-31.334m188.009,0c0,-17.305 -42.09,-31.334 -94.01,-31.334c-51.91,0 -93.999,14.029 -93.999,31.334m188.009,0l0,146.226c0,8.31 -9.91,16.28 -27.54,22.156c-17.63,5.877 -41.54,9.178 -66.47,9.178c-24.93,0 -48.84,-3.301 -66.47,-9.178c-17.625,-5.876 -27.529,-13.846 -27.529,-22.156l0,-146.226m0,73.113c0,8.31 9.904,16.28 27.529,22.156c17.63,5.877 41.54,9.178 66.47,9.178c24.93,0 48.84,-3.301 66.47,-9.178c17.63,-5.876 27.54,-13.846 27.54,-22.156" style="fill:none;fill-rule:nonzero;stroke:#000091;stroke-width:6px;"/><path d="M1175.88,221.279c-1.96,1.952 -1.96,5.118 0,7.071l31.82,31.819c1.95,1.953 5.11,1.953 7.07,0c1.95,-1.952 1.95,-5.118 0,-7.071l-28.29,-28.284l28.29,-28.284c1.95,-1.953 1.95,-5.119 0,-7.071c-1.96,-1.953 -5.12,-1.953 -7.07,0l-31.82,31.82Zm141.89,-1.465l-138.36,0l0,10l138.36,0l0,-10Z" style="fill:#6a6af4;fill-rule:nonzero;"/><path d="M789.009,228.35c1.953,-1.953 1.953,-5.119 0,-7.071l-31.819,-31.82c-1.953,-1.953 -5.119,-1.953 -7.071,0c-1.953,1.952 -1.953,5.118 0,7.071l28.284,28.284l-28.284,28.284c-1.953,1.953 -1.953,5.119 0,7.071c1.952,1.953 5.118,1.953 7.071,0l31.819,-31.819Zm-141.892,1.464l138.357,0l0,-10l-138.357,0l0,10Z" style="fill:#929292;fill-rule:nonzero;"/><path d="M130.504,95.183c25.511,0 46.191,-6.893 46.191,-15.397c0,-8.503 -20.68,-15.397 -46.191,-15.397c-25.51,0 -46.19,6.894 -46.19,15.397c0,8.504 20.68,15.397 46.19,15.397Z" style="fill:#ededed;fill-rule:nonzero;"/><path d="M84.314,79.786l0,71.852c0,4.084 4.866,8 13.529,10.888c8.662,2.887 20.411,4.509 32.661,4.509c12.251,0 24,-1.622 32.662,-4.509c8.663,-2.888 13.529,-6.804 13.529,-10.888l0,-71.852" style="fill:#ededed;fill-rule:nonzero;"/><path d="M84.314,115.712c0,4.084 4.866,8 13.529,10.888c8.662,2.887 20.411,4.509 32.661,4.509c12.251,0 24,-1.622 32.662,-4.509c8.663,-2.888 13.529,-6.804 13.529,-10.888" style="fill:#ededed;fill-rule:nonzero;"/><path d="M176.695,79.786c0,8.504 -20.68,15.397 -46.191,15.397c-25.51,0 -46.19,-6.893 -46.19,-15.397m92.381,0c0,-8.503 -20.68,-15.397 -46.191,-15.397c-25.51,0 -46.19,6.894 -46.19,15.397m92.381,0l0,71.852c0,4.084 -4.866,8 -13.529,10.888c-8.662,2.887 -20.411,4.509 -32.662,4.509c-12.25,0 -23.999,-1.622 -32.661,-4.509c-8.663,-2.888 -13.529,-6.804 -13.529,-10.888l0,-71.852m0,35.926c0,4.084 4.866,8 13.529,10.888c8.662,2.887 20.411,4.509 32.661,4.509c12.251,0 24,-1.622 32.662,-4.509c8.663,-2.888 13.529,-6.804 13.529,-10.888" style="fill:none;fill-rule:nonzero;stroke:#929292;stroke-width:4px;"/><path d="M315.577,95.183c25.51,0 46.191,-6.893 46.191,-15.397c0,-8.503 -20.681,-15.397 -46.191,-15.397c-25.511,0 -46.191,6.894 -46.191,15.397c0,8.504 20.68,15.397 46.191,15.397Z" style="fill:#ededed;fill-rule:nonzero;"/><path d="M269.386,79.786l0,71.852c0,4.084 4.866,8 13.529,10.888c8.662,2.887 20.411,4.509 32.662,4.509c12.25,0 23.999,-1.622 32.662,-4.509c8.662,-2.888 13.529,-6.804 13.529,-10.888l0,-71.852" style="fill:#ededed;fill-rule:nonzero;"/><path d="M269.386,115.712c0,4.084 4.866,8 13.529,10.888c8.662,2.887 20.411,4.509 32.662,4.509c12.25,0 23.999,-1.622 32.662,-4.509c8.662,-2.888 13.529,-6.804 13.529,-10.888" style="fill:#ededed;fill-rule:nonzero;"/><path d="M361.768,79.786c0,8.504 -20.681,15.397 -46.191,15.397c-25.511,0 -46.191,-6.893 -46.191,-15.397m92.382,0c0,-8.503 -20.681,-15.397 -46.191,-15.397c-25.511,0 -46.191,6.894 -46.191,15.397m92.382,0l0,71.852c0,4.084 -4.867,8 -13.529,10.888c-8.663,2.887 -20.412,4.509 -32.662,4.509c-12.251,0 -24,-1.622 -32.662,-4.509c-8.663,-2.888 -13.529,-6.804 -13.529,-10.888l0,-71.852m0,35.926c0,4.084 4.866,8 13.529,10.888c8.662,2.887 20.411,4.509 32.662,4.509c12.25,0 23.999,-1.622 32.662,-4.509c8.662,-2.888 13.529,-6.804 13.529,-10.888" style="fill:none;fill-rule:nonzero;stroke:#929292;stroke-width:4px;"/><path d="M500.649,95.183c25.511,0 46.191,-6.893 46.191,-15.397c0,-8.503 -20.68,-15.397 -46.191,-15.397c-25.51,0 -46.191,6.894 -46.191,15.397c0,8.504 20.681,15.397 46.191,15.397Z" style="fill:#ededed;fill-rule:nonzero;"/><path d="M454.458,79.786l0,71.852c0,4.084 4.867,8 13.529,10.888c8.663,2.887 20.412,4.509 32.662,4.509c12.251,0 24,-1.622 32.662,-4.509c8.663,-2.888 13.529,-6.804 13.529,-10.888l0,-71.852" style="fill:#ededed;fill-rule:nonzero;"/><path d="M454.458,115.712c0,4.084 4.867,8 13.529,10.888c8.663,2.887 20.412,4.509 32.662,4.509c12.251,0 24,-1.622 32.662,-4.509c8.663,-2.888 13.529,-6.804 13.529,-10.888" style="fill:#ededed;fill-rule:nonzero;"/><path d="M546.84,79.786c0,8.504 -20.68,15.397 -46.191,15.397c-25.51,0 -46.191,-6.893 -46.191,-15.397m92.382,0c0,-8.503 -20.68,-15.397 -46.191,-15.397c-25.51,0 -46.191,6.894 -46.191,15.397m92.382,0l0,71.852c0,4.084 -4.866,8 -13.529,10.888c-8.662,2.887 -20.411,4.509 -32.662,4.509c-12.25,0 -23.999,-1.622 -32.662,-4.509c-8.662,-2.888 -13.529,-6.804 -13.529,-10.888l0,-71.852m0,35.926c0,4.084 4.867,8 13.529,10.888c8.663,2.887 20.412,4.509 32.662,4.509c12.251,0 24,-1.622 32.662,-4.509c8.663,-2.888 13.529,-6.804 13.529,-10.888" style="fill:none;fill-rule:nonzero;stroke:#929292;stroke-width:4px;"/><path d="M67.513,462.339l0,-22.4l8.8,0c7.104,0 11.904,5.152 11.904,11.2c0,6.048 -4.8,11.2 -11.904,11.2l-8.8,0Zm8.864,-18.272l-4.32,0l0,14.144l4.32,0c4.16,0 7.168,-3.104 7.168,-7.072c0,-4 -3.008,-7.072 -7.168,-7.072Zm23.452,1.504c5.248,0 8.832,3.872 8.832,8.704c0,4.832 -3.584,8.704 -8.832,8.704c-5.248,0 -8.832,-3.872 -8.832,-8.704c0,-4.832 3.584,-8.704 8.832,-8.704Zm0.064,13.568c2.592,0 4.544,-2.08 4.544,-4.864c0,-2.816 -1.952,-4.864 -4.544,-4.864c-2.688,0 -4.672,2.048 -4.672,4.864c0,2.816 1.984,4.864 4.672,4.864Zm12.475,3.2l0,-16.128l4.064,0l0,1.28c1.12,-1.088 2.624,-1.92 4.768,-1.92c3.488,0 6.272,2.4 6.272,7.168l0,9.6l-4.096,0l0,-9.44c0,-2.144 -1.216,-3.488 -3.2,-3.488c-2.048,0 -3.136,1.376 -3.744,2.4l0,10.528l-4.064,0Zm19.719,0l0,-16.128l4.064,0l0,1.28c1.12,-1.088 2.624,-1.92 4.768,-1.92c3.488,0 6.272,2.4 6.272,7.168l0,9.6l-4.096,0l0,-9.44c0,-2.144 -1.216,-3.488 -3.2,-3.488c-2.048,0 -3.136,1.376 -3.744,2.4l0,10.528l-4.064,0Zm29.095,-18.688l-3.904,0l3.328,-5.312l4.416,0l-3.84,5.312Zm5.472,16.064c-1.504,2.016 -4,3.264 -7.04,3.264c-5.728,0 -8.96,-4 -8.96,-8.704c0,-4.768 3.008,-8.704 8.288,-8.704c4.48,0 7.424,3.04 7.424,7.264c0,0.896 -0.128,1.728 -0.256,2.272l-11.296,0c0.384,3.008 2.24,4.224 4.768,4.224c1.76,0 3.296,-0.768 4.16,-1.92l2.912,2.304Zm-7.808,-10.816c-2.08,0 -3.456,1.152 -3.904,3.264l7.424,0c-0.064,-1.632 -1.248,-3.264 -3.52,-3.264Zm26.214,10.816c-1.504,2.016 -4,3.264 -7.04,3.264c-5.728,0 -8.96,-4 -8.96,-8.704c0,-4.768 3.008,-8.704 8.288,-8.704c4.48,0 7.424,3.04 7.424,7.264c0,0.896 -0.128,1.728 -0.256,2.272l-11.296,0c0.384,3.008 2.24,4.224 4.768,4.224c1.76,0 3.296,-0.768 4.16,-1.92l2.912,2.304Zm-7.808,-10.816c-2.08,0 -3.456,1.152 -3.904,3.264l7.424,0c-0.064,-1.632 -1.248,-3.264 -3.52,-3.264Zm9.864,11.104l2.688,-2.432c0.992,1.248 2.176,2.144 3.712,2.144c1.312,0 1.984,-0.768 1.984,-1.728c0,-2.816 -7.712,-1.76 -7.712,-7.424c0,-2.848 2.4,-4.992 5.76,-4.992c2.464,0 4.704,1.184 5.856,2.752l-2.688,2.368c-0.832,-1.024 -1.888,-1.856 -3.136,-1.856c-1.28,0 -1.888,0.704 -1.888,1.536c0,2.752 7.712,1.792 7.712,7.36c-0.064,3.392 -2.784,5.248 -5.824,5.248c-2.88,0 -4.928,-1.152 -6.464,-2.976Zm23.506,-5.728c0,-4.704 3.104,-8.704 8.192,-8.704c2.176,0 3.744,0.672 4.992,1.92l0,-9.152l4.096,0l0,24l-4.096,0l0,-1.28c-1.248,1.248 -2.816,1.92 -4.992,1.92c-5.088,0 -8.192,-4 -8.192,-8.704Zm4.256,0c0,2.816 1.76,4.864 4.512,4.864c1.824,0 3.328,-0.768 4.416,-2.24l0,-5.248c-1.088,-1.472 -2.592,-2.24 -4.416,-2.24c-2.752,0 -4.512,2.048 -4.512,4.864Zm32.744,5.44c-1.504,2.016 -4,3.264 -7.04,3.264c-5.728,0 -8.96,-4 -8.96,-8.704c0,-4.768 3.008,-8.704 8.288,-8.704c4.48,0 7.424,3.04 7.424,7.264c0,0.896 -0.128,1.728 -0.256,2.272l-11.296,0c0.384,3.008 2.24,4.224 4.768,4.224c1.76,0 3.296,-0.768 4.16,-1.92l2.912,2.304Zm-7.808,-10.816c-2.08,0 -3.456,1.152 -3.904,3.264l7.424,0c-0.064,-1.632 -1.248,-3.264 -3.52,-3.264Zm9.865,11.104l2.688,-2.432c0.992,1.248 2.176,2.144 3.712,2.144c1.312,0 1.984,-0.768 1.984,-1.728c0,-2.816 -7.712,-1.76 -7.712,-7.424c0,-2.848 2.4,-4.992 5.76,-4.992c2.464,0 4.704,1.184 5.856,2.752l-2.688,2.368c-0.832,-1.024 -1.888,-1.856 -3.136,-1.856c-1.28,0 -1.888,0.704 -1.888,1.536c0,2.752 7.712,1.792 7.712,7.36c-0.064,3.392 -2.784,5.248 -5.824,5.248c-2.88,0 -4.928,-1.152 -6.464,-2.976Zm29.202,2.816c-3.232,0 -5.44,-1.856 -5.44,-4.832c0,-2.432 1.888,-4.256 5.344,-4.832l4.928,-0.832l0,-0.416c0,-1.696 -1.28,-2.784 -3.136,-2.784c-1.568,0 -2.784,0.736 -3.648,1.92l-2.976,-2.272c1.44,-1.984 3.808,-3.2 6.752,-3.2c4.672,0 7.072,2.784 7.072,6.336l0,10.432l-4.064,0l0,-1.568c-1.024,1.248 -2.944,2.048 -4.832,2.048Zm-1.408,-5.024c0,1.088 0.864,1.792 2.24,1.792c1.856,0 3.2,-0.864 4,-2.144l0,-2.272l-3.84,0.64c-1.696,0.288 -2.4,0.992 -2.4,1.984Zm22.702,1.344c1.6,0 2.88,-0.736 3.648,-1.856l3.168,2.432c-1.504,1.984 -3.872,3.264 -6.816,3.264c-5.568,0 -8.896,-4 -8.896,-8.704c0,-4.704 3.328,-8.704 8.896,-8.704c2.944,0 5.312,1.28 6.816,3.264l-3.168,2.432c-0.768,-1.12 -2.048,-1.856 -3.712,-1.856c-2.656,0 -4.608,2.048 -4.608,4.864c0,2.848 1.952,4.864 4.672,4.864Zm11.03,-2.688l0,-6.592l-3.008,0l0,-3.648l3.008,0l0,-4.032l4.096,0l0,4.032l4.928,0l0,3.648l-4.928,0l0,6.592c0,1.792 0.96,2.496 2.56,2.496c1.12,0 1.856,-0.128 2.4,-0.352l0,3.552c-0.8,0.352 -1.76,0.512 -3.104,0.512c-4.032,0 -5.952,-2.272 -5.952,-6.208Zm27.199,3.264c-1.504,2.016 -4,3.264 -7.04,3.264c-5.728,0 -8.96,-4 -8.96,-8.704c0,-4.768 3.008,-8.704 8.288,-8.704c4.48,0 7.424,3.04 7.424,7.264c0,0.896 -0.128,1.728 -0.256,2.272l-11.296,0c0.384,3.008 2.24,4.224 4.768,4.224c1.76,0 3.296,-0.768 4.16,-1.92l2.912,2.304Zm-7.808,-10.816c-2.08,0 -3.456,1.152 -3.904,3.264l7.424,0c-0.064,-1.632 -1.248,-3.264 -3.52,-3.264Zm21.927,6.464l0,-9.152l4.096,0l0,8.96c0,4.832 -2.816,7.808 -7.552,7.808c-4.736,0 -7.52,-2.976 -7.52,-7.808l0,-8.96l4.096,0l0,9.152c0,2.336 1.216,3.776 3.456,3.776c2.208,0 3.424,-1.44 3.424,-3.776Zm8.595,6.976l0,-16.128l4.064,0l0,1.6c1.056,-1.088 2.432,-1.92 4.256,-1.92c0.544,0 1.024,0.096 1.408,0.224l0,4c-0.512,-0.128 -1.056,-0.224 -1.792,-0.224c-1.984,0 -3.264,1.088 -3.872,2.112l0,10.336l-4.064,0Zm11.592,-2.336l2.688,-2.432c0.992,1.248 2.176,2.144 3.712,2.144c1.312,0 1.984,-0.768 1.984,-1.728c0,-2.816 -7.712,-1.76 -7.712,-7.424c0,-2.848 2.4,-4.992 5.76,-4.992c2.464,0 4.704,1.184 5.856,2.752l-2.688,2.368c-0.832,-1.024 -1.888,-1.856 -3.136,-1.856c-1.28,0 -1.888,0.704 -1.888,1.536c0,2.752 7.712,1.792 7.712,7.36c-0.064,3.392 -2.784,5.248 -5.824,5.248c-2.88,0 -4.928,-1.152 -6.464,-2.976Zm24.658,2.336l0,-24l4.064,0l0,9.152c1.12,-1.088 2.624,-1.92 4.768,-1.92c3.488,0 6.272,2.4 6.272,7.168l0,9.6l-4.096,0l0,-9.44c0,-2.144 -1.184,-3.488 -3.2,-3.488c-2.048,0 -3.136,1.376 -3.744,2.4l0,10.528l-4.064,0Zm21.767,-18.944c-1.44,0 -2.656,-1.216 -2.656,-2.656c0,-1.44 1.216,-2.656 2.656,-2.656c1.44,0 2.624,1.216 2.624,2.656c0,1.44 -1.184,2.656 -2.624,2.656Zm-2.048,18.944l0,-16.128l4.064,0l0,16.128l-4.064,0Zm7.311,-2.336l2.688,-2.432c0.992,1.248 2.176,2.144 3.712,2.144c1.312,0 1.984,-0.768 1.984,-1.728c0,-2.816 -7.712,-1.76 -7.712,-7.424c0,-2.848 2.4,-4.992 5.76,-4.992c2.464,0 4.704,1.184 5.856,2.752l-2.688,2.368c-0.832,-1.024 -1.888,-1.856 -3.136,-1.856c-1.28,0 -1.888,0.704 -1.888,1.536c0,2.752 7.712,1.792 7.712,7.36c-0.064,3.392 -2.784,5.248 -5.824,5.248c-2.88,0 -4.928,-1.152 -6.464,-2.976Zm17.307,-3.552l0,-6.592l-3.008,0l0,-3.648l3.008,0l0,-4.032l4.096,0l0,4.032l4.928,0l0,3.648l-4.928,0l0,6.592c0,1.792 0.96,2.496 2.56,2.496c1.12,0 1.856,-0.128 2.4,-0.352l0,3.552c-0.8,0.352 -1.76,0.512 -3.104,0.512c-4.032,0 -5.952,-2.272 -5.952,-6.208Zm20.031,-10.88c5.248,0 8.832,3.872 8.832,8.704c0,4.832 -3.584,8.704 -8.832,8.704c-5.248,0 -8.832,-3.872 -8.832,-8.704c0,-4.832 3.584,-8.704 8.832,-8.704Zm0.064,13.568c2.592,0 4.544,-2.08 4.544,-4.864c0,-2.816 -1.952,-4.864 -4.544,-4.864c-2.688,0 -4.672,2.048 -4.672,4.864c0,2.816 1.984,4.864 4.672,4.864Zm12.474,3.2l0,-16.128l4.064,0l0,1.6c1.056,-1.088 2.432,-1.92 4.256,-1.92c0.544,0 1.024,0.096 1.408,0.224l0,4c-0.512,-0.128 -1.056,-0.224 -1.792,-0.224c-1.984,0 -3.264,1.088 -3.872,2.112l0,10.336l-4.064,0Zm15.048,-18.944c-1.44,0 -2.656,-1.216 -2.656,-2.656c0,-1.44 1.216,-2.656 2.656,-2.656c1.44,0 2.624,1.216 2.624,2.656c0,1.44 -1.184,2.656 -2.624,2.656Zm-2.048,18.944l0,-16.128l4.064,0l0,16.128l-4.064,0Zm7.786,-8.064c0,-4.704 3.072,-8.704 8.192,-8.704c2.176,0 3.744,0.704 4.992,1.952l0,-1.312l4.096,0l0,24l-4.096,0l0,-9.184c-1.248,1.248 -2.816,1.952 -4.992,1.952c-5.12,0 -8.192,-4 -8.192,-8.704Zm4.224,0c0,2.816 1.76,4.864 4.512,4.864c1.888,0 3.456,-0.832 4.448,-2.304l0,-5.12c-1.088,-1.504 -2.624,-2.304 -4.448,-2.304c-2.752,0 -4.512,2.048 -4.512,4.864Zm28.552,1.088l0,-9.152l4.096,0l0,8.96c0,4.832 -2.816,7.808 -7.552,7.808c-4.736,0 -7.52,-2.976 -7.52,-7.808l0,-8.96l4.096,0l0,9.152c0,2.336 1.216,3.776 3.456,3.776c2.208,0 3.424,-1.44 3.424,-3.776Zm23.443,4.352c-1.504,2.016 -4,3.264 -7.04,3.264c-5.728,0 -8.96,-4 -8.96,-8.704c0,-4.768 3.008,-8.704 8.288,-8.704c4.48,0 7.424,3.04 7.424,7.264c0,0.896 -0.128,1.728 -0.256,2.272l-11.296,0c0.384,3.008 2.24,4.224 4.768,4.224c1.76,0 3.296,-0.768 4.16,-1.92l2.912,2.304Zm-7.808,-10.816c-2.08,0 -3.456,1.152 -3.904,3.264l7.424,0c-0.064,-1.632 -1.248,-3.264 -3.52,-3.264Zm9.864,11.104l2.688,-2.432c0.992,1.248 2.176,2.144 3.712,2.144c1.312,0 1.984,-0.768 1.984,-1.728c0,-2.816 -7.712,-1.76 -7.712,-7.424c0,-2.848 2.4,-4.992 5.76,-4.992c2.464,0 4.704,1.184 5.856,2.752l-2.688,2.368c-0.832,-1.024 -1.888,-1.856 -3.136,-1.856c-1.28,0 -1.888,0.704 -1.888,1.536c0,2.752 7.712,1.792 7.712,7.36c-0.064,3.392 -2.784,5.248 -5.824,5.248c-2.88,0 -4.928,-1.152 -6.464,-2.976Z" style="fill:#161616;fill-rule:nonzero;"/><path d="M56.135,503.979c1.88,0 3.42,-0.92 4.36,-2.28l1.5,1.16c-1.28,1.74 -3.34,2.88 -5.86,2.88c-4.38,0 -7.36,-3.4 -7.36,-7.4c0,-4 2.98,-7.4 7.36,-7.4c2.52,0 4.58,1.16 5.86,2.88l-1.5,1.16c-0.94,-1.36 -2.48,-2.28 -4.36,-2.28c-3.16,0 -5.42,2.52 -5.42,5.64c0,3.12 2.26,5.64 5.42,5.64Zm12.961,-9.12c3.24,0 5.46,2.5 5.46,5.44c0,2.94 -2.22,5.44 -5.46,5.44c-3.26,0 -5.46,-2.5 -5.46,-5.44c0,-2.94 2.2,-5.44 5.46,-5.44Zm0.02,9.28c2.1,0 3.64,-1.76 3.64,-3.84c0,-2.1 -1.54,-3.84 -3.64,-3.84c-2.16,0 -3.7,1.74 -3.7,3.84c0,2.1 1.54,3.84 3.7,3.84Zm8.173,1.2l0,-10.08l1.7,0l0,1.1c0.76,-0.88 1.76,-1.5 3.16,-1.5c1.46,0 2.66,0.66 3.28,1.94c0.8,-1.1 1.86,-1.94 3.6,-1.94c2.16,0 3.74,1.44 3.74,4.18l0,6.3l-1.7,0l0,-6.24c0,-1.68 -0.94,-2.64 -2.38,-2.64c-1.28,0 -2.18,0.72 -2.84,1.9c0.02,0.22 0.04,0.44 0.04,0.68l0,6.3l-1.7,0l0,-6.24c0,-1.68 -0.92,-2.64 -2.38,-2.64c-1.38,0 -2.24,0.86 -2.82,1.9l0,6.98l-1.7,0Zm18.906,0l0,-10.08l1.7,0l0,1.1c0.76,-0.88 1.76,-1.5 3.16,-1.5c1.46,0 2.66,0.66 3.28,1.94c0.8,-1.1 1.86,-1.94 3.6,-1.94c2.16,0 3.74,1.44 3.74,4.18l0,6.3l-1.7,0l0,-6.24c0,-1.68 -0.94,-2.64 -2.38,-2.64c-1.28,0 -2.18,0.72 -2.84,1.9c0.02,0.22 0.04,0.44 0.04,0.68l0,6.3l-1.7,0l0,-6.24c0,-1.68 -0.92,-2.64 -2.38,-2.64c-1.38,0 -2.24,0.86 -2.82,1.9l0,6.98l-1.7,0Zm25.926,-4.32l0,-5.76l1.7,0l0,5.7c0,3.02 -1.74,4.78 -4.48,4.78c-2.72,0 -4.46,-1.76 -4.46,-4.78l0,-5.7l1.7,0l0,5.76c0,1.98 1.06,3.12 2.78,3.12c1.68,0 2.76,-1.14 2.76,-3.12Zm5.051,4.32l0,-10.08l1.7,0l0,1.14c0.82,-0.9 1.86,-1.54 3.36,-1.54c2.26,0 3.94,1.52 3.94,4.38l0,6.1l-1.7,0l0,-6.04c0,-1.8 -1.02,-2.84 -2.58,-2.84c-1.46,0 -2.38,0.84 -3.02,1.9l0,6.98l-1.7,0Zm21.382,-1.66c-0.94,1.26 -2.44,2.06 -4.32,2.06c-3.4,0 -5.5,-2.5 -5.5,-5.44c0,-3.06 1.96,-5.44 5.08,-5.44c2.74,0 4.52,1.92 4.52,4.4c0,0.4 -0.06,0.78 -0.12,1.06l-7.74,0c0.06,2.42 1.6,3.88 3.76,3.88c1.3,0 2.4,-0.6 3.06,-1.5l1.26,0.98Zm-4.78,-7.38c-1.66,0 -2.82,0.98 -3.18,2.72l6.04,0c-0.06,-1.48 -1.08,-2.72 -2.86,-2.72Zm6.283,7.66l1.2,-1.02c0.7,0.88 1.54,1.38 2.56,1.38c1.12,0 1.76,-0.68 1.76,-1.56c0,-2.26 -5.04,-1.46 -5.04,-5.02c0,-1.58 1.34,-2.88 3.28,-2.88c1.44,0 2.68,0.68 3.38,1.66l-1.18,1c-0.54,-0.76 -1.3,-1.24 -2.18,-1.24c-1.08,0 -1.66,0.64 -1.66,1.42c0,2.26 5.06,1.54 5.06,4.98c-0.02,1.88 -1.52,3.06 -3.4,3.06c-1.6,0 -2.86,-0.64 -3.78,-1.78Zm15.337,1.38l0,-10.08l1.7,0l0,1.14c0.82,-0.9 1.86,-1.54 3.36,-1.54c2.26,0 3.94,1.52 3.94,4.38l0,6.1l-1.7,0l0,-6.04c0,-1.8 -1.02,-2.84 -2.58,-2.84c-1.46,0 -2.38,0.84 -3.02,1.9l0,6.98l-1.7,0Zm21.382,-1.66c-0.94,1.26 -2.44,2.06 -4.32,2.06c-3.4,0 -5.5,-2.5 -5.5,-5.44c0,-3.06 1.96,-5.44 5.08,-5.44c2.74,0 4.52,1.92 4.52,4.4c0,0.4 -0.06,0.78 -0.12,1.06l-7.74,0c0.06,2.42 1.6,3.88 3.76,3.88c1.3,0 2.4,-0.6 3.06,-1.5l1.26,0.98Zm-4.78,-7.38c-1.66,0 -2.82,0.98 -3.18,2.72l6.04,0c-0.06,-1.48 -1.08,-2.72 -2.86,-2.72Zm11.972,4c0,-2.94 2.02,-5.44 5.18,-5.44c1.5,0 2.68,0.58 3.58,1.6l0,-6.12l1.7,0l0,15l-1.7,0l0,-1.2c-0.9,1.02 -2.08,1.6 -3.58,1.6c-3.16,0 -5.18,-2.5 -5.18,-5.44Zm1.8,0c0,2.14 1.44,3.84 3.58,3.84c1.4,0 2.64,-0.68 3.38,-1.86l0,-3.96c-0.78,-1.2 -2,-1.86 -3.38,-1.86c-2.14,0 -3.58,1.7 -3.58,3.84Zm13.104,-7.66c-0.66,0 -1.2,-0.54 -1.2,-1.2c0,-0.64 0.54,-1.18 1.2,-1.18c0.66,0 1.18,0.54 1.18,1.18c0,0.66 -0.52,1.2 -1.18,1.2Zm-0.86,12.7l0,-10.08l1.7,0l0,10.08l-1.7,0Zm4.134,-1.38l1.2,-1.02c0.7,0.88 1.54,1.38 2.56,1.38c1.12,0 1.76,-0.68 1.76,-1.56c0,-2.26 -5.04,-1.46 -5.04,-5.02c0,-1.58 1.34,-2.88 3.28,-2.88c1.44,0 2.68,0.68 3.38,1.66l-1.18,1c-0.54,-0.76 -1.3,-1.24 -2.18,-1.24c-1.08,0 -1.66,0.64 -1.66,1.42c0,2.26 5.06,1.54 5.06,4.98c-0.02,1.88 -1.52,3.06 -3.4,3.06c-1.6,0 -2.86,-0.64 -3.78,-1.78Zm9.948,6.3l0,-15l1.7,0l0,1.2c0.9,-1.02 2.08,-1.6 3.58,-1.6c3.16,0 5.18,2.5 5.18,5.44c0,2.94 -2.02,5.44 -5.18,5.44c-1.5,0 -2.68,-0.58 -3.58,-1.6l0,6.12l-1.7,0Zm5.08,-13.8c-1.4,0 -2.62,0.68 -3.38,1.88l0,3.92c0.78,1.22 2,1.88 3.38,1.88c2.14,0 3.6,-1.7 3.6,-3.84c0,-2.14 -1.46,-3.84 -3.6,-3.84Zm12.82,-1.6c3.24,0 5.46,2.5 5.46,5.44c0,2.94 -2.22,5.44 -5.46,5.44c-3.26,0 -5.46,-2.5 -5.46,-5.44c0,-2.94 2.2,-5.44 5.46,-5.44Zm0.02,9.28c2.1,0 3.64,-1.76 3.64,-3.84c0,-2.1 -1.54,-3.84 -3.64,-3.84c-2.16,0 -3.7,1.74 -3.7,3.84c0,2.1 1.54,3.84 3.7,3.84Zm6.82,-0.18l1.2,-1.02c0.7,0.88 1.54,1.38 2.56,1.38c1.12,0 1.76,-0.68 1.76,-1.56c0,-2.26 -5.04,-1.46 -5.04,-5.02c0,-1.58 1.34,-2.88 3.28,-2.88c1.44,0 2.68,0.68 3.38,1.66l-1.18,1c-0.54,-0.76 -1.3,-1.24 -2.18,-1.24c-1.08,0 -1.66,0.64 -1.66,1.42c0,2.26 5.06,1.54 5.06,4.98c-0.02,1.88 -1.52,3.06 -3.4,3.06c-1.6,0 -2.86,-0.64 -3.78,-1.78Zm12.648,1.66c-1.98,0 -3.32,-1.1 -3.32,-2.82c0,-1.52 1.16,-2.6 3.3,-2.96l3.4,-0.56l0,-0.7c0,-1.4 -1,-2.2 -2.44,-2.2c-1.16,0 -2.1,0.54 -2.72,1.4l-1.28,-0.98c0.88,-1.2 2.3,-1.94 4.06,-1.94c2.56,0 4.08,1.5 4.08,3.72l0,6.76l-1.7,0l0,-1.28c-0.76,0.98 -2.08,1.56 -3.38,1.56Zm-1.6,-2.88c0,0.86 0.7,1.48 1.88,1.48c1.34,0 2.44,-0.64 3.1,-1.72l0,-1.98l-2.98,0.5c-1.38,0.24 -2,0.86 -2,1.72Zm10.09,2.6l0,-10.08l1.7,0l0,1.14c0.82,-0.9 1.86,-1.54 3.36,-1.54c2.26,0 3.94,1.52 3.94,4.38l0,6.1l-1.7,0l0,-6.04c0,-1.8 -1.02,-2.84 -2.58,-2.84c-1.46,0 -2.38,0.84 -3.02,1.9l0,6.98l-1.7,0Zm13.002,-3.38l0,-5.16l-1.9,0l0,-1.54l1.9,0l0,-2.52l1.72,0l0,2.52l3.5,0l0,1.54l-3.5,0l0,5.16c0,1.58 0.8,2.02 2.02,2.02c0.66,0 1.12,-0.08 1.5,-0.24l0,1.52c-0.48,0.2 -1.02,0.28 -1.74,0.28c-2.24,0 -3.5,-1.12 -3.5,-3.58Zm13.209,8.3l0,-15l1.7,0l0,1.2c0.9,-1.02 2.08,-1.6 3.58,-1.6c3.16,0 5.18,2.5 5.18,5.44c0,2.94 -2.02,5.44 -5.18,5.44c-1.5,0 -2.68,-0.58 -3.58,-1.6l0,6.12l-1.7,0Zm5.08,-13.8c-1.4,0 -2.62,0.68 -3.38,1.88l0,3.92c0.78,1.22 2,1.88 3.38,1.88c2.14,0 3.6,-1.7 3.6,-3.84c0,-2.14 -1.46,-3.84 -3.6,-3.84Zm10.688,9.16c-1.98,0 -3.32,-1.1 -3.32,-2.82c0,-1.52 1.16,-2.6 3.3,-2.96l3.4,-0.56l0,-0.7c0,-1.4 -1,-2.2 -2.44,-2.2c-1.16,0 -2.1,0.54 -2.72,1.4l-1.28,-0.98c0.88,-1.2 2.3,-1.94 4.06,-1.94c2.56,0 4.08,1.5 4.08,3.72l0,6.76l-1.7,0l0,-1.28c-0.76,0.98 -2.08,1.56 -3.38,1.56Zm-1.6,-2.88c0,0.86 0.7,1.48 1.88,1.48c1.34,0 2.44,-0.64 3.1,-1.72l0,-1.98l-2.98,0.5c-1.38,0.24 -2,0.86 -2,1.72Zm9.01,1.22l1.2,-1.02c0.7,0.88 1.54,1.38 2.56,1.38c1.12,0 1.76,-0.68 1.76,-1.56c0,-2.26 -5.04,-1.46 -5.04,-5.02c0,-1.58 1.34,-2.88 3.28,-2.88c1.44,0 2.68,0.68 3.38,1.66l-1.18,1c-0.54,-0.76 -1.3,-1.24 -2.18,-1.24c-1.08,0 -1.66,0.64 -1.66,1.42c0,2.26 5.06,1.54 5.06,4.98c-0.02,1.88 -1.52,3.06 -3.4,3.06c-1.6,0 -2.86,-0.64 -3.78,-1.78Zm14.478,-3.66c0,-2.94 2.02,-5.44 5.18,-5.44c1.5,0 2.68,0.58 3.58,1.6l0,-6.12l1.7,0l0,15l-1.7,0l0,-1.2c-0.9,1.02 -2.08,1.6 -3.58,1.6c-3.16,0 -5.18,-2.5 -5.18,-5.44Zm1.8,0c0,2.14 1.44,3.84 3.58,3.84c1.4,0 2.64,-0.68 3.38,-1.86l0,-3.96c-0.78,-1.2 -2,-1.86 -3.38,-1.86c-2.14,0 -3.58,1.7 -3.58,3.84Zm12.982,-3.6l-1.58,0l1.7,-5.36l1.94,0l-2.06,5.36Zm11.36,4.32l0,-5.76l1.7,0l0,5.7c0,3.02 -1.74,4.78 -4.48,4.78c-2.72,0 -4.46,-1.76 -4.46,-4.78l0,-5.7l1.7,0l0,5.76c0,1.98 1.06,3.12 2.78,3.12c1.68,0 2.76,-1.14 2.76,-3.12Zm5.05,4.32l0,-10.08l1.7,0l0,1.14c0.82,-0.9 1.86,-1.54 3.36,-1.54c2.26,0 3.94,1.52 3.94,4.38l0,6.1l-1.7,0l0,-6.04c0,-1.8 -1.02,-2.84 -2.58,-2.84c-1.46,0 -2.38,0.84 -3.02,1.9l0,6.98l-1.7,0Zm21.382,-1.66c-0.94,1.26 -2.44,2.06 -4.32,2.06c-3.4,0 -5.5,-2.5 -5.5,-5.44c0,-3.06 1.96,-5.44 5.08,-5.44c2.74,0 4.52,1.92 4.52,4.4c0,0.4 -0.06,0.78 -0.12,1.06l-7.74,0c0.06,2.42 1.6,3.88 3.76,3.88c1.3,0 2.4,-0.6 3.06,-1.5l1.26,0.98Zm-4.78,-7.38c-1.66,0 -2.82,0.98 -3.18,2.72l6.04,0c-0.06,-1.48 -1.08,-2.72 -2.86,-2.72Zm13.252,9.04l0,-14l3.46,0c2.68,0 4.3,1.42 4.3,3.64c0,1.26 -0.58,2.28 -1.68,2.88c1.64,0.58 2.52,1.86 2.52,3.46c0,2.46 -1.82,4.02 -4.8,4.02l-3.8,0Zm3.48,-12.4l-1.6,0l0,4.22l1.6,0c1.48,0 2.34,-0.76 2.34,-2.14c0,-1.32 -0.86,-2.08 -2.34,-2.08Zm0.4,5.82l-2,0l0,4.98l2,0c1.74,0 2.78,-0.92 2.78,-2.5c0,-1.58 -1.04,-2.48 -2.78,-2.48Zm10.432,6.86c-1.98,0 -3.32,-1.1 -3.32,-2.82c0,-1.52 1.16,-2.6 3.3,-2.96l3.4,-0.56l0,-0.7c0,-1.4 -1,-2.2 -2.44,-2.2c-1.16,0 -2.1,0.54 -2.72,1.4l-1.28,-0.98c0.88,-1.2 2.3,-1.94 4.06,-1.94c2.56,0 4.08,1.5 4.08,3.72l0,6.76l-1.7,0l0,-1.28c-0.76,0.98 -2.08,1.56 -3.38,1.56Zm-1.6,-2.88c0,0.86 0.7,1.48 1.88,1.48c1.34,0 2.44,-0.64 3.1,-1.72l0,-1.98l-2.98,0.5c-1.38,0.24 -2,0.86 -2,1.72Zm9.01,1.22l1.2,-1.02c0.7,0.88 1.54,1.38 2.56,1.38c1.12,0 1.76,-0.68 1.76,-1.56c0,-2.26 -5.04,-1.46 -5.04,-5.02c0,-1.58 1.34,-2.88 3.28,-2.88c1.44,0 2.68,0.68 3.38,1.66l-1.18,1c-0.54,-0.76 -1.3,-1.24 -2.18,-1.24c-1.08,0 -1.66,0.64 -1.66,1.42c0,2.26 5.06,1.54 5.06,4.98c-0.02,1.88 -1.52,3.06 -3.4,3.06c-1.6,0 -2.86,-0.64 -3.78,-1.78Zm18.79,-0.28c-0.94,1.26 -2.44,2.06 -4.32,2.06c-3.4,0 -5.5,-2.5 -5.5,-5.44c0,-3.06 1.96,-5.44 5.08,-5.44c2.74,0 4.52,1.92 4.52,4.4c0,0.4 -0.06,0.78 -0.12,1.06l-7.74,0c0.06,2.42 1.6,3.88 3.76,3.88c1.3,0 2.4,-0.6 3.06,-1.5l1.26,0.98Zm-4.78,-7.38c-1.66,0 -2.82,0.98 -3.18,2.72l6.04,0c-0.06,-1.48 -1.08,-2.72 -2.86,-2.72Zm11.572,9.04l5.58,-14l2.52,0l5.58,14l-2,0l-1.62,-4.12l-6.44,0l-1.62,4.12l-2,0Zm4.24,-5.74l5.2,0l-2.6,-6.62l-2.6,6.62Zm10.867,0.7c0,-2.94 2.02,-5.44 5.18,-5.44c1.5,0 2.68,0.58 3.58,1.6l0,-6.12l1.7,0l0,15l-1.7,0l0,-1.2c-0.9,1.02 -2.08,1.6 -3.58,1.6c-3.16,0 -5.18,-2.5 -5.18,-5.44Zm1.8,0c0,2.14 1.44,3.84 3.58,3.84c1.4,0 2.64,-0.68 3.38,-1.86l0,-3.96c-0.78,-1.2 -2,-1.86 -3.38,-1.86c-2.14,0 -3.58,1.7 -3.58,3.84Zm12.244,5.04l0,-10.08l1.7,0l0,1.26c0.74,-0.88 1.66,-1.46 2.94,-1.46c0.32,0 0.62,0.04 0.86,0.12l0,1.66c-0.3,-0.08 -0.6,-0.12 -1,-0.12c-1.32,0 -2.18,0.68 -2.8,1.7l0,6.92l-1.7,0Zm16.303,-1.66c-0.94,1.26 -2.44,2.06 -4.32,2.06c-3.4,0 -5.5,-2.5 -5.5,-5.44c0,-3.06 1.96,-5.44 5.08,-5.44c2.74,0 4.52,1.92 4.52,4.4c0,0.4 -0.06,0.78 -0.12,1.06l-7.74,0c0.06,2.42 1.6,3.88 3.76,3.88c1.3,0 2.4,-0.6 3.06,-1.5l1.26,0.98Zm-4.78,-7.38c-1.66,0 -2.82,0.98 -3.18,2.72l6.04,0c-0.06,-1.48 -1.08,-2.72 -2.86,-2.72Zm6.283,7.66l1.2,-1.02c0.7,0.88 1.54,1.38 2.56,1.38c1.12,0 1.76,-0.68 1.76,-1.56c0,-2.26 -5.04,-1.46 -5.04,-5.02c0,-1.58 1.34,-2.88 3.28,-2.88c1.44,0 2.68,0.68 3.38,1.66l-1.18,1c-0.54,-0.76 -1.3,-1.24 -2.18,-1.24c-1.08,0 -1.66,0.64 -1.66,1.42c0,2.26 5.06,1.54 5.06,4.98c-0.02,1.88 -1.52,3.06 -3.4,3.06c-1.6,0 -2.86,-0.64 -3.78,-1.78Zm8.789,0l1.2,-1.02c0.7,0.88 1.54,1.38 2.56,1.38c1.12,0 1.76,-0.68 1.76,-1.56c0,-2.26 -5.04,-1.46 -5.04,-5.02c0,-1.58 1.34,-2.88 3.28,-2.88c1.44,0 2.68,0.68 3.38,1.66l-1.18,1c-0.54,-0.76 -1.3,-1.24 -2.18,-1.24c-1.08,0 -1.66,0.64 -1.66,1.42c0,2.26 5.06,1.54 5.06,4.98c-0.02,1.88 -1.52,3.06 -3.4,3.06c-1.6,0 -2.86,-0.64 -3.78,-1.78Zm18.79,-0.28c-0.94,1.26 -2.44,2.06 -4.32,2.06c-3.4,0 -5.5,-2.5 -5.5,-5.44c0,-3.06 1.96,-5.44 5.08,-5.44c2.74,0 4.52,1.92 4.52,4.4c0,0.4 -0.06,0.78 -0.12,1.06l-7.74,0c0.06,2.42 1.6,3.88 3.76,3.88c1.3,0 2.4,-0.6 3.06,-1.5l1.26,0.98Zm-4.78,-7.38c-1.66,0 -2.82,0.98 -3.18,2.72l6.04,0c-0.06,-1.48 -1.08,-2.72 -2.86,-2.72Zm13.252,9.04l0,-14l1.88,0l0,12.28l5.64,0l0,1.72l-7.52,0Zm14.512,-10.48c3.24,0 5.46,2.5 5.46,5.44c0,2.94 -2.22,5.44 -5.46,5.44c-3.26,0 -5.46,-2.5 -5.46,-5.44c0,-2.94 2.2,-5.44 5.46,-5.44Zm0.02,9.28c2.1,0 3.64,-1.76 3.64,-3.84c0,-2.1 -1.54,-3.84 -3.64,-3.84c-2.16,0 -3.7,1.74 -3.7,3.84c0,2.1 1.54,3.84 3.7,3.84Zm12.911,0c1.24,0 2.26,-0.6 2.88,-1.48l1.34,1.02c-0.94,1.26 -2.4,2.06 -4.24,2.06c-3.34,0 -5.48,-2.5 -5.48,-5.44c0,-2.94 2.14,-5.44 5.48,-5.44c1.82,0 3.3,0.82 4.24,2.06l-1.34,1.02c-0.62,-0.88 -1.64,-1.48 -2.9,-1.48c-2.16,0 -3.7,1.7 -3.7,3.84c0,2.16 1.54,3.84 3.72,3.84Zm9.155,1.48c-1.98,0 -3.32,-1.1 -3.32,-2.82c0,-1.52 1.16,-2.6 3.3,-2.96l3.4,-0.56l0,-0.7c0,-1.4 -1,-2.2 -2.44,-2.2c-1.16,0 -2.1,0.54 -2.72,1.4l-1.28,-0.98c0.88,-1.2 2.3,-1.94 4.06,-1.94c2.56,0 4.08,1.5 4.08,3.72l0,6.76l-1.7,0l0,-1.28c-0.76,0.98 -2.08,1.56 -3.38,1.56Zm-1.6,-2.88c0,0.86 0.7,1.48 1.88,1.48c1.34,0 2.44,-0.64 3.1,-1.72l0,-1.98l-2.98,0.5c-1.38,0.24 -2,0.86 -2,1.72Zm10.09,2.6l0,-15l1.7,0l0,15l-1.7,0Zm14.253,-1.66c-0.94,1.26 -2.44,2.06 -4.32,2.06c-3.4,0 -5.5,-2.5 -5.5,-5.44c0,-3.06 1.96,-5.44 5.08,-5.44c2.74,0 4.52,1.92 4.52,4.4c0,0.4 -0.06,0.78 -0.12,1.06l-7.74,0c0.06,2.42 1.6,3.88 3.76,3.88c1.3,0 2.4,-0.6 3.06,-1.5l1.26,0.98Zm-4.78,-7.38c-1.66,0 -2.82,0.98 -3.18,2.72l6.04,0c-0.06,-1.48 -1.08,-2.72 -2.86,-2.72Z" style="fill:#666;fill-rule:nonzero;"/><path d="M112.711,204.345l0,-14l2.84,0l0,14l-2.84,0Zm13.393,-2.26c1.32,0 2.46,-0.46 3.26,-1.22l0,-2.44l-3.56,0l0,-2.42l6.4,0l0,5.88c-1.3,1.74 -3.48,2.86 -6.1,2.86c-4.54,0 -7.64,-3.4 -7.64,-7.4c0,-4 3.02,-7.4 7.44,-7.4c2.54,0 4.62,1.14 5.9,2.84l-2.24,1.74c-0.8,-1.14 -2.06,-1.92 -3.66,-1.92c-2.64,0 -4.52,2.06 -4.52,4.74c0,2.68 1.98,4.74 4.72,4.74Zm9.459,2.26l0,-14l3.64,0l6.26,10.12l0,-10.12l2.84,0l0,14l-3.64,0l-6.26,-10.12l0,10.12l-2.84,0Z" style="fill:#666;fill-rule:nonzero;"/><path d="M277.09,204.345l0,-14l2.84,0l0,11.42l5.32,0l0,2.58l-8.16,0Zm13.628,0.3c-2.02,0 -3.4,-1.16 -3.4,-3.02c0,-1.52 1.18,-2.66 3.34,-3.02l3.08,-0.52l0,-0.26c0,-1.06 -0.8,-1.74 -1.96,-1.74c-0.98,0 -1.74,0.46 -2.28,1.2l-1.86,-1.42c0.9,-1.24 2.38,-2 4.22,-2c2.92,0 4.42,1.74 4.42,3.96l0,6.52l-2.54,0l0,-0.98c-0.64,0.78 -1.84,1.28 -3.02,1.28Zm-0.88,-3.14c0,0.68 0.54,1.12 1.4,1.12c1.16,0 2,-0.54 2.5,-1.34l0,-1.42l-2.4,0.4c-1.06,0.18 -1.5,0.62 -1.5,1.24Zm15.279,2.84l0,-14l4.62,0c3.08,0 4.96,1.58 4.96,4.18c0,2.58 -1.88,4.16 -4.96,4.16l-1.78,0l0,5.66l-2.84,0Zm4.74,-11.64l-1.9,0l0,3.62l1.9,0c1.2,0 1.92,-0.7 1.92,-1.84c0,-1.06 -0.72,-1.78 -1.92,-1.78Zm11.044,1.16c3.28,0 5.52,2.42 5.52,5.44c0,3.02 -2.24,5.44 -5.52,5.44c-3.28,0 -5.52,-2.42 -5.52,-5.44c0,-3.02 2.24,-5.44 5.52,-5.44Zm0.04,8.48c1.62,0 2.84,-1.3 2.84,-3.04c0,-1.76 -1.22,-3.04 -2.84,-3.04c-1.68,0 -2.92,1.28 -2.92,3.04c0,1.76 1.24,3.04 2.92,3.04Zm6.584,0.54l1.68,-1.52c0.62,0.78 1.36,1.34 2.32,1.34c0.82,0 1.24,-0.48 1.24,-1.08c0,-1.76 -4.82,-1.1 -4.82,-4.64c0,-1.78 1.5,-3.12 3.6,-3.12c1.54,0 2.94,0.74 3.66,1.72l-1.68,1.48c-0.52,-0.64 -1.18,-1.16 -1.96,-1.16c-0.8,0 -1.18,0.44 -1.18,0.96c0,1.72 4.82,1.12 4.82,4.6c-0.04,2.12 -1.74,3.28 -3.64,3.28c-1.8,0 -3.08,-0.72 -4.04,-1.86Zm10.817,-2.22l0,-4.12l-1.88,0l0,-2.28l1.88,0l0,-2.52l2.56,0l0,2.52l3.08,0l0,2.28l-3.08,0l0,4.12c0,1.12 0.6,1.56 1.6,1.56c0.7,0 1.16,-0.08 1.5,-0.22l0,2.22c-0.5,0.22 -1.1,0.32 -1.94,0.32c-2.52,0 -3.72,-1.42 -3.72,-3.88Zm17,2.04c-0.94,1.26 -2.5,2.04 -4.4,2.04c-3.58,0 -5.6,-2.5 -5.6,-5.44c0,-2.98 1.88,-5.44 5.18,-5.44c2.8,0 4.64,1.9 4.64,4.54c0,0.56 -0.08,1.08 -0.16,1.42l-7.06,0c0.24,1.88 1.4,2.64 2.98,2.64c1.1,0 2.06,-0.48 2.6,-1.2l1.82,1.44Zm-4.88,-6.76c-1.3,0 -2.16,0.72 -2.44,2.04l4.64,0c-0.04,-1.02 -0.78,-2.04 -2.2,-2.04Z" style="fill:#666;fill-rule:nonzero;"/><path d="M429.374,202.085c1.32,0 2.46,-0.46 3.26,-1.22l0,-2.44l-3.56,0l0,-2.42l6.4,0l0,5.88c-1.3,1.74 -3.48,2.86 -6.1,2.86c-4.54,0 -7.64,-3.4 -7.64,-7.4c0,-4 3.02,-7.4 7.44,-7.4c2.54,0 4.62,1.14 5.9,2.84l-2.24,1.74c-0.8,-1.14 -2.06,-1.92 -3.66,-1.92c-2.64,0 -4.52,2.06 -4.52,4.74c0,2.68 1.98,4.74 4.72,4.74Zm15.715,-2.1l0,-5.72l2.56,0l0,5.6c0,3.02 -1.76,4.88 -4.72,4.88c-2.96,0 -4.7,-1.86 -4.7,-4.88l0,-5.6l2.56,0l0,5.72c0,1.46 0.76,2.36 2.16,2.36c1.38,0 2.14,-0.9 2.14,-2.36Zm6.651,-7.48c-0.9,0 -1.66,-0.76 -1.66,-1.66c0,-0.9 0.76,-1.66 1.66,-1.66c0.9,0 1.64,0.76 1.64,1.66c0,0.9 -0.74,1.66 -1.64,1.66Zm-1.28,11.84l0,-10.08l2.54,0l0,10.08l-2.54,0Zm10.426,-2c1,0 1.8,-0.46 2.28,-1.16l1.98,1.52c-0.94,1.24 -2.42,2.04 -4.26,2.04c-3.48,0 -5.56,-2.5 -5.56,-5.44c0,-2.94 2.08,-5.44 5.56,-5.44c1.84,0 3.32,0.8 4.26,2.04l-1.98,1.52c-0.48,-0.7 -1.28,-1.16 -2.32,-1.16c-1.66,0 -2.88,1.28 -2.88,3.04c0,1.78 1.22,3.04 2.92,3.04Zm6.156,2l0,-15l2.54,0l0,5.72c0.7,-0.68 1.64,-1.2 2.98,-1.2c2.18,0 3.92,1.5 3.92,4.48l0,6l-2.56,0l0,-5.9c0,-1.34 -0.74,-2.18 -2,-2.18c-1.28,0 -1.96,0.86 -2.34,1.5l0,6.58l-2.54,0Zm21.605,-1.64c-0.94,1.26 -2.5,2.04 -4.4,2.04c-3.58,0 -5.6,-2.5 -5.6,-5.44c0,-2.98 1.88,-5.44 5.18,-5.44c2.8,0 4.64,1.9 4.64,4.54c0,0.56 -0.08,1.08 -0.16,1.42l-7.06,0c0.24,1.88 1.4,2.64 2.98,2.64c1.1,0 2.06,-0.48 2.6,-1.2l1.82,1.44Zm-4.88,-6.76c-1.3,0 -2.16,0.72 -2.44,2.04l4.64,0c-0.04,-1.02 -0.78,-2.04 -2.2,-2.04Zm7.802,4.72l0,-4.12l-1.88,0l0,-2.28l1.88,0l0,-2.52l2.56,0l0,2.52l3.08,0l0,2.28l-3.08,0l0,4.12c0,1.12 0.6,1.56 1.6,1.56c0.7,0 1.16,-0.08 1.5,-0.22l0,2.22c-0.5,0.22 -1.1,0.32 -1.94,0.32c-2.52,0 -3.72,-1.42 -3.72,-3.88Zm12.085,3.68l5.3,-14l3.72,0l5.3,14l-3.02,0l-1.34,-3.64l-5.6,0l-1.34,3.64l-3.02,0Zm5.24,-6.06l3.84,0l-1.92,-5.26l-1.92,5.26Zm10.378,1.02c0,-2.94 1.94,-5.44 5.12,-5.44c1.36,0 2.34,0.42 3.12,1.2l0,-5.72l2.56,0l0,15l-2.56,0l0,-0.8c-0.78,0.78 -1.76,1.2 -3.12,1.2c-3.18,0 -5.12,-2.5 -5.12,-5.44Zm2.66,0c0,1.76 1.1,3.04 2.82,3.04c1.14,0 2.08,-0.48 2.76,-1.4l0,-3.28c-0.68,-0.92 -1.62,-1.4 -2.76,-1.4c-1.72,0 -2.82,1.28 -2.82,3.04Zm11.185,5.04l0,-10.08l2.54,0l0,1c0.66,-0.68 1.52,-1.2 2.66,-1.2c0.34,0 0.64,0.06 0.88,0.14l0,2.5c-0.32,-0.08 -0.66,-0.14 -1.12,-0.14c-1.24,0 -2.04,0.68 -2.42,1.32l0,6.46l-2.54,0Zm16.975,-1.64c-0.94,1.26 -2.5,2.04 -4.4,2.04c-3.58,0 -5.6,-2.5 -5.6,-5.44c0,-2.98 1.88,-5.44 5.18,-5.44c2.8,0 4.64,1.9 4.64,4.54c0,0.56 -0.08,1.08 -0.16,1.42l-7.06,0c0.24,1.88 1.4,2.64 2.98,2.64c1.1,0 2.06,-0.48 2.6,-1.2l1.82,1.44Zm-4.88,-6.76c-1.3,0 -2.16,0.72 -2.44,2.04l4.64,0c-0.04,-1.02 -0.78,-2.04 -2.2,-2.04Zm6.165,6.94l1.68,-1.52c0.62,0.78 1.36,1.34 2.32,1.34c0.82,0 1.24,-0.48 1.24,-1.08c0,-1.76 -4.82,-1.1 -4.82,-4.64c0,-1.78 1.5,-3.12 3.6,-3.12c1.54,0 2.94,0.74 3.66,1.72l-1.68,1.48c-0.52,-0.64 -1.18,-1.16 -1.96,-1.16c-0.8,0 -1.18,0.44 -1.18,0.96c0,1.72 4.82,1.12 4.82,4.6c-0.04,2.12 -1.74,3.28 -3.64,3.28c-1.8,0 -3.08,-0.72 -4.04,-1.86Zm9.004,0l1.68,-1.52c0.62,0.78 1.36,1.34 2.32,1.34c0.82,0 1.24,-0.48 1.24,-1.08c0,-1.76 -4.82,-1.1 -4.82,-4.64c0,-1.78 1.5,-3.12 3.6,-3.12c1.54,0 2.94,0.74 3.66,1.72l-1.68,1.48c-0.52,-0.64 -1.18,-1.16 -1.96,-1.16c-0.8,0 -1.18,0.44 -1.18,0.96c0,1.72 4.82,1.12 4.82,4.6c-0.04,2.12 -1.74,3.28 -3.64,3.28c-1.8,0 -3.08,-0.72 -4.04,-1.86Zm19.262,-0.18c-0.94,1.26 -2.5,2.04 -4.4,2.04c-3.58,0 -5.6,-2.5 -5.6,-5.44c0,-2.98 1.88,-5.44 5.18,-5.44c2.8,0 4.64,1.9 4.64,4.54c0,0.56 -0.08,1.08 -0.16,1.42l-7.06,0c0.24,1.88 1.4,2.64 2.98,2.64c1.1,0 2.06,-0.48 2.6,-1.2l1.82,1.44Zm-4.88,-6.76c-1.3,0 -2.16,0.72 -2.44,2.04l4.64,0c-0.04,-1.02 -0.78,-2.04 -2.2,-2.04Z" style="fill:#666;fill-rule:nonzero;"/><path d="M130.504,280.454c25.511,0 46.191,-6.894 46.191,-15.397c0,-8.504 -20.68,-15.397 -46.191,-15.397c-25.51,0 -46.19,6.893 -46.19,15.397c0,8.503 20.68,15.397 46.19,15.397Z" style="fill:#ededed;fill-rule:nonzero;"/><path d="M84.314,265.057l0,71.852c0,4.083 4.866,8 13.529,10.887c8.662,2.888 20.411,4.51 32.661,4.51c12.251,0 24,-1.622 32.662,-4.51c8.663,-2.887 13.529,-6.804 13.529,-10.887l0,-71.852" style="fill:#ededed;fill-rule:nonzero;"/><path d="M84.314,300.983c0,4.083 4.866,8 13.529,10.887c8.662,2.888 20.411,4.51 32.661,4.51c12.251,0 24,-1.622 32.662,-4.51c8.663,-2.887 13.529,-6.804 13.529,-10.887" style="fill:#ededed;fill-rule:nonzero;"/><path d="M176.695,265.057c0,8.503 -20.68,15.397 -46.191,15.397c-25.51,0 -46.19,-6.894 -46.19,-15.397m92.381,0c0,-8.504 -20.68,-15.397 -46.191,-15.397c-25.51,0 -46.19,6.893 -46.19,15.397m92.381,0l0,71.852c0,4.083 -4.866,8 -13.529,10.887c-8.662,2.888 -20.411,4.51 -32.662,4.51c-12.25,0 -23.999,-1.622 -32.661,-4.51c-8.663,-2.887 -13.529,-6.804 -13.529,-10.887l0,-71.852m0,35.926c0,4.083 4.866,8 13.529,10.887c8.662,2.888 20.411,4.51 32.661,4.51c12.251,0 24,-1.622 32.662,-4.51c8.663,-2.887 13.529,-6.804 13.529,-10.887" style="fill:none;fill-rule:nonzero;stroke:#929292;stroke-width:4px;"/><path d="M315.577,280.454c25.51,0 46.191,-6.894 46.191,-15.397c0,-8.504 -20.681,-15.397 -46.191,-15.397c-25.511,0 -46.191,6.893 -46.191,15.397c0,8.503 20.68,15.397 46.191,15.397Z" style="fill:#ededed;fill-rule:nonzero;"/><path d="M269.386,265.057l0,71.852c0,4.083 4.866,8 13.529,10.887c8.662,2.888 20.411,4.51 32.662,4.51c12.25,0 23.999,-1.622 32.662,-4.51c8.662,-2.887 13.529,-6.804 13.529,-10.887l0,-71.852" style="fill:#ededed;fill-rule:nonzero;"/><path d="M269.386,300.983c0,4.083 4.866,8 13.529,10.887c8.662,2.888 20.411,4.51 32.662,4.51c12.25,0 23.999,-1.622 32.662,-4.51c8.662,-2.887 13.529,-6.804 13.529,-10.887" style="fill:#ededed;fill-rule:nonzero;"/><path d="M361.768,265.057c0,8.503 -20.681,15.397 -46.191,15.397c-25.511,0 -46.191,-6.894 -46.191,-15.397m92.382,0c0,-8.504 -20.681,-15.397 -46.191,-15.397c-25.511,0 -46.191,6.893 -46.191,15.397m92.382,0l0,71.852c0,4.083 -4.867,8 -13.529,10.887c-8.663,2.888 -20.412,4.51 -32.662,4.51c-12.251,0 -24,-1.622 -32.662,-4.51c-8.663,-2.887 -13.529,-6.804 -13.529,-10.887l0,-71.852m0,35.926c0,4.083 4.866,8 13.529,10.887c8.662,2.888 20.411,4.51 32.662,4.51c12.25,0 23.999,-1.622 32.662,-4.51c8.662,-2.887 13.529,-6.804 13.529,-10.887" style="fill:none;fill-rule:nonzero;stroke:#929292;stroke-width:4px;"/><path d="M500.649,280.454c25.511,0 46.191,-6.894 46.191,-15.397c0,-8.504 -20.68,-15.397 -46.191,-15.397c-25.51,0 -46.191,6.893 -46.191,15.397c0,8.503 20.681,15.397 46.191,15.397Z" style="fill:#ededed;fill-rule:nonzero;"/><path d="M454.458,265.057l0,71.852c0,4.083 4.867,8 13.529,10.887c8.663,2.888 20.412,4.51 32.662,4.51c12.251,0 24,-1.622 32.662,-4.51c8.663,-2.887 13.529,-6.804 13.529,-10.887l0,-71.852" style="fill:#ededed;fill-rule:nonzero;"/><path d="M454.458,300.983c0,4.083 4.867,8 13.529,10.887c8.663,2.888 20.412,4.51 32.662,4.51c12.251,0 24,-1.622 32.662,-4.51c8.663,-2.887 13.529,-6.804 13.529,-10.887" style="fill:#ededed;fill-rule:nonzero;"/><path d="M546.84,265.057c0,8.503 -20.68,15.397 -46.191,15.397c-25.51,0 -46.191,-6.894 -46.191,-15.397m92.382,0c0,-8.504 -20.68,-15.397 -46.191,-15.397c-25.51,0 -46.191,6.893 -46.191,15.397m92.382,0l0,71.852c0,4.083 -4.866,8 -13.529,10.887c-8.662,2.888 -20.411,4.51 -32.662,4.51c-12.25,0 -23.999,-1.622 -32.662,-4.51c-8.662,-2.887 -13.529,-6.804 -13.529,-10.887l0,-71.852m0,35.926c0,4.083 4.867,8 13.529,10.887c8.663,2.888 20.412,4.51 32.662,4.51c12.251,0 24,-1.622 32.662,-4.51c8.663,-2.887 13.529,-6.804 13.529,-10.887" style="fill:none;fill-rule:nonzero;stroke:#929292;stroke-width:4px;"/><path d="M102.029,389.616l0,-14l5.5,0c4.44,0 7.44,3.22 7.44,7c0,3.78 -3,7 -7.44,7l-5.5,0Zm5.54,-11.42l-2.7,0l0,8.84l2.7,0c2.6,0 4.48,-1.94 4.48,-4.42c0,-2.5 -1.88,-4.42 -4.48,-4.42Zm17.131,9.16c1.32,0 2.46,-0.46 3.26,-1.22l0,-2.44l-3.56,0l0,-2.42l6.4,0l0,5.88c-1.3,1.74 -3.48,2.86 -6.1,2.86c-4.54,0 -7.64,-3.4 -7.64,-7.4c0,-4 3.02,-7.4 7.44,-7.4c2.54,0 4.62,1.14 5.9,2.84l-2.24,1.74c-0.8,-1.14 -2.06,-1.92 -3.66,-1.92c-2.64,0 -4.52,2.06 -4.52,4.74c0,2.68 1.98,4.74 4.72,4.74Zm9.458,2.26l0,-14l8.16,0l0,2.36l-5.32,0l0,3.32l4.52,0l0,2.36l-4.52,0l0,5.96l-2.84,0Zm10.86,0l0,-14l2.84,0l0,14l-2.84,0Zm6.953,0l0,-14l4.62,0c3.08,0 4.96,1.58 4.96,4.18c0,2.58 -1.88,4.16 -4.96,4.16l-1.78,0l0,5.66l-2.84,0Zm4.74,-11.64l-1.9,0l0,3.62l1.9,0c1.2,0 1.92,-0.7 1.92,-1.84c0,-1.06 -0.72,-1.78 -1.92,-1.78Z" style="fill:#666;fill-rule:nonzero;"/><path d="M283.037,389.616l5.3,-14l3.72,0l5.3,14l-3.02,0l-1.34,-3.64l-5.6,0l-1.34,3.64l-3.02,0Zm5.24,-6.06l3.84,0l-1.92,-5.26l-1.92,5.26Zm11.442,6.06l0,-14l4.28,0c3.08,0 4.98,1.58 4.98,4.18c0,1.7 -0.82,2.96 -2.26,3.62l4.38,6.2l-3.34,0l-3.74,-5.66l-1.46,0l0,5.66l-2.84,0Zm4.44,-11.64l-1.6,0l0,3.62l1.6,0c1.2,0 1.9,-0.7 1.9,-1.84c0,-1.06 -0.7,-1.78 -1.9,-1.78Zm14.964,9.38c1.6,0 2.86,-0.78 3.66,-1.92l2.24,1.72c-1.28,1.74 -3.36,2.86 -5.9,2.86c-4.42,0 -7.44,-3.4 -7.44,-7.4c0,-4 3.02,-7.4 7.44,-7.4c2.54,0 4.62,1.14 5.9,2.84l-2.24,1.74c-0.8,-1.14 -2.06,-1.92 -3.66,-1.92c-2.64,0 -4.52,2.06 -4.52,4.74c0,2.68 1.88,4.74 4.52,4.74Zm8.565,2.26l0,-14l8.16,0l0,2.36l-5.32,0l0,3.32l4.52,0l0,2.36l-4.52,0l0,3.6l5.32,0l0,2.36l-8.16,0Zm11.66,0l0,-14l4.62,0c3.08,0 4.96,1.58 4.96,4.18c0,2.58 -1.88,4.16 -4.96,4.16l-1.78,0l0,5.66l-2.84,0Zm4.74,-11.64l-1.9,0l0,3.62l1.9,0c1.2,0 1.92,-0.7 1.92,-1.84c0,-1.06 -0.72,-1.78 -1.92,-1.78Z" style="fill:#666;fill-rule:nonzero;"/><path d="M478.775,387.676l2.06,-1.9c0.84,1.08 1.96,1.72 3.1,1.72c1.12,0 1.8,-0.6 1.8,-1.6c0,-2.58 -6.36,-1.88 -6.36,-6.62c0,-2.22 1.84,-4.06 4.52,-4.06c2.1,0 3.7,0.94 4.9,2.36l-2.08,1.88c-0.82,-1.06 -1.74,-1.76 -2.8,-1.76c-1,0 -1.66,0.64 -1.66,1.48c0,2.54 6.36,1.82 6.36,6.62c-0.04,2.64 -2.08,4.22 -4.66,4.22c-2.36,0 -3.94,-0.86 -5.18,-2.34Zm13.018,1.94l0,-14l5.5,0c4.44,0 7.44,3.22 7.44,7c0,3.78 -3,7 -7.44,7l-5.5,0Zm5.54,-11.42l-2.7,0l0,8.84l2.7,0c2.6,0 4.48,-1.94 4.48,-4.42c0,-2.5 -1.88,-4.42 -4.48,-4.42Zm10.339,11.42l0,-14l2.84,0l0,14l-2.84,0Zm5.693,-1.94l2.06,-1.9c0.84,1.08 1.96,1.72 3.1,1.72c1.12,0 1.8,-0.6 1.8,-1.6c0,-2.58 -6.36,-1.88 -6.36,-6.62c0,-2.22 1.84,-4.06 4.52,-4.06c2.1,0 3.7,0.94 4.9,2.36l-2.08,1.88c-0.82,-1.06 -1.74,-1.76 -2.8,-1.76c-1,0 -1.66,0.64 -1.66,1.48c0,2.54 6.36,1.82 6.36,6.62c-0.04,2.64 -2.08,4.22 -4.66,4.22c-2.36,0 -3.94,-0.86 -5.18,-2.34Z" style="fill:#666;fill-rule:nonzero;"/><path d="M862.061,398.339l0,-28l8.24,0c5.84,0 9.4,2.88 9.4,7.6c0,2.28 -1.04,4.24 -3,5.52c2.96,1.32 4.6,3.72 4.6,6.64c0,5.12 -3.96,8.24 -10.4,8.24l-8.84,0Zm8.36,-23.28l-2.68,0l0,6.32l2.68,0c2.16,0 3.44,-1.16 3.44,-3.2c0,-1.96 -1.28,-3.12 -3.44,-3.12Zm0.8,11.04l-3.48,0l0,7.52l3.48,0c2.64,0 4.24,-1.4 4.24,-3.76c0,-2.4 -1.6,-3.76 -4.24,-3.76Zm20.908,12.84c-4.04,0 -6.8,-2.32 -6.8,-6.04c0,-3.04 2.36,-5.32 6.68,-6.04l6.16,-1.04l0,-0.52c0,-2.12 -1.6,-3.48 -3.92,-3.48c-1.96,0 -3.48,0.92 -4.56,2.4l-3.72,-2.84c1.8,-2.48 4.76,-4 8.44,-4c5.84,0 8.84,3.48 8.84,7.92l0,13.04l-5.08,0l0,-1.96c-1.28,1.56 -3.68,2.56 -6.04,2.56Zm-1.76,-6.28c0,1.36 1.08,2.24 2.8,2.24c2.32,0 4,-1.08 5,-2.68l0,-2.84l-4.8,0.8c-2.12,0.36 -3,1.24 -3,2.48Zm16.936,2.76l3.36,-3.04c1.24,1.56 2.72,2.68 4.64,2.68c1.64,0 2.48,-0.96 2.48,-2.16c0,-3.52 -9.64,-2.2 -9.64,-9.28c0,-3.56 3,-6.24 7.2,-6.24c3.08,0 5.88,1.48 7.32,3.44l-3.36,2.96c-1.04,-1.28 -2.36,-2.32 -3.92,-2.32c-1.6,0 -2.36,0.88 -2.36,1.92c0,3.44 9.64,2.24 9.64,9.2c-0.08,4.24 -3.48,6.56 -7.28,6.56c-3.6,0 -6.16,-1.44 -8.08,-3.72Zm38.52,-0.36c-1.88,2.52 -5,4.08 -8.8,4.08c-7.16,0 -11.2,-5 -11.2,-10.88c0,-5.96 3.76,-10.88 10.36,-10.88c5.6,0 9.28,3.8 9.28,9.08c0,1.12 -0.16,2.16 -0.32,2.84l-14.12,0c0.48,3.76 2.8,5.28 5.96,5.28c2.2,0 4.12,-0.96 5.2,-2.4l3.64,2.88Zm-9.76,-13.52c-2.6,0 -4.32,1.44 -4.88,4.08l9.28,0c-0.08,-2.04 -1.56,-4.08 -4.4,-4.08Zm22.71,16.8l10.6,-28l7.44,0l10.6,28l-6.04,0l-2.68,-7.28l-11.2,0l-2.68,7.28l-6.04,0Zm10.48,-12.12l7.68,0l-3.84,-10.52l-3.84,10.52Zm20.75,2.04c0,-5.88 3.88,-10.88 10.24,-10.88c2.72,0 4.68,0.84 6.24,2.4l0,-11.44l5.12,0l0,30l-5.12,0l0,-1.6c-1.56,1.56 -3.52,2.4 -6.24,2.4c-6.36,0 -10.24,-5 -10.24,-10.88Zm5.32,0c0,3.52 2.2,6.08 5.64,6.08c2.28,0 4.16,-0.96 5.52,-2.8l0,-6.56c-1.36,-1.84 -3.24,-2.8 -5.52,-2.8c-3.44,0 -5.64,2.56 -5.64,6.08Zm22.37,10.08l0,-20.16l5.08,0l0,2c1.32,-1.36 3.04,-2.4 5.32,-2.4c0.68,0 1.28,0.12 1.76,0.28l0,5c-0.64,-0.16 -1.32,-0.28 -2.24,-0.28c-2.48,0 -4.08,1.36 -4.84,2.64l0,12.92l-5.08,0Zm33.95,-3.28c-1.88,2.52 -5,4.08 -8.8,4.08c-7.16,0 -11.2,-5 -11.2,-10.88c0,-5.96 3.76,-10.88 10.36,-10.88c5.6,0 9.28,3.8 9.28,9.08c0,1.12 -0.16,2.16 -0.32,2.84l-14.12,0c0.48,3.76 2.8,5.28 5.96,5.28c2.2,0 4.12,-0.96 5.2,-2.4l3.64,2.88Zm-9.76,-13.52c-2.6,0 -4.32,1.44 -4.88,4.08l9.28,0c-0.08,-2.04 -1.56,-4.08 -4.4,-4.08Zm12.34,13.88l3.36,-3.04c1.24,1.56 2.72,2.68 4.64,2.68c1.64,0 2.48,-0.96 2.48,-2.16c0,-3.52 -9.64,-2.2 -9.64,-9.28c0,-3.56 3,-6.24 7.2,-6.24c3.08,0 5.88,1.48 7.32,3.44l-3.36,2.96c-1.04,-1.28 -2.36,-2.32 -3.92,-2.32c-1.6,0 -2.36,0.88 -2.36,1.92c0,3.44 9.64,2.24 9.64,9.2c-0.08,4.24 -3.48,6.56 -7.28,6.56c-3.6,0 -6.16,-1.44 -8.08,-3.72Zm18,0l3.36,-3.04c1.24,1.56 2.72,2.68 4.64,2.68c1.64,0 2.48,-0.96 2.48,-2.16c0,-3.52 -9.64,-2.2 -9.64,-9.28c0,-3.56 3,-6.24 7.2,-6.24c3.08,0 5.88,1.48 7.32,3.44l-3.36,2.96c-1.04,-1.28 -2.36,-2.32 -3.92,-2.32c-1.6,0 -2.36,0.88 -2.36,1.92c0,3.44 9.64,2.24 9.64,9.2c-0.08,4.24 -3.48,6.56 -7.28,6.56c-3.6,0 -6.16,-1.44 -8.08,-3.72Zm38.53,-0.36c-1.88,2.52 -5,4.08 -8.8,4.08c-7.16,0 -11.2,-5 -11.2,-10.88c0,-5.96 3.76,-10.88 10.36,-10.88c5.6,0 9.28,3.8 9.28,9.08c0,1.12 -0.16,2.16 -0.32,2.84l-14.12,0c0.48,3.76 2.8,5.28 5.96,5.28c2.2,0 4.12,-0.96 5.2,-2.4l3.64,2.88Zm-9.76,-13.52c-2.6,0 -4.32,1.44 -4.88,4.08l9.28,0c-0.08,-2.04 -1.56,-4.08 -4.4,-4.08Zm-207.352,64.8l0,-28l7.28,0l12.522,20.24l0,-20.24l5.68,0l0,28l-7.28,0l-12.522,-20.24l0,20.24l-5.68,0Zm38.042,0.6c-4.04,0 -6.8,-2.32 -6.8,-6.04c0,-3.04 2.36,-5.32 6.68,-6.04l6.16,-1.04l0,-0.52c0,-2.12 -1.6,-3.48 -3.92,-3.48c-1.96,0 -3.48,0.92 -4.56,2.4l-3.72,-2.84c1.8,-2.48 4.76,-4 8.44,-4c5.84,0 8.84,3.48 8.84,7.92l0,13.04l-5.08,0l0,-1.96c-1.28,1.56 -3.68,2.56 -6.04,2.56Zm-1.76,-6.28c0,1.36 1.08,2.24 2.8,2.24c2.32,0 4,-1.08 5,-2.68l0,-2.84l-4.8,0.8c-2.12,0.36 -3,1.24 -3,2.48Zm19.97,-1.68l0,-8.24l-3.76,0l0,-4.56l3.76,0l0,-5.04l5.12,0l0,5.04l6.16,0l0,4.56l-6.16,0l0,8.24c0,2.24 1.2,3.12 3.2,3.12c1.4,0 2.32,-0.16 3,-0.44l0,4.44c-1,0.44 -2.2,0.64 -3.88,0.64c-5.04,0 -7.44,-2.84 -7.44,-7.76Zm18.39,-16.32c-1.8,0 -3.32,-1.52 -3.32,-3.32c0,-1.8 1.52,-3.32 3.32,-3.32c1.8,0 3.28,1.52 3.28,3.32c0,1.8 -1.48,3.32 -3.28,3.32Zm-2.56,23.68l0,-20.16l5.08,0l0,20.16l-5.08,0Zm20.77,-20.96c6.56,0 11.04,4.84 11.04,10.88c0,6.04 -4.48,10.88 -11.04,10.88c-6.56,0 -11.04,-4.84 -11.04,-10.88c0,-6.04 4.48,-10.88 11.04,-10.88Zm0.08,16.96c3.24,0 5.68,-2.6 5.68,-6.08c0,-3.52 -2.44,-6.08 -5.68,-6.08c-3.36,0 -5.84,2.56 -5.84,6.08c0,3.52 2.48,6.08 5.84,6.08Zm15.6,4l0,-20.16l5.08,0l0,1.6c1.4,-1.36 3.28,-2.4 5.96,-2.4c4.36,0 7.84,3 7.84,8.96l0,12l-5.12,0l0,-11.8c0,-2.68 -1.52,-4.36 -4,-4.36c-2.56,0 -3.92,1.72 -4.68,3l0,13.16l-5.08,0Zm30.33,0.6c-4.04,0 -6.8,-2.32 -6.8,-6.04c0,-3.04 2.36,-5.32 6.68,-6.04l6.16,-1.04l0,-0.52c0,-2.12 -1.6,-3.48 -3.92,-3.48c-1.96,0 -3.48,0.92 -4.56,2.4l-3.72,-2.84c1.8,-2.48 4.76,-4 8.44,-4c5.84,0 8.84,3.48 8.84,7.92l0,13.04l-5.08,0l0,-1.96c-1.28,1.56 -3.68,2.56 -6.04,2.56Zm-1.76,-6.28c0,1.36 1.08,2.24 2.8,2.24c2.32,0 4,-1.08 5,-2.68l0,-2.84l-4.8,0.8c-2.12,0.36 -3,1.24 -3,2.48Zm18.69,5.68l0,-30l5.08,0l0,30l-5.08,0Zm29.73,-3.28c-1.88,2.52 -5,4.08 -8.8,4.08c-7.16,0 -11.2,-5 -11.2,-10.88c0,-5.96 3.76,-10.88 10.36,-10.88c5.6,0 9.28,3.8 9.28,9.08c0,1.12 -0.16,2.16 -0.32,2.84l-14.12,0c0.48,3.76 2.8,5.28 5.96,5.28c2.2,0 4.12,-0.96 5.2,-2.4l3.64,2.88Zm-9.76,-13.52c-2.6,0 -4.32,1.44 -4.88,4.08l9.28,0c-0.08,-2.04 -1.56,-4.08 -4.4,-4.08Z" style="fill:#000091;fill-rule:nonzero;"/><path d="M842.709,489.339l0,-14l3.46,0c2.68,0 4.3,1.42 4.3,3.64c0,1.26 -0.58,2.28 -1.68,2.88c1.64,0.58 2.52,1.86 2.52,3.46c0,2.46 -1.82,4.02 -4.8,4.02l-3.8,0Zm3.48,-12.4l-1.6,0l0,4.22l1.6,0c1.48,0 2.34,-0.76 2.34,-2.14c0,-1.32 -0.86,-2.08 -2.34,-2.08Zm0.4,5.82l-2,0l0,4.98l2,0c1.74,0 2.78,-0.92 2.78,-2.5c0,-1.58 -1.04,-2.48 -2.78,-2.48Zm10.433,6.86c-1.98,0 -3.32,-1.1 -3.32,-2.82c0,-1.52 1.16,-2.6 3.3,-2.96l3.4,-0.56l0,-0.7c0,-1.4 -1,-2.2 -2.44,-2.2c-1.16,0 -2.1,0.54 -2.72,1.4l-1.28,-0.98c0.88,-1.2 2.3,-1.94 4.06,-1.94c2.56,0 4.08,1.5 4.08,3.72l0,6.76l-1.7,0l0,-1.28c-0.76,0.98 -2.08,1.56 -3.38,1.56Zm-1.6,-2.88c0,0.86 0.7,1.48 1.88,1.48c1.34,0 2.44,-0.64 3.1,-1.72l0,-1.98l-2.98,0.5c-1.38,0.24 -2,0.86 -2,1.72Zm9.01,1.22l1.2,-1.02c0.7,0.88 1.54,1.38 2.56,1.38c1.12,0 1.76,-0.68 1.76,-1.56c0,-2.26 -5.04,-1.46 -5.04,-5.02c0,-1.58 1.34,-2.88 3.28,-2.88c1.44,0 2.68,0.68 3.38,1.66l-1.18,1c-0.54,-0.76 -1.3,-1.24 -2.18,-1.24c-1.08,0 -1.66,0.64 -1.66,1.42c0,2.26 5.06,1.54 5.06,4.98c-0.02,1.88 -1.52,3.06 -3.4,3.06c-1.6,0 -2.86,-0.64 -3.78,-1.78Zm18.79,-0.28c-0.94,1.26 -2.44,2.06 -4.32,2.06c-3.4,0 -5.5,-2.5 -5.5,-5.44c0,-3.06 1.96,-5.44 5.08,-5.44c2.74,0 4.52,1.92 4.52,4.4c0,0.4 -0.06,0.78 -0.12,1.06l-7.74,0c0.06,2.42 1.6,3.88 3.76,3.88c1.3,0 2.4,-0.6 3.06,-1.5l1.26,0.98Zm-4.78,-7.38c-1.66,0 -2.82,0.98 -3.18,2.72l6.04,0c-0.06,-1.48 -1.08,-2.72 -2.86,-2.72Zm11.972,4c0,-2.94 2.02,-5.44 5.18,-5.44c1.5,0 2.68,0.58 3.58,1.6l0,-6.12l1.7,0l0,15l-1.7,0l0,-1.2c-0.9,1.02 -2.08,1.6 -3.58,1.6c-3.16,0 -5.18,-2.5 -5.18,-5.44Zm1.8,0c0,2.14 1.44,3.84 3.58,3.84c1.4,0 2.64,-0.68 3.38,-1.86l0,-3.96c-0.78,-1.2 -2,-1.86 -3.38,-1.86c-2.14,0 -3.58,1.7 -3.58,3.84Zm21.201,3.38c-0.94,1.26 -2.44,2.06 -4.32,2.06c-3.398,0 -5.498,-2.5 -5.498,-5.44c0,-3.06 1.96,-5.44 5.078,-5.44c2.74,0 4.52,1.92 4.52,4.4c0,0.4 -0.06,0.78 -0.12,1.06l-7.738,0c0.06,2.42 1.598,3.88 3.758,3.88c1.3,0 2.4,-0.6 3.06,-1.5l1.26,0.98Zm-4.78,-7.38c-1.66,0 -2.818,0.98 -3.178,2.72l6.038,0c-0.06,-1.48 -1.08,-2.72 -2.86,-2.72Zm11.97,4c0,-2.94 2.02,-5.44 5.18,-5.44c1.5,0 2.68,0.58 3.58,1.6l0,-6.12l1.7,0l0,15l-1.7,0l0,-1.2c-0.9,1.02 -2.08,1.6 -3.58,1.6c-3.16,0 -5.18,-2.5 -5.18,-5.44Zm1.8,0c0,2.14 1.44,3.84 3.58,3.84c1.4,0 2.64,-0.68 3.38,-1.86l0,-3.96c-0.78,-1.2 -2,-1.86 -3.38,-1.86c-2.14,0 -3.58,1.7 -3.58,3.84Zm16.85,-5.44c3.24,0 5.46,2.5 5.46,5.44c0,2.94 -2.22,5.44 -5.46,5.44c-3.26,0 -5.46,-2.5 -5.46,-5.44c0,-2.94 2.2,-5.44 5.46,-5.44Zm0.02,9.28c2.1,0 3.64,-1.76 3.64,-3.84c0,-2.1 -1.54,-3.84 -3.64,-3.84c-2.16,0 -3.7,1.74 -3.7,3.84c0,2.1 1.54,3.84 3.7,3.84Zm8.17,1.2l0,-10.08l1.7,0l0,1.14c0.82,-0.9 1.86,-1.54 3.36,-1.54c2.26,0 3.94,1.52 3.94,4.38l0,6.1l-1.7,0l0,-6.04c0,-1.8 -1.02,-2.84 -2.58,-2.84c-1.46,0 -2.38,0.84 -3.02,1.9l0,6.98l-1.7,0Zm12.42,0l0,-10.08l1.7,0l0,1.14c0.82,-0.9 1.86,-1.54 3.36,-1.54c2.26,0 3.94,1.52 3.94,4.38l0,6.1l-1.7,0l0,-6.04c0,-1.8 -1.02,-2.84 -2.58,-2.84c-1.46,0 -2.38,0.84 -3.02,1.9l0,6.98l-1.7,0Zm17.54,-11.68l-1.66,0l2.08,-3.32l1.92,0l-2.34,3.32Zm3.84,10.02c-0.94,1.26 -2.44,2.06 -4.32,2.06c-3.4,0 -5.5,-2.5 -5.5,-5.44c0,-3.06 1.96,-5.44 5.08,-5.44c2.74,0 4.52,1.92 4.52,4.4c0,0.4 -0.06,0.78 -0.12,1.06l-7.74,0c0.06,2.42 1.6,3.88 3.76,3.88c1.3,0 2.4,-0.6 3.06,-1.5l1.26,0.98Zm-4.78,-7.38c-1.66,0 -2.82,0.98 -3.18,2.72l6.04,0c-0.06,-1.48 -1.08,-2.72 -2.86,-2.72Zm16.37,7.38c-0.94,1.26 -2.44,2.06 -4.32,2.06c-3.4,0 -5.5,-2.5 -5.5,-5.44c0,-3.06 1.96,-5.44 5.08,-5.44c2.74,0 4.52,1.92 4.52,4.4c0,0.4 -0.06,0.78 -0.12,1.06l-7.74,0c0.06,2.42 1.6,3.88 3.76,3.88c1.3,0 2.4,-0.6 3.06,-1.5l1.26,0.98Zm-4.78,-7.38c-1.66,0 -2.82,0.98 -3.18,2.72l6.04,0c-0.06,-1.48 -1.08,-2.72 -2.86,-2.72Zm6.28,7.66l1.2,-1.02c0.7,0.88 1.54,1.38 2.56,1.38c1.12,0 1.76,-0.68 1.76,-1.56c0,-2.26 -5.04,-1.46 -5.04,-5.02c0,-1.58 1.34,-2.88 3.28,-2.88c1.44,0 2.68,0.68 3.38,1.66l-1.18,1c-0.54,-0.76 -1.3,-1.24 -2.18,-1.24c-1.08,0 -1.66,0.64 -1.66,1.42c0,2.26 5.06,1.54 5.06,4.98c-0.02,1.88 -1.52,3.06 -3.4,3.06c-1.6,0 -2.86,-0.64 -3.78,-1.78Zm14.48,-3.66c0,-2.94 2.02,-5.44 5.18,-5.44c1.5,0 2.68,0.58 3.58,1.6l0,-6.12l1.7,0l0,15l-1.7,0l0,-1.2c-0.9,1.02 -2.08,1.6 -3.58,1.6c-3.16,0 -5.18,-2.5 -5.18,-5.44Zm1.8,0c0,2.14 1.44,3.84 3.58,3.84c1.4,0 2.64,-0.68 3.38,-1.86l0,-3.96c-0.78,-1.2 -2,-1.86 -3.38,-1.86c-2.14,0 -3.58,1.7 -3.58,3.84Zm21.2,3.38c-0.94,1.26 -2.44,2.06 -4.32,2.06c-3.4,0 -5.5,-2.5 -5.5,-5.44c0,-3.06 1.96,-5.44 5.08,-5.44c2.74,0 4.52,1.92 4.52,4.4c0,0.4 -0.06,0.78 -0.12,1.06l-7.74,0c0.06,2.42 1.6,3.88 3.76,3.88c1.3,0 2.4,-0.6 3.06,-1.5l1.26,0.98Zm-4.78,-7.38c-1.66,0 -2.82,0.98 -3.18,2.72l6.04,0c-0.06,-1.48 -1.08,-2.72 -2.86,-2.72Zm12.83,9.04l0,-10.08l1.7,0l0,1.26c0.74,-0.88 1.66,-1.46 2.94,-1.46c0.32,0 0.62,0.04 0.86,0.12l0,1.66c-0.3,-0.08 -0.6,-0.12 -1,-0.12c-1.32,0 -2.18,0.68 -2.8,1.7l0,6.92l-1.7,0Zm12.47,-11.68l-1.66,0l2.08,-3.32l1.92,0l-2.34,3.32Zm3.84,10.02c-0.94,1.26 -2.44,2.06 -4.32,2.06c-3.4,0 -5.5,-2.5 -5.5,-5.44c0,-3.06 1.96,-5.44 5.08,-5.44c2.74,0 4.52,1.92 4.52,4.4c0,0.4 -0.06,0.78 -0.12,1.06l-7.74,0c0.06,2.42 1.6,3.88 3.76,3.88c1.3,0 2.4,-0.6 3.06,-1.5l1.26,0.98Zm-4.78,-7.38c-1.66,0 -2.82,0.98 -3.18,2.72l6.04,0c-0.06,-1.48 -1.08,-2.72 -2.86,-2.72Zm6.12,-1.04l1.9,0l0,-1.24c0,-2.14 1.38,-3.68 3.58,-3.68c0.92,0 1.66,0.26 2.22,0.58l-0.76,1.42c-0.38,-0.28 -0.84,-0.46 -1.42,-0.46c-1.14,0 -1.9,0.78 -1.9,2.1l0,1.28l3.5,0l0,1.54l-3.5,0l0,8.54l-1.72,0l0,-8.54l-1.9,0l0,-1.54Zm13.74,-1.6l-1.66,0l2.08,-3.32l1.92,0l-2.34,3.32Zm3.84,10.02c-0.94,1.26 -2.44,2.06 -4.32,2.06c-3.4,0 -5.5,-2.5 -5.5,-5.44c0,-3.06 1.96,-5.44 5.08,-5.44c2.74,0 4.52,1.92 4.52,4.4c0,0.4 -0.06,0.78 -0.12,1.06l-7.74,0c0.06,2.42 1.6,3.88 3.76,3.88c1.3,0 2.4,-0.6 3.06,-1.5l1.26,0.98Zm-4.78,-7.38c-1.66,0 -2.82,0.98 -3.18,2.72l6.04,0c-0.06,-1.48 -1.08,-2.72 -2.86,-2.72Zm7.44,9.04l0,-10.08l1.7,0l0,1.26c0.74,-0.88 1.66,-1.46 2.94,-1.46c0.32,0 0.62,0.04 0.86,0.12l0,1.66c-0.3,-0.08 -0.6,-0.12 -1,-0.12c-1.32,0 -2.18,0.68 -2.8,1.7l0,6.92l-1.7,0Zm16.31,-1.66c-0.94,1.26 -2.44,2.06 -4.32,2.06c-3.4,0 -5.5,-2.5 -5.5,-5.44c0,-3.06 1.96,-5.44 5.08,-5.44c2.74,0 4.52,1.92 4.52,4.4c0,0.4 -0.06,0.78 -0.12,1.06l-7.74,0c0.06,2.42 1.6,3.88 3.76,3.88c1.3,0 2.4,-0.6 3.06,-1.5l1.26,0.98Zm-4.78,-7.38c-1.66,0 -2.82,0.98 -3.18,2.72l6.04,0c-0.06,-1.48 -1.08,-2.72 -2.86,-2.72Zm7.44,9.04l0,-10.08l1.7,0l0,1.14c0.82,-0.9 1.86,-1.54 3.36,-1.54c2.26,0 3.94,1.52 3.94,4.38l0,6.1l-1.7,0l0,-6.04c0,-1.8 -1.02,-2.84 -2.58,-2.84c-1.46,0 -2.38,0.84 -3.02,1.9l0,6.98l-1.7,0Zm17.06,-1.2c1.24,0 2.26,-0.6 2.88,-1.48l1.34,1.02c-0.94,1.26 -2.4,2.06 -4.24,2.06c-3.34,0 -5.48,-2.5 -5.48,-5.44c0,-2.94 2.14,-5.44 5.48,-5.44c1.82,0 3.3,0.82 4.24,2.06l-1.34,1.02c-0.62,-0.88 -1.64,-1.48 -2.9,-1.48c-2.16,0 -3.7,1.7 -3.7,3.84c0,2.16 1.54,3.84 3.72,3.84Zm15.12,-0.46c-0.94,1.26 -2.44,2.06 -4.32,2.06c-3.4,0 -5.5,-2.5 -5.5,-5.44c0,-3.06 1.96,-5.44 5.08,-5.44c2.74,0 4.52,1.92 4.52,4.4c0,0.4 -0.06,0.78 -0.12,1.06l-7.74,0c0.06,2.42 1.6,3.88 3.76,3.88c1.3,0 2.4,-0.6 3.06,-1.5l1.26,0.98Zm-4.78,-7.38c-1.66,0 -2.82,0.98 -3.18,2.72l6.04,0c-0.06,-1.48 -1.08,-2.72 -2.86,-2.72Z" style="fill:#666;fill-rule:nonzero;"/><path d="M1515.73,184.139c14.81,0 26.82,-4.004 26.82,-8.943c0,-4.939 -12.01,-8.943 -26.82,-8.943c-14.82,0 -26.83,4.004 -26.83,8.943c0,4.939 12.01,8.943 26.83,8.943Z" style="fill:#e8edff;fill-rule:nonzero;"/><path d="M1488.89,175.196l0,41.734c0,2.372 2.82,4.646 7.85,6.323c5.04,1.678 11.86,2.62 18.98,2.62c7.11,0 13.93,-0.942 18.97,-2.62c5.03,-1.677 7.85,-3.951 7.85,-6.323l0,-41.734" style="fill:#e8edff;fill-rule:nonzero;"/><path d="M1488.89,196.063c0,2.372 2.82,4.647 7.85,6.324c5.04,1.677 11.86,2.619 18.98,2.619c7.11,0 13.93,-0.942 18.97,-2.619c5.03,-1.677 7.85,-3.952 7.85,-6.324" style="fill:#e8edff;fill-rule:nonzero;"/><path d="M1542.55,175.196c0,4.939 -12.01,8.943 -26.82,8.943c-14.82,0 -26.83,-4.004 -26.83,-8.943m53.65,0c0,-4.939 -12.01,-8.943 -26.82,-8.943c-14.82,0 -26.83,4.004 -26.83,8.943m53.65,0l0,41.734c0,2.372 -2.82,4.646 -7.85,6.323c-5.04,1.678 -11.86,2.62 -18.97,2.62c-7.12,0 -13.94,-0.942 -18.98,-2.62c-5.03,-1.677 -7.85,-3.951 -7.85,-6.323l0,-41.734m0,20.867c0,2.372 2.82,4.647 7.85,6.324c5.04,1.677 11.86,2.619 18.98,2.619c7.11,0 13.93,-0.942 18.97,-2.619c5.03,-1.677 7.85,-3.952 7.85,-6.324" style="fill:none;fill-rule:nonzero;stroke:#000091;stroke-width:3px;"/><path d="M1515.73,102.268c14.81,0 26.82,-4.004 26.82,-8.943c0,-4.939 -12.01,-8.943 -26.82,-8.943c-14.82,0 -26.83,4.004 -26.83,8.943c0,4.939 12.01,8.943 26.83,8.943Z" style="fill:#e8edff;fill-rule:nonzero;"/><path d="M1488.89,93.325l0,41.734c0,2.371 2.82,4.646 7.85,6.323c5.04,1.677 11.86,2.619 18.98,2.619c7.11,0 13.93,-0.942 18.97,-2.619c5.03,-1.677 7.85,-3.952 7.85,-6.323l0,-41.734" style="fill:#e8edff;fill-rule:nonzero;"/><path d="M1488.89,114.192c0,2.372 2.82,4.646 7.85,6.323c5.04,1.677 11.86,2.62 18.98,2.62c7.11,0 13.93,-0.943 18.97,-2.62c5.03,-1.677 7.85,-3.951 7.85,-6.323" style="fill:#e8edff;fill-rule:nonzero;"/><path d="M1542.55,93.325c0,4.939 -12.01,8.943 -26.82,8.943c-14.82,0 -26.83,-4.004 -26.83,-8.943m53.65,0c0,-4.939 -12.01,-8.943 -26.82,-8.943c-14.82,0 -26.83,4.004 -26.83,8.943m53.65,0l0,41.734c0,2.371 -2.82,4.646 -7.85,6.323c-5.04,1.677 -11.86,2.619 -18.97,2.619c-7.12,0 -13.94,-0.942 -18.98,-2.619c-5.03,-1.677 -7.85,-3.952 -7.85,-6.323l0,-41.734m0,20.867c0,2.372 2.82,4.646 7.85,6.323c5.04,1.677 11.86,2.62 18.98,2.62c7.11,0 13.93,-0.943 18.97,-2.62c5.03,-1.677 7.85,-3.951 7.85,-6.323" style="fill:none;fill-rule:nonzero;stroke:#000091;stroke-width:3px;"/><path d="M1589.77,184.139c14.82,0 26.83,-4.004 26.83,-8.943c0,-4.939 -12.01,-8.943 -26.83,-8.943c-14.82,0 -26.83,4.004 -26.83,8.943c0,4.939 12.01,8.943 26.83,8.943Z" style="fill:#e8edff;fill-rule:nonzero;"/><path d="M1562.93,175.196l0,41.734c0,2.372 2.83,4.646 7.86,6.323c5.03,1.678 11.85,2.62 18.97,2.62c7.11,0 13.94,-0.942 18.97,-2.62c5.03,-1.677 7.86,-3.951 7.86,-6.323l0,-41.734" style="fill:#e8edff;fill-rule:nonzero;"/><path d="M1562.93,196.063c0,2.372 2.83,4.647 7.86,6.324c5.03,1.677 11.85,2.619 18.97,2.619c7.11,0 13.94,-0.942 18.97,-2.619c5.03,-1.677 7.86,-3.952 7.86,-6.324" style="fill:#e8edff;fill-rule:nonzero;"/><path d="M1616.6,175.196c0,4.939 -12.01,8.943 -26.83,8.943c-14.82,0 -26.83,-4.004 -26.83,-8.943m53.66,0c0,-4.939 -12.01,-8.943 -26.83,-8.943c-14.82,0 -26.83,4.004 -26.83,8.943m53.66,0l0,41.734c0,2.372 -2.83,4.646 -7.86,6.323c-5.03,1.678 -11.86,2.62 -18.97,2.62c-7.12,0 -13.94,-0.942 -18.97,-2.62c-5.03,-1.677 -7.86,-3.951 -7.86,-6.323l0,-41.734m0,20.867c0,2.372 2.83,4.647 7.86,6.324c5.03,1.677 11.85,2.619 18.97,2.619c7.11,0 13.94,-0.942 18.97,-2.619c5.03,-1.677 7.86,-3.952 7.86,-6.324" style="fill:none;fill-rule:nonzero;stroke:#000091;stroke-width:3px;"/><path d="M1589.77,102.268c14.82,0 26.83,-4.004 26.83,-8.943c0,-4.939 -12.01,-8.943 -26.83,-8.943c-14.82,0 -26.83,4.004 -26.83,8.943c0,4.939 12.01,8.943 26.83,8.943Z" style="fill:#e8edff;fill-rule:nonzero;"/><path d="M1562.93,93.325l0,41.734c0,2.371 2.83,4.646 7.86,6.323c5.03,1.677 11.85,2.619 18.97,2.619c7.11,0 13.94,-0.942 18.97,-2.619c5.03,-1.677 7.86,-3.952 7.86,-6.323l0,-41.734" style="fill:#e8edff;fill-rule:nonzero;"/><path d="M1562.93,114.192c0,2.372 2.83,4.646 7.86,6.323c5.03,1.677 11.85,2.62 18.97,2.62c7.11,0 13.94,-0.943 18.97,-2.62c5.03,-1.677 7.86,-3.951 7.86,-6.323" style="fill:#e8edff;fill-rule:nonzero;"/><path d="M1616.6,93.325c0,4.939 -12.01,8.943 -26.83,8.943c-14.82,0 -26.83,-4.004 -26.83,-8.943m53.66,0c0,-4.939 -12.01,-8.943 -26.83,-8.943c-14.82,0 -26.83,4.004 -26.83,8.943m53.66,0l0,41.734c0,2.371 -2.83,4.646 -7.86,6.323c-5.03,1.677 -11.86,2.619 -18.97,2.619c-7.12,0 -13.94,-0.942 -18.97,-2.619c-5.03,-1.677 -7.86,-3.952 -7.86,-6.323l0,-41.734m0,20.867c0,2.372 2.83,4.646 7.86,6.323c5.03,1.677 11.85,2.62 18.97,2.62c7.11,0 13.94,-0.943 18.97,-2.62c5.03,-1.677 7.86,-3.951 7.86,-6.323" style="fill:none;fill-rule:nonzero;stroke:#000091;stroke-width:3px;"/><path d="M1663.81,184.139c14.82,0 26.83,-4.004 26.83,-8.943c0,-4.939 -12.01,-8.943 -26.83,-8.943c-14.81,0 -26.83,4.004 -26.83,8.943c0,4.939 12.02,8.943 26.83,8.943Z" style="fill:#e8edff;fill-rule:nonzero;"/><path d="M1636.98,175.196l0,41.734c0,2.372 2.83,4.646 7.86,6.323c5.03,1.678 11.86,2.62 18.97,2.62c7.12,0 13.94,-0.942 18.97,-2.62c5.03,-1.677 7.86,-3.951 7.86,-6.323l0,-41.734" style="fill:#e8edff;fill-rule:nonzero;"/><path d="M1636.98,196.063c0,2.372 2.83,4.647 7.86,6.324c5.03,1.677 11.86,2.619 18.97,2.619c7.12,0 13.94,-0.942 18.97,-2.619c5.03,-1.677 7.86,-3.952 7.86,-6.324" style="fill:#e8edff;fill-rule:nonzero;"/><path d="M1690.63,175.196c0,4.939 -12.01,8.943 -26.83,8.943c-14.81,0 -26.83,-4.004 -26.83,-8.943m53.66,0c0,-4.939 -12.01,-8.943 -26.83,-8.943c-14.81,0 -26.83,4.004 -26.83,8.943m53.66,0l0,41.734c0,2.372 -2.83,4.646 -7.86,6.323c-5.03,1.678 -11.85,2.62 -18.97,2.62c-7.11,0 -13.94,-0.942 -18.97,-2.62c-5.03,-1.677 -7.86,-3.951 -7.86,-6.323l0,-41.734m0,20.867c0,2.372 2.83,4.647 7.86,6.324c5.03,1.677 11.86,2.619 18.97,2.619c7.12,0 13.94,-0.942 18.97,-2.619c5.03,-1.677 7.86,-3.952 7.86,-6.324" style="fill:none;fill-rule:nonzero;stroke:#000091;stroke-width:3px;"/><path d="M1663.81,102.268c14.82,0 26.83,-4.004 26.83,-8.943c0,-4.939 -12.01,-8.943 -26.83,-8.943c-14.81,0 -26.83,4.004 -26.83,8.943c0,4.939 12.02,8.943 26.83,8.943Z" style="fill:#e8edff;fill-rule:nonzero;"/><path d="M1636.98,93.325l0,41.734c0,2.371 2.83,4.646 7.86,6.323c5.03,1.677 11.86,2.619 18.97,2.619c7.12,0 13.94,-0.942 18.97,-2.619c5.03,-1.677 7.86,-3.952 7.86,-6.323l0,-41.734" style="fill:#e8edff;fill-rule:nonzero;"/><path d="M1636.98,114.192c0,2.372 2.83,4.646 7.86,6.323c5.03,1.677 11.86,2.62 18.97,2.62c7.12,0 13.94,-0.943 18.97,-2.62c5.03,-1.677 7.86,-3.951 7.86,-6.323" style="fill:#e8edff;fill-rule:nonzero;"/><path d="M1690.63,93.325c0,4.939 -12.01,8.943 -26.83,8.943c-14.81,0 -26.83,-4.004 -26.83,-8.943m53.66,0c0,-4.939 -12.01,-8.943 -26.83,-8.943c-14.81,0 -26.83,4.004 -26.83,8.943m53.66,0l0,41.734c0,2.371 -2.83,4.646 -7.86,6.323c-5.03,1.677 -11.85,2.619 -18.97,2.619c-7.11,0 -13.94,-0.942 -18.97,-2.619c-5.03,-1.677 -7.86,-3.952 -7.86,-6.323l0,-41.734m0,20.867c0,2.372 2.83,4.646 7.86,6.323c5.03,1.677 11.86,2.62 18.97,2.62c7.12,0 13.94,-0.943 18.97,-2.62c5.03,-1.677 7.86,-3.951 7.86,-6.323" style="fill:none;fill-rule:nonzero;stroke:#000091;stroke-width:3px;"/><path d="M1737.86,184.139c14.81,0 26.82,-4.004 26.82,-8.943c0,-4.939 -12.01,-8.943 -26.82,-8.943c-14.82,0 -26.83,4.004 -26.83,8.943c0,4.939 12.01,8.943 26.83,8.943Z" style="fill:#e8edff;fill-rule:nonzero;"/><path d="M1711.03,175.196l0,41.734c0,2.372 2.82,4.646 7.86,6.323c5.03,1.678 11.85,2.62 18.97,2.62c7.11,0 13.94,-0.942 18.97,-2.62c5.03,-1.677 7.85,-3.951 7.85,-6.323l0,-41.734" style="fill:#e8edff;fill-rule:nonzero;"/><path d="M1711.03,196.063c0,2.372 2.82,4.647 7.86,6.324c5.03,1.677 11.85,2.619 18.97,2.619c7.11,0 13.94,-0.942 18.97,-2.619c5.03,-1.677 7.85,-3.952 7.85,-6.324" style="fill:#e8edff;fill-rule:nonzero;"/><path d="M1764.67,175.196c0,4.939 -12.01,8.943 -26.82,8.943c-14.82,0 -26.83,-4.004 -26.83,-8.943m53.65,0c0,-4.939 -12.01,-8.943 -26.82,-8.943c-14.82,0 -26.83,4.004 -26.83,8.943m53.65,0l0,41.734c0,2.372 -2.82,4.646 -7.85,6.323c-5.03,1.678 -11.86,2.62 -18.97,2.62c-7.12,0 -13.94,-0.942 -18.97,-2.62c-5.04,-1.677 -7.86,-3.951 -7.86,-6.323l0,-41.734m0,20.867c0,2.372 2.82,4.647 7.86,6.324c5.03,1.677 11.85,2.619 18.97,2.619c7.11,0 13.94,-0.942 18.97,-2.619c5.03,-1.677 7.85,-3.952 7.85,-6.324" style="fill:none;fill-rule:nonzero;stroke:#000091;stroke-width:3px;"/><path d="M1737.86,102.268c14.81,0 26.82,-4.004 26.82,-8.943c0,-4.939 -12.01,-8.943 -26.82,-8.943c-14.82,0 -26.83,4.004 -26.83,8.943c0,4.939 12.01,8.943 26.83,8.943Z" style="fill:#e8edff;fill-rule:nonzero;"/><path d="M1711.03,93.325l0,41.734c0,2.371 2.82,4.646 7.86,6.323c5.03,1.677 11.85,2.619 18.97,2.619c7.11,0 13.94,-0.942 18.97,-2.619c5.03,-1.677 7.85,-3.952 7.85,-6.323l0,-41.734" style="fill:#e8edff;fill-rule:nonzero;"/><path d="M1711.03,114.192c0,2.372 2.82,4.646 7.86,6.323c5.03,1.677 11.85,2.62 18.97,2.62c7.11,0 13.94,-0.943 18.97,-2.62c5.03,-1.677 7.85,-3.951 7.85,-6.323" style="fill:#e8edff;fill-rule:nonzero;"/><path d="M1764.67,93.325c0,4.939 -12.01,8.943 -26.82,8.943c-14.82,0 -26.83,-4.004 -26.83,-8.943m53.65,0c0,-4.939 -12.01,-8.943 -26.82,-8.943c-14.82,0 -26.83,4.004 -26.83,8.943m53.65,0l0,41.734c0,2.371 -2.82,4.646 -7.85,6.323c-5.03,1.677 -11.86,2.619 -18.97,2.619c-7.12,0 -13.94,-0.942 -18.97,-2.619c-5.04,-1.677 -7.86,-3.952 -7.86,-6.323l0,-41.734m0,20.867c0,2.372 2.82,4.646 7.86,6.323c5.03,1.677 11.85,2.62 18.97,2.62c7.11,0 13.94,-0.943 18.97,-2.62c5.03,-1.677 7.85,-3.951 7.85,-6.323" style="fill:none;fill-rule:nonzero;stroke:#000091;stroke-width:3px;"/><path d="M1663.81,266.011c14.82,0 26.83,-4.004 26.83,-8.943c0,-4.939 -12.01,-8.943 -26.83,-8.943c-14.81,0 -26.83,4.004 -26.83,8.943c0,4.939 12.02,8.943 26.83,8.943Z" style="fill:#e8edff;fill-rule:nonzero;"/><path d="M1636.98,257.068l0,41.733c0,2.372 2.83,4.647 7.86,6.324c5.03,1.677 11.86,2.619 18.97,2.619c7.12,0 13.94,-0.942 18.97,-2.619c5.03,-1.677 7.86,-3.952 7.86,-6.324l0,-41.733" style="fill:#e8edff;fill-rule:nonzero;"/><path d="M1636.98,277.935c0,2.371 2.83,4.646 7.86,6.323c5.03,1.677 11.86,2.62 18.97,2.62c7.12,0 13.94,-0.943 18.97,-2.62c5.03,-1.677 7.86,-3.952 7.86,-6.323" style="fill:#e8edff;fill-rule:nonzero;"/><path d="M1690.63,257.068c0,4.939 -12.01,8.943 -26.83,8.943c-14.81,0 -26.83,-4.004 -26.83,-8.943m53.66,0c0,-4.939 -12.01,-8.943 -26.83,-8.943c-14.81,0 -26.83,4.004 -26.83,8.943m53.66,0l0,41.733c0,2.372 -2.83,4.647 -7.86,6.324c-5.03,1.677 -11.85,2.619 -18.97,2.619c-7.11,0 -13.94,-0.942 -18.97,-2.619c-5.03,-1.677 -7.86,-3.952 -7.86,-6.324l0,-41.733m0,20.867c0,2.371 2.83,4.646 7.86,6.323c5.03,1.677 11.86,2.62 18.97,2.62c7.12,0 13.94,-0.943 18.97,-2.62c5.03,-1.677 7.86,-3.952 7.86,-6.323" style="fill:none;fill-rule:nonzero;stroke:#000091;stroke-width:3px;"/><path d="M1737.86,266.011c14.81,0 26.82,-4.004 26.82,-8.943c0,-4.939 -12.01,-8.943 -26.82,-8.943c-14.82,0 -26.83,4.004 -26.83,8.943c0,4.939 12.01,8.943 26.83,8.943Z" style="fill:#e8edff;fill-rule:nonzero;"/><path d="M1711.03,257.068l0,41.733c0,2.372 2.82,4.647 7.86,6.324c5.03,1.677 11.85,2.619 18.97,2.619c7.11,0 13.94,-0.942 18.97,-2.619c5.03,-1.677 7.85,-3.952 7.85,-6.324l0,-41.733" style="fill:#e8edff;fill-rule:nonzero;"/><path d="M1711.03,277.935c0,2.371 2.82,4.646 7.86,6.323c5.03,1.677 11.85,2.62 18.97,2.62c7.11,0 13.94,-0.943 18.97,-2.62c5.03,-1.677 7.85,-3.952 7.85,-6.323" style="fill:#e8edff;fill-rule:nonzero;"/><path d="M1764.67,257.068c0,4.939 -12.01,8.943 -26.82,8.943c-14.82,0 -26.83,-4.004 -26.83,-8.943m53.65,0c0,-4.939 -12.01,-8.943 -26.82,-8.943c-14.82,0 -26.83,4.004 -26.83,8.943m53.65,0l0,41.733c0,2.372 -2.82,4.647 -7.85,6.324c-5.03,1.677 -11.86,2.619 -18.97,2.619c-7.12,0 -13.94,-0.942 -18.97,-2.619c-5.04,-1.677 -7.86,-3.952 -7.86,-6.324l0,-41.733m0,20.867c0,2.371 2.82,4.646 7.86,6.323c5.03,1.677 11.85,2.62 18.97,2.62c7.11,0 13.94,-0.943 18.97,-2.62c5.03,-1.677 7.85,-3.952 7.85,-6.323" style="fill:none;fill-rule:nonzero;stroke:#000091;stroke-width:3px;"/><g opacity="0.25"><path d="M1663.81,347.882c14.82,0 26.83,-4.004 26.83,-8.943c0,-4.939 -12.01,-8.943 -26.83,-8.943c-14.81,0 -26.83,4.004 -26.83,8.943c0,4.939 12.02,8.943 26.83,8.943Z" style="fill:#e8edff;fill-rule:nonzero;"/><path d="M1636.98,338.939l0,41.734c0,2.372 2.83,4.646 7.86,6.323c5.03,1.677 11.86,2.62 18.97,2.62c7.12,0 13.94,-0.943 18.97,-2.62c5.03,-1.677 7.86,-3.951 7.86,-6.323l0,-41.734" style="fill:#e8edff;fill-rule:nonzero;"/><path d="M1636.98,359.806c0,2.372 2.83,4.646 7.86,6.324c5.03,1.677 11.86,2.619 18.97,2.619c7.12,0 13.94,-0.942 18.97,-2.619c5.03,-1.678 7.86,-3.952 7.86,-6.324" style="fill:#e8edff;fill-rule:nonzero;"/><path d="M1690.63,338.939c0,4.939 -12.01,8.943 -26.83,8.943c-14.81,0 -26.83,-4.004 -26.83,-8.943m53.66,0c0,-4.939 -12.01,-8.943 -26.83,-8.943c-14.81,0 -26.83,4.004 -26.83,8.943m53.66,0l0,41.734c0,2.372 -2.83,4.646 -7.86,6.323c-5.03,1.677 -11.85,2.62 -18.97,2.62c-7.11,0 -13.94,-0.943 -18.97,-2.62c-5.03,-1.677 -7.86,-3.951 -7.86,-6.323l0,-41.734m0,20.867c0,2.372 2.83,4.646 7.86,6.324c5.03,1.677 11.86,2.619 18.97,2.619c7.12,0 13.94,-0.942 18.97,-2.619c5.03,-1.678 7.86,-3.952 7.86,-6.324" style="fill:none;fill-rule:nonzero;stroke:#000091;stroke-width:3px;"/></g><g opacity="0.1"><path d="M1737.86,347.882c14.81,0 26.82,-4.004 26.82,-8.943c0,-4.939 -12.01,-8.943 -26.82,-8.943c-14.82,0 -26.83,4.004 -26.83,8.943c0,4.939 12.01,8.943 26.83,8.943Z" style="fill:#e8edff;fill-rule:nonzero;"/><path d="M1711.03,338.939l0,41.734c0,2.372 2.82,4.646 7.86,6.323c5.03,1.677 11.85,2.62 18.97,2.62c7.11,0 13.94,-0.943 18.97,-2.62c5.03,-1.677 7.85,-3.951 7.85,-6.323l0,-41.734" style="fill:#e8edff;fill-rule:nonzero;"/><path d="M1711.03,359.806c0,2.372 2.82,4.646 7.86,6.324c5.03,1.677 11.85,2.619 18.97,2.619c7.11,0 13.94,-0.942 18.97,-2.619c5.03,-1.678 7.85,-3.952 7.85,-6.324" style="fill:#e8edff;fill-rule:nonzero;"/><path d="M1764.67,338.939c0,4.939 -12.01,8.943 -26.82,8.943c-14.82,0 -26.83,-4.004 -26.83,-8.943m53.65,0c0,-4.939 -12.01,-8.943 -26.82,-8.943c-14.82,0 -26.83,4.004 -26.83,8.943m53.65,0l0,41.734c0,2.372 -2.82,4.646 -7.85,6.323c-5.03,1.677 -11.86,2.62 -18.97,2.62c-7.12,0 -13.94,-0.943 -18.97,-2.62c-5.04,-1.677 -7.86,-3.951 -7.86,-6.323l0,-41.734m0,20.867c0,2.372 2.82,4.646 7.86,6.324c5.03,1.677 11.85,2.619 18.97,2.619c7.11,0 13.94,-0.942 18.97,-2.619c5.03,-1.678 7.85,-3.952 7.85,-6.324" style="fill:none;fill-rule:nonzero;stroke:#000091;stroke-width:3px;"/></g><path d="M1589.77,266.011c14.82,0 26.83,-4.004 26.83,-8.943c0,-4.939 -12.01,-8.943 -26.83,-8.943c-14.82,0 -26.83,4.004 -26.83,8.943c0,4.939 12.01,8.943 26.83,8.943Z" style="fill:#e8edff;fill-rule:nonzero;"/><path d="M1562.93,257.068l0,41.733c0,2.372 2.83,4.647 7.86,6.324c5.03,1.677 11.85,2.619 18.97,2.619c7.11,0 13.94,-0.942 18.97,-2.619c5.03,-1.677 7.86,-3.952 7.86,-6.324l0,-41.733" style="fill:#e8edff;fill-rule:nonzero;"/><path d="M1562.93,277.935c0,2.371 2.83,4.646 7.86,6.323c5.03,1.677 11.85,2.62 18.97,2.62c7.11,0 13.94,-0.943 18.97,-2.62c5.03,-1.677 7.86,-3.952 7.86,-6.323" style="fill:#e8edff;fill-rule:nonzero;"/><path d="M1616.6,257.068c0,4.939 -12.01,8.943 -26.83,8.943c-14.82,0 -26.83,-4.004 -26.83,-8.943m53.66,0c0,-4.939 -12.01,-8.943 -26.83,-8.943c-14.82,0 -26.83,4.004 -26.83,8.943m53.66,0l0,41.733c0,2.372 -2.83,4.647 -7.86,6.324c-5.03,1.677 -11.86,2.619 -18.97,2.619c-7.12,0 -13.94,-0.942 -18.97,-2.619c-5.03,-1.677 -7.86,-3.952 -7.86,-6.324l0,-41.733m0,20.867c0,2.371 2.83,4.646 7.86,6.323c5.03,1.677 11.85,2.62 18.97,2.62c7.11,0 13.94,-0.943 18.97,-2.62c5.03,-1.677 7.86,-3.952 7.86,-6.323" style="fill:none;fill-rule:nonzero;stroke:#000091;stroke-width:3px;"/><g opacity="0.5"><path d="M1589.77,347.882c14.82,0 26.83,-4.004 26.83,-8.943c0,-4.939 -12.01,-8.943 -26.83,-8.943c-14.82,0 -26.83,4.004 -26.83,8.943c0,4.939 12.01,8.943 26.83,8.943Z" style="fill:#e8edff;fill-rule:nonzero;"/><path d="M1562.93,338.939l0,41.734c0,2.372 2.83,4.646 7.86,6.323c5.03,1.677 11.85,2.62 18.97,2.62c7.11,0 13.94,-0.943 18.97,-2.62c5.03,-1.677 7.86,-3.951 7.86,-6.323l0,-41.734" style="fill:#e8edff;fill-rule:nonzero;"/><path d="M1562.93,359.806c0,2.372 2.83,4.646 7.86,6.324c5.03,1.677 11.85,2.619 18.97,2.619c7.11,0 13.94,-0.942 18.97,-2.619c5.03,-1.678 7.86,-3.952 7.86,-6.324" style="fill:#e8edff;fill-rule:nonzero;"/><path d="M1616.6,338.939c0,4.939 -12.01,8.943 -26.83,8.943c-14.82,0 -26.83,-4.004 -26.83,-8.943m53.66,0c0,-4.939 -12.01,-8.943 -26.83,-8.943c-14.82,0 -26.83,4.004 -26.83,8.943m53.66,0l0,41.734c0,2.372 -2.83,4.646 -7.86,6.323c-5.03,1.677 -11.86,2.62 -18.97,2.62c-7.12,0 -13.94,-0.943 -18.97,-2.62c-5.03,-1.677 -7.86,-3.951 -7.86,-6.323l0,-41.734m0,20.867c0,2.372 2.83,4.646 7.86,6.324c5.03,1.677 11.85,2.619 18.97,2.619c7.11,0 13.94,-0.942 18.97,-2.619c5.03,-1.678 7.86,-3.952 7.86,-6.324" style="fill:none;fill-rule:nonzero;stroke:#000091;stroke-width:3px;"/></g><path d="M1515.73,266.011c14.81,0 26.82,-4.004 26.82,-8.943c0,-4.939 -12.01,-8.943 -26.82,-8.943c-14.82,0 -26.83,4.004 -26.83,8.943c0,4.939 12.01,8.943 26.83,8.943Z" style="fill:#e8edff;fill-rule:nonzero;"/><path d="M1488.89,257.068l0,41.733c0,2.372 2.82,4.647 7.85,6.324c5.04,1.677 11.86,2.619 18.98,2.619c7.11,0 13.93,-0.942 18.97,-2.619c5.03,-1.677 7.85,-3.952 7.85,-6.324l0,-41.733" style="fill:#e8edff;fill-rule:nonzero;"/><path d="M1488.89,277.935c0,2.371 2.82,4.646 7.85,6.323c5.04,1.677 11.86,2.62 18.98,2.62c7.11,0 13.93,-0.943 18.97,-2.62c5.03,-1.677 7.85,-3.952 7.85,-6.323" style="fill:#e8edff;fill-rule:nonzero;"/><path d="M1542.55,257.068c0,4.939 -12.01,8.943 -26.82,8.943c-14.82,0 -26.83,-4.004 -26.83,-8.943m53.65,0c0,-4.939 -12.01,-8.943 -26.82,-8.943c-14.82,0 -26.83,4.004 -26.83,8.943m53.65,0l0,41.733c0,2.372 -2.82,4.647 -7.85,6.324c-5.04,1.677 -11.86,2.619 -18.97,2.619c-7.12,0 -13.94,-0.942 -18.98,-2.619c-5.03,-1.677 -7.85,-3.952 -7.85,-6.324l0,-41.733m0,20.867c0,2.371 2.82,4.646 7.85,6.323c5.04,1.677 11.86,2.62 18.98,2.62c7.11,0 13.93,-0.943 18.97,-2.62c5.03,-1.677 7.85,-3.952 7.85,-6.323" style="fill:none;fill-rule:nonzero;stroke:#000091;stroke-width:3px;"/><path d="M1515.73,347.882c14.81,0 26.82,-4.004 26.82,-8.943c0,-4.939 -12.01,-8.943 -26.82,-8.943c-14.82,0 -26.83,4.004 -26.83,8.943c0,4.939 12.01,8.943 26.83,8.943Z" style="fill:#e8edff;fill-rule:nonzero;"/><path d="M1488.89,338.939l0,41.734c0,2.372 2.82,4.646 7.85,6.323c5.04,1.677 11.86,2.62 18.98,2.62c7.11,0 13.93,-0.943 18.97,-2.62c5.03,-1.677 7.85,-3.951 7.85,-6.323l0,-41.734" style="fill:#e8edff;fill-rule:nonzero;"/><path d="M1488.89,359.806c0,2.372 2.82,4.646 7.85,6.324c5.04,1.677 11.86,2.619 18.98,2.619c7.11,0 13.93,-0.942 18.97,-2.619c5.03,-1.678 7.85,-3.952 7.85,-6.324" style="fill:#e8edff;fill-rule:nonzero;"/><path d="M1542.55,338.939c0,4.939 -12.01,8.943 -26.82,8.943c-14.82,0 -26.83,-4.004 -26.83,-8.943m53.65,0c0,-4.939 -12.01,-8.943 -26.82,-8.943c-14.82,0 -26.83,4.004 -26.83,8.943m53.65,0l0,41.734c0,2.372 -2.82,4.646 -7.85,6.323c-5.04,1.677 -11.86,2.62 -18.97,2.62c-7.12,0 -13.94,-0.943 -18.98,-2.62c-5.03,-1.677 -7.85,-3.951 -7.85,-6.323l0,-41.734m0,20.867c0,2.372 2.82,4.646 7.85,6.324c5.04,1.677 11.86,2.619 18.98,2.619c7.11,0 13.93,-0.942 18.97,-2.619c5.03,-1.678 7.85,-3.952 7.85,-6.324" style="fill:none;fill-rule:nonzero;stroke:#000091;stroke-width:3px;"/><path d="M1441.67,184.139c14.82,0 26.83,-4.004 26.83,-8.943c0,-4.939 -12.01,-8.943 -26.83,-8.943c-14.82,0 -26.83,4.004 -26.83,8.943c0,4.939 12.01,8.943 26.83,8.943Z" style="fill:#e8edff;fill-rule:nonzero;"/><path d="M1414.85,175.196l0,41.734c0,2.372 2.83,4.646 7.86,6.323c5.03,1.678 11.86,2.62 18.97,2.62c7.12,0 13.94,-0.942 18.97,-2.62c5.03,-1.677 7.86,-3.951 7.86,-6.323l0,-41.734" style="fill:#e8edff;fill-rule:nonzero;"/><path d="M1414.85,196.063c0,2.372 2.83,4.647 7.86,6.324c5.03,1.677 11.86,2.619 18.97,2.619c7.12,0 13.94,-0.942 18.97,-2.619c5.03,-1.677 7.86,-3.952 7.86,-6.324" style="fill:#e8edff;fill-rule:nonzero;"/><path d="M1468.51,175.196c0,4.939 -12.01,8.943 -26.83,8.943c-14.82,0 -26.83,-4.004 -26.83,-8.943m53.66,0c0,-4.939 -12.01,-8.943 -26.83,-8.943c-14.82,0 -26.83,4.004 -26.83,8.943m53.66,0l0,41.734c0,2.372 -2.83,4.646 -7.86,6.323c-5.03,1.678 -11.85,2.62 -18.97,2.62c-7.11,0 -13.94,-0.942 -18.97,-2.62c-5.03,-1.677 -7.86,-3.951 -7.86,-6.323l0,-41.734m0,20.867c0,2.372 2.83,4.647 7.86,6.324c5.03,1.677 11.86,2.619 18.97,2.619c7.12,0 13.94,-0.942 18.97,-2.619c5.03,-1.677 7.86,-3.952 7.86,-6.324" style="fill:none;fill-rule:nonzero;stroke:#000091;stroke-width:3px;"/><path d="M1441.67,102.268c14.82,0 26.83,-4.004 26.83,-8.943c0,-4.939 -12.01,-8.943 -26.83,-8.943c-14.82,0 -26.83,4.004 -26.83,8.943c0,4.939 12.01,8.943 26.83,8.943Z" style="fill:#e8edff;fill-rule:nonzero;"/><path d="M1414.85,93.325l0,41.734c0,2.371 2.83,4.646 7.86,6.323c5.03,1.677 11.86,2.619 18.97,2.619c7.12,0 13.94,-0.942 18.97,-2.619c5.03,-1.677 7.86,-3.952 7.86,-6.323l0,-41.734" style="fill:#e8edff;fill-rule:nonzero;"/><path d="M1414.85,114.192c0,2.372 2.83,4.646 7.86,6.323c5.03,1.677 11.86,2.62 18.97,2.62c7.12,0 13.94,-0.943 18.97,-2.62c5.03,-1.677 7.86,-3.951 7.86,-6.323" style="fill:#e8edff;fill-rule:nonzero;"/><path d="M1468.51,93.325c0,4.939 -12.01,8.943 -26.83,8.943c-14.82,0 -26.83,-4.004 -26.83,-8.943m53.66,0c0,-4.939 -12.01,-8.943 -26.83,-8.943c-14.82,0 -26.83,4.004 -26.83,8.943m53.66,0l0,41.734c0,2.371 -2.83,4.646 -7.86,6.323c-5.03,1.677 -11.85,2.619 -18.97,2.619c-7.11,0 -13.94,-0.942 -18.97,-2.619c-5.03,-1.677 -7.86,-3.952 -7.86,-6.323l0,-41.734m0,20.867c0,2.372 2.83,4.646 7.86,6.323c5.03,1.677 11.86,2.62 18.97,2.62c7.12,0 13.94,-0.943 18.97,-2.62c5.03,-1.677 7.86,-3.951 7.86,-6.323" style="fill:none;fill-rule:nonzero;stroke:#000091;stroke-width:3px;"/><path d="M1441.67,266.011c14.82,0 26.83,-4.004 26.83,-8.943c0,-4.939 -12.01,-8.943 -26.83,-8.943c-14.82,0 -26.83,4.004 -26.83,8.943c0,4.939 12.01,8.943 26.83,8.943Z" style="fill:#e8edff;fill-rule:nonzero;"/><path d="M1414.85,257.068l0,41.733c0,2.372 2.83,4.647 7.86,6.324c5.03,1.677 11.86,2.619 18.97,2.619c7.12,0 13.94,-0.942 18.97,-2.619c5.03,-1.677 7.86,-3.952 7.86,-6.324l0,-41.733" style="fill:#e8edff;fill-rule:nonzero;"/><path d="M1414.85,277.935c0,2.371 2.83,4.646 7.86,6.323c5.03,1.677 11.86,2.62 18.97,2.62c7.12,0 13.94,-0.943 18.97,-2.62c5.03,-1.677 7.86,-3.952 7.86,-6.323" style="fill:#e8edff;fill-rule:nonzero;"/><path d="M1468.51,257.068c0,4.939 -12.01,8.943 -26.83,8.943c-14.82,0 -26.83,-4.004 -26.83,-8.943m53.66,0c0,-4.939 -12.01,-8.943 -26.83,-8.943c-14.82,0 -26.83,4.004 -26.83,8.943m53.66,0l0,41.733c0,2.372 -2.83,4.647 -7.86,6.324c-5.03,1.677 -11.85,2.619 -18.97,2.619c-7.11,0 -13.94,-0.942 -18.97,-2.619c-5.03,-1.677 -7.86,-3.952 -7.86,-6.324l0,-41.733m0,20.867c0,2.371 2.83,4.646 7.86,6.323c5.03,1.677 11.86,2.62 18.97,2.62c7.12,0 13.94,-0.943 18.97,-2.62c5.03,-1.677 7.86,-3.952 7.86,-6.323" style="fill:none;fill-rule:nonzero;stroke:#000091;stroke-width:3px;"/><path d="M1441.67,347.882c14.82,0 26.83,-4.004 26.83,-8.943c0,-4.939 -12.01,-8.943 -26.83,-8.943c-14.82,0 -26.83,4.004 -26.83,8.943c0,4.939 12.01,8.943 26.83,8.943Z" style="fill:#e8edff;fill-rule:nonzero;"/><path d="M1414.85,338.939l0,41.734c0,2.372 2.83,4.646 7.86,6.323c5.03,1.677 11.86,2.62 18.97,2.62c7.12,0 13.94,-0.943 18.97,-2.62c5.03,-1.677 7.86,-3.951 7.86,-6.323l0,-41.734" style="fill:#e8edff;fill-rule:nonzero;"/><path d="M1414.85,359.806c0,2.372 2.83,4.646 7.86,6.324c5.03,1.677 11.86,2.619 18.97,2.619c7.12,0 13.94,-0.942 18.97,-2.619c5.03,-1.678 7.86,-3.952 7.86,-6.324" style="fill:#e8edff;fill-rule:nonzero;"/><path d="M1468.51,338.939c0,4.939 -12.01,8.943 -26.83,8.943c-14.82,0 -26.83,-4.004 -26.83,-8.943m53.66,0c0,-4.939 -12.01,-8.943 -26.83,-8.943c-14.82,0 -26.83,4.004 -26.83,8.943m53.66,0l0,41.734c0,2.372 -2.83,4.646 -7.86,6.323c-5.03,1.677 -11.85,2.62 -18.97,2.62c-7.11,0 -13.94,-0.943 -18.97,-2.62c-5.03,-1.677 -7.86,-3.951 -7.86,-6.323l0,-41.734m0,20.867c0,2.372 2.83,4.646 7.86,6.324c5.03,1.677 11.86,2.619 18.97,2.619c7.12,0 13.94,-0.942 18.97,-2.619c5.03,-1.678 7.86,-3.952 7.86,-6.324" style="fill:none;fill-rule:nonzero;stroke:#000091;stroke-width:3px;"/><path d="M1311.18,462.339l0,-22.4l8.8,0c7.1,0 11.9,5.152 11.9,11.2c0,6.048 -4.8,11.2 -11.9,11.2l-8.8,0Zm8.86,-18.272l-4.32,0l0,14.144l4.32,0c4.16,0 7.17,-3.104 7.17,-7.072c0,-4 -3.01,-7.072 -7.17,-7.072Zm23.46,1.504c5.24,0 8.83,3.872 8.83,8.704c0,4.832 -3.59,8.704 -8.83,8.704c-5.25,0 -8.84,-3.872 -8.84,-8.704c0,-4.832 3.59,-8.704 8.84,-8.704Zm0.06,13.568c2.59,0 4.54,-2.08 4.54,-4.864c0,-2.816 -1.95,-4.864 -4.54,-4.864c-2.69,0 -4.67,2.048 -4.67,4.864c0,2.816 1.98,4.864 4.67,4.864Zm12.47,3.2l0,-16.128l4.07,0l0,1.28c1.12,-1.088 2.62,-1.92 4.77,-1.92c3.48,0 6.27,2.4 6.27,7.168l0,9.6l-4.1,0l0,-9.44c0,-2.144 -1.21,-3.488 -3.2,-3.488c-2.05,0 -3.13,1.376 -3.74,2.4l0,10.528l-4.07,0Zm19.72,0l0,-16.128l4.07,0l0,1.28c1.12,-1.088 2.62,-1.92 4.77,-1.92c3.48,0 6.27,2.4 6.27,7.168l0,9.6l-4.1,0l0,-9.44c0,-2.144 -1.21,-3.488 -3.2,-3.488c-2.05,0 -3.13,1.376 -3.74,2.4l0,10.528l-4.07,0Zm29.1,-18.688l-3.91,0l3.33,-5.312l4.42,0l-3.84,5.312Zm5.47,16.064c-1.5,2.016 -4,3.264 -7.04,3.264c-5.73,0 -8.96,-4 -8.96,-8.704c0,-4.768 3.01,-8.704 8.29,-8.704c4.48,0 7.42,3.04 7.42,7.264c0,0.896 -0.13,1.728 -0.25,2.272l-11.3,0c0.38,3.008 2.24,4.224 4.77,4.224c1.76,0 3.29,-0.768 4.16,-1.92l2.91,2.304Zm-7.81,-10.816c-2.08,0 -3.45,1.152 -3.9,3.264l7.42,0c-0.06,-1.632 -1.25,-3.264 -3.52,-3.264Zm26.22,10.816c-1.51,2.016 -4,3.264 -7.04,3.264c-5.73,0 -8.96,-4 -8.96,-8.704c0,-4.768 3,-8.704 8.28,-8.704c4.48,0 7.43,3.04 7.43,7.264c0,0.896 -0.13,1.728 -0.26,2.272l-11.29,0c0.38,3.008 2.24,4.224 4.76,4.224c1.76,0 3.3,-0.768 4.16,-1.92l2.92,2.304Zm-7.81,-10.816c-2.08,0 -3.46,1.152 -3.91,3.264l7.43,0c-0.07,-1.632 -1.25,-3.264 -3.52,-3.264Zm9.86,11.104l2.69,-2.432c0.99,1.248 2.18,2.144 3.71,2.144c1.31,0 1.99,-0.768 1.99,-1.728c0,-2.816 -7.72,-1.76 -7.72,-7.424c0,-2.848 2.4,-4.992 5.76,-4.992c2.47,0 4.71,1.184 5.86,2.752l-2.69,2.368c-0.83,-1.024 -1.89,-1.856 -3.13,-1.856c-1.28,0 -1.89,0.704 -1.89,1.536c0,2.752 7.71,1.792 7.71,7.36c-0.06,3.392 -2.78,5.248 -5.82,5.248c-2.88,0 -4.93,-1.152 -6.47,-2.976Zm23.51,-5.728c0,-4.704 3.1,-8.704 8.19,-8.704c2.18,0 3.74,0.672 4.99,1.92l0,-9.152l4.1,0l0,24l-4.1,0l0,-1.28c-1.25,1.248 -2.81,1.92 -4.99,1.92c-5.09,0 -8.19,-4 -8.19,-8.704Zm4.25,0c0,2.816 1.76,4.864 4.52,4.864c1.82,0 3.32,-0.768 4.41,-2.24l0,-5.248c-1.09,-1.472 -2.59,-2.24 -4.41,-2.24c-2.76,0 -4.52,2.048 -4.52,4.864Zm32.75,5.44c-1.51,2.016 -4,3.264 -7.04,3.264c-5.73,0 -8.96,-4 -8.96,-8.704c0,-4.768 3.01,-8.704 8.29,-8.704c4.48,0 7.42,3.04 7.42,7.264c0,0.896 -0.13,1.728 -0.26,2.272l-11.29,0c0.38,3.008 2.24,4.224 4.77,4.224c1.76,0 3.29,-0.768 4.16,-1.92l2.91,2.304Zm-7.81,-10.816c-2.08,0 -3.46,1.152 -3.9,3.264l7.42,0c-0.06,-1.632 -1.25,-3.264 -3.52,-3.264Zm9.87,11.104l2.68,-2.432c1,1.248 2.18,2.144 3.72,2.144c1.31,0 1.98,-0.768 1.98,-1.728c0,-2.816 -7.71,-1.76 -7.71,-7.424c0,-2.848 2.4,-4.992 5.76,-4.992c2.46,0 4.7,1.184 5.85,2.752l-2.68,2.368c-0.84,-1.024 -1.89,-1.856 -3.14,-1.856c-1.28,0 -1.89,0.704 -1.89,1.536c0,2.752 7.71,1.792 7.71,7.36c-0.06,3.392 -2.78,5.248 -5.82,5.248c-2.88,0 -4.93,-1.152 -6.46,-2.976Zm25.52,2.336l0,-22.4l6.59,0c4.67,0 7.52,2.304 7.52,6.08c0,1.824 -0.83,3.392 -2.4,4.416c2.37,1.056 3.68,2.976 3.68,5.312c0,4.096 -3.17,6.592 -8.32,6.592l-7.07,0Zm6.69,-18.624l-2.15,0l0,5.056l2.15,0c1.72,0 2.75,-0.928 2.75,-2.56c0,-1.568 -1.03,-2.496 -2.75,-2.496Zm0.64,8.832l-2.79,0l0,6.016l2.79,0c2.11,0 3.39,-1.12 3.39,-3.008c0,-1.92 -1.28,-3.008 -3.39,-3.008Zm16.72,10.272c-3.23,0 -5.44,-1.856 -5.44,-4.832c0,-2.432 1.89,-4.256 5.35,-4.832l4.92,-0.832l0,-0.416c0,-1.696 -1.28,-2.784 -3.13,-2.784c-1.57,0 -2.79,0.736 -3.65,1.92l-2.98,-2.272c1.44,-1.984 3.81,-3.2 6.76,-3.2c4.67,0 7.07,2.784 7.07,6.336l0,10.432l-4.07,0l0,-1.568c-1.02,1.248 -2.94,2.048 -4.83,2.048Zm-1.41,-5.024c0,1.088 0.87,1.792 2.24,1.792c1.86,0 3.2,-0.864 4,-2.144l0,-2.272l-3.84,0.64c-1.69,0.288 -2.4,0.992 -2.4,1.984Zm13.55,2.208l2.69,-2.432c0.99,1.248 2.18,2.144 3.71,2.144c1.32,0 1.99,-0.768 1.99,-1.728c0,-2.816 -7.71,-1.76 -7.71,-7.424c0,-2.848 2.4,-4.992 5.76,-4.992c2.46,0 4.7,1.184 5.85,2.752l-2.69,2.368c-0.83,-1.024 -1.88,-1.856 -3.13,-1.856c-1.28,0 -1.89,0.704 -1.89,1.536c0,2.752 7.71,1.792 7.71,7.36c-0.06,3.392 -2.78,5.248 -5.82,5.248c-2.88,0 -4.93,-1.152 -6.47,-2.976Zm30.82,-0.288c-1.5,2.016 -4,3.264 -7.04,3.264c-5.73,0 -8.96,-4 -8.96,-8.704c0,-4.768 3.01,-8.704 8.29,-8.704c4.48,0 7.42,3.04 7.42,7.264c0,0.896 -0.12,1.728 -0.25,2.272l-11.3,0c0.39,3.008 2.24,4.224 4.77,4.224c1.76,0 3.3,-0.768 4.16,-1.92l2.91,2.304Zm-7.81,-10.816c-2.08,0 -3.45,1.152 -3.9,3.264l7.42,0c-0.06,-1.632 -1.24,-3.264 -3.52,-3.264Zm9.87,11.104l2.69,-2.432c0.99,1.248 2.17,2.144 3.71,2.144c1.31,0 1.98,-0.768 1.98,-1.728c0,-2.816 -7.71,-1.76 -7.71,-7.424c0,-2.848 2.4,-4.992 5.76,-4.992c2.47,0 4.71,1.184 5.86,2.752l-2.69,2.368c-0.83,-1.024 -1.89,-1.856 -3.14,-1.856c-1.28,0 -1.88,0.704 -1.88,1.536c0,2.752 7.71,1.792 7.71,7.36c-0.07,3.392 -2.79,5.248 -5.83,5.248c-2.88,0 -4.92,-1.152 -6.46,-2.976Zm22.71,2.336l8.48,-22.4l5.95,0l8.48,22.4l-4.83,0l-2.15,-5.824l-8.96,0l-2.14,5.824l-4.83,0Zm8.38,-9.696l6.14,0l-3.07,-8.416l-3.07,8.416Zm16.6,1.632c0,-4.704 3.11,-8.704 8.19,-8.704c2.18,0 3.75,0.672 5,1.92l0,-9.152l4.09,0l0,24l-4.09,0l0,-1.28c-1.25,1.248 -2.82,1.92 -5,1.92c-5.08,0 -8.19,-4 -8.19,-8.704Zm4.26,0c0,2.816 1.76,4.864 4.51,4.864c1.82,0 3.33,-0.768 4.42,-2.24l0,-5.248c-1.09,-1.472 -2.6,-2.24 -4.42,-2.24c-2.75,0 -4.51,2.048 -4.51,4.864Zm17.89,8.064l0,-16.128l4.07,0l0,1.6c1.05,-1.088 2.43,-1.92 4.25,-1.92c0.55,0 1.03,0.096 1.41,0.224l0,4c-0.51,-0.128 -1.05,-0.224 -1.79,-0.224c-1.98,0 -3.26,1.088 -3.87,2.112l0,10.336l-4.07,0Zm27.17,-2.624c-1.51,2.016 -4,3.264 -7.04,3.264c-5.73,0 -8.96,-4 -8.96,-8.704c0,-4.768 3,-8.704 8.28,-8.704c4.48,0 7.43,3.04 7.43,7.264c0,0.896 -0.13,1.728 -0.26,2.272l-11.29,0c0.38,3.008 2.24,4.224 4.76,4.224c1.76,0 3.3,-0.768 4.16,-1.92l2.92,2.304Zm-7.81,-10.816c-2.08,0 -3.46,1.152 -3.91,3.264l7.43,0c-0.07,-1.632 -1.25,-3.264 -3.52,-3.264Zm9.86,11.104l2.69,-2.432c0.99,1.248 2.18,2.144 3.71,2.144c1.31,0 1.99,-0.768 1.99,-1.728c0,-2.816 -7.72,-1.76 -7.72,-7.424c0,-2.848 2.4,-4.992 5.76,-4.992c2.47,0 4.71,1.184 5.86,2.752l-2.69,2.368c-0.83,-1.024 -1.89,-1.856 -3.13,-1.856c-1.28,0 -1.89,0.704 -1.89,1.536c0,2.752 7.71,1.792 7.71,7.36c-0.06,3.392 -2.78,5.248 -5.82,5.248c-2.88,0 -4.93,-1.152 -6.47,-2.976Zm14.41,0l2.69,-2.432c0.99,1.248 2.17,2.144 3.71,2.144c1.31,0 1.98,-0.768 1.98,-1.728c0,-2.816 -7.71,-1.76 -7.71,-7.424c0,-2.848 2.4,-4.992 5.76,-4.992c2.46,0 4.7,1.184 5.86,2.752l-2.69,2.368c-0.83,-1.024 -1.89,-1.856 -3.14,-1.856c-1.28,0 -1.89,0.704 -1.89,1.536c0,2.752 7.72,1.792 7.72,7.36c-0.07,3.392 -2.79,5.248 -5.83,5.248c-2.88,0 -4.93,-1.152 -6.46,-2.976Zm30.82,-0.288c-1.51,2.016 -4,3.264 -7.04,3.264c-5.73,0 -8.96,-4 -8.96,-8.704c0,-4.768 3,-8.704 8.28,-8.704c4.48,0 7.43,3.04 7.43,7.264c0,0.896 -0.13,1.728 -0.26,2.272l-11.29,0c0.38,3.008 2.24,4.224 4.76,4.224c1.76,0 3.3,-0.768 4.16,-1.92l2.92,2.304Zm-7.81,-10.816c-2.08,0 -3.46,1.152 -3.91,3.264l7.43,0c-0.07,-1.632 -1.25,-3.264 -3.52,-3.264Zm9.86,11.104l2.69,-2.432c0.99,1.248 2.18,2.144 3.71,2.144c1.31,0 1.99,-0.768 1.99,-1.728c0,-2.816 -7.72,-1.76 -7.72,-7.424c0,-2.848 2.4,-4.992 5.76,-4.992c2.47,0 4.71,1.184 5.86,2.752l-2.69,2.368c-0.83,-1.024 -1.89,-1.856 -3.13,-1.856c-1.28,0 -1.89,0.704 -1.89,1.536c0,2.752 7.71,1.792 7.71,7.36c-0.06,3.392 -2.78,5.248 -5.82,5.248c-2.88,0 -4.93,-1.152 -6.47,-2.976Zm25.52,2.336l0,-22.4l4.55,0l0,18.272l8.51,0l0,4.128l-13.06,0Zm24.29,-16.768c5.25,0 8.83,3.872 8.83,8.704c0,4.832 -3.58,8.704 -8.83,8.704c-5.25,0 -8.83,-3.872 -8.83,-8.704c0,-4.832 3.58,-8.704 8.83,-8.704Zm0.06,13.568c2.6,0 4.55,-2.08 4.55,-4.864c0,-2.816 -1.95,-4.864 -4.55,-4.864c-2.68,0 -4.67,2.048 -4.67,4.864c0,2.816 1.99,4.864 4.67,4.864Zm20.38,0c1.6,0 2.88,-0.736 3.65,-1.856l3.16,2.432c-1.5,1.984 -3.87,3.264 -6.81,3.264c-5.57,0 -8.9,-4 -8.9,-8.704c0,-4.704 3.33,-8.704 8.9,-8.704c2.94,0 5.31,1.28 6.81,3.264l-3.16,2.432c-0.77,-1.12 -2.05,-1.856 -3.72,-1.856c-2.65,0 -4.6,2.048 -4.6,4.864c0,2.848 1.95,4.864 4.67,4.864Zm14.11,3.68c-3.23,0 -5.44,-1.856 -5.44,-4.832c0,-2.432 1.89,-4.256 5.35,-4.832l4.92,-0.832l0,-0.416c0,-1.696 -1.28,-2.784 -3.13,-2.784c-1.57,0 -2.79,0.736 -3.65,1.92l-2.98,-2.272c1.44,-1.984 3.81,-3.2 6.76,-3.2c4.67,0 7.07,2.784 7.07,6.336l0,10.432l-4.07,0l0,-1.568c-1.02,1.248 -2.94,2.048 -4.83,2.048Zm-1.41,-5.024c0,1.088 0.87,1.792 2.24,1.792c1.86,0 3.2,-0.864 4,-2.144l0,-2.272l-3.84,0.64c-1.69,0.288 -2.4,0.992 -2.4,1.984Zm14.96,4.544l0,-24l4.06,0l0,24l-4.06,0Zm23.79,-2.624c-1.51,2.016 -4,3.264 -7.04,3.264c-5.73,0 -8.96,-4 -8.96,-8.704c0,-4.768 3,-8.704 8.28,-8.704c4.48,0 7.43,3.04 7.43,7.264c0,0.896 -0.13,1.728 -0.26,2.272l-11.29,0c0.38,3.008 2.24,4.224 4.76,4.224c1.76,0 3.3,-0.768 4.16,-1.92l2.92,2.304Zm-7.81,-10.816c-2.08,0 -3.46,1.152 -3.91,3.264l7.43,0c-0.07,-1.632 -1.25,-3.264 -3.52,-3.264Zm9.86,11.104l2.69,-2.432c0.99,1.248 2.18,2.144 3.71,2.144c1.31,0 1.99,-0.768 1.99,-1.728c0,-2.816 -7.72,-1.76 -7.72,-7.424c0,-2.848 2.4,-4.992 5.76,-4.992c2.47,0 4.71,1.184 5.86,2.752l-2.69,2.368c-0.83,-1.024 -1.89,-1.856 -3.13,-1.856c-1.28,0 -1.89,0.704 -1.89,1.536c0,2.752 7.71,1.792 7.71,7.36c-0.06,3.392 -2.78,5.248 -5.82,5.248c-2.88,0 -4.93,-1.152 -6.47,-2.976Z" style="fill:#000091;fill-rule:nonzero;"/><path d="M1404.16,505.339l0,-14l1.88,0l0,12.28l5.64,0l0,1.72l-7.52,0Zm18.87,-1.66c-0.94,1.26 -2.44,2.06 -4.32,2.06c-3.4,0 -5.5,-2.5 -5.5,-5.44c0,-3.06 1.96,-5.44 5.08,-5.44c2.74,0 4.52,1.92 4.52,4.4c0,0.4 -0.06,0.78 -0.12,1.06l-7.74,0c0.06,2.42 1.6,3.88 3.76,3.88c1.3,0 2.4,-0.6 3.06,-1.5l1.26,0.98Zm-4.78,-7.38c-1.66,0 -2.82,0.98 -3.18,2.72l6.04,0c-0.06,-1.48 -1.08,-2.72 -2.86,-2.72Zm6.28,7.66l1.2,-1.02c0.7,0.88 1.54,1.38 2.56,1.38c1.12,0 1.76,-0.68 1.76,-1.56c0,-2.26 -5.04,-1.46 -5.04,-5.02c0,-1.58 1.34,-2.88 3.28,-2.88c1.44,0 2.68,0.68 3.38,1.66l-1.18,1c-0.54,-0.76 -1.3,-1.24 -2.18,-1.24c-1.08,0 -1.66,0.64 -1.66,1.42c0,2.26 5.06,1.54 5.06,4.98c-0.02,1.88 -1.52,3.06 -3.4,3.06c-1.6,0 -2.86,-0.64 -3.78,-1.78Zm19.98,0.18c1.24,0 2.26,-0.6 2.88,-1.48l1.34,1.02c-0.94,1.26 -2.4,2.06 -4.24,2.06c-3.34,0 -5.48,-2.5 -5.48,-5.44c0,-2.94 2.14,-5.44 5.48,-5.44c1.82,0 3.3,0.82 4.24,2.06l-1.34,1.02c-0.62,-0.88 -1.64,-1.48 -2.9,-1.48c-2.16,0 -3.7,1.7 -3.7,3.84c0,2.16 1.54,3.84 3.72,3.84Zm10.76,-9.28c3.24,0 5.46,2.5 5.46,5.44c0,2.94 -2.22,5.44 -5.46,5.44c-3.26,0 -5.46,-2.5 -5.46,-5.44c0,-2.94 2.2,-5.44 5.46,-5.44Zm0.02,9.28c2.1,0 3.64,-1.76 3.64,-3.84c0,-2.1 -1.54,-3.84 -3.64,-3.84c-2.16,0 -3.7,1.74 -3.7,3.84c0,2.1 1.54,3.84 3.7,3.84Zm8.17,1.2l0,-10.08l1.7,0l0,1.1c0.76,-0.88 1.76,-1.5 3.16,-1.5c1.46,0 2.66,0.66 3.28,1.94c0.8,-1.1 1.86,-1.94 3.6,-1.94c2.16,0 3.74,1.44 3.74,4.18l0,6.3l-1.7,0l0,-6.24c0,-1.68 -0.94,-2.64 -2.38,-2.64c-1.28,0 -2.18,0.72 -2.84,1.9c0.02,0.22 0.04,0.44 0.04,0.68l0,6.3l-1.7,0l0,-6.24c0,-1.68 -0.92,-2.64 -2.38,-2.64c-1.38,0 -2.24,0.86 -2.82,1.9l0,6.98l-1.7,0Zm18.91,0l0,-10.08l1.7,0l0,1.1c0.76,-0.88 1.76,-1.5 3.16,-1.5c1.46,0 2.66,0.66 3.28,1.94c0.8,-1.1 1.86,-1.94 3.6,-1.94c2.16,0 3.74,1.44 3.74,4.18l0,6.3l-1.7,0l0,-6.24c0,-1.68 -0.94,-2.64 -2.38,-2.64c-1.28,0 -2.18,0.72 -2.84,1.9c0.02,0.22 0.04,0.44 0.04,0.68l0,6.3l-1.7,0l0,-6.24c0,-1.68 -0.92,-2.64 -2.38,-2.64c-1.38,0 -2.24,0.86 -2.82,1.9l0,6.98l-1.7,0Zm25.93,-4.32l0,-5.76l1.7,0l0,5.7c0,3.02 -1.74,4.78 -4.48,4.78c-2.72,0 -4.46,-1.76 -4.46,-4.78l0,-5.7l1.7,0l0,5.76c0,1.98 1.06,3.12 2.78,3.12c1.68,0 2.76,-1.14 2.76,-3.12Zm5.05,4.32l0,-10.08l1.7,0l0,1.14c0.82,-0.9 1.86,-1.54 3.36,-1.54c2.26,0 3.94,1.52 3.94,4.38l0,6.1l-1.7,0l0,-6.04c0,-1.8 -1.02,-2.84 -2.58,-2.84c-1.46,0 -2.38,0.84 -3.02,1.9l0,6.98l-1.7,0Zm21.38,-1.66c-0.94,1.26 -2.44,2.06 -4.32,2.06c-3.4,0 -5.5,-2.5 -5.5,-5.44c0,-3.06 1.96,-5.44 5.08,-5.44c2.74,0 4.52,1.92 4.52,4.4c0,0.4 -0.06,0.78 -0.12,1.06l-7.74,0c0.06,2.42 1.6,3.88 3.76,3.88c1.3,0 2.4,-0.6 3.06,-1.5l1.26,0.98Zm-4.78,-7.38c-1.66,0 -2.82,0.98 -3.18,2.72l6.04,0c-0.06,-1.48 -1.08,-2.72 -2.86,-2.72Zm6.28,7.66l1.2,-1.02c0.7,0.88 1.54,1.38 2.56,1.38c1.12,0 1.76,-0.68 1.76,-1.56c0,-2.26 -5.04,-1.46 -5.04,-5.02c0,-1.58 1.34,-2.88 3.28,-2.88c1.44,0 2.68,0.68 3.38,1.66l-1.18,1c-0.54,-0.76 -1.3,-1.24 -2.18,-1.24c-1.08,0 -1.66,0.64 -1.66,1.42c0,2.26 5.06,1.54 5.06,4.98c-0.02,1.88 -1.52,3.06 -3.4,3.06c-1.6,0 -2.86,-0.64 -3.78,-1.78Zm19.98,0.18c1.24,0 2.26,-0.6 2.88,-1.48l1.34,1.02c-0.94,1.26 -2.4,2.06 -4.24,2.06c-3.34,0 -5.48,-2.5 -5.48,-5.44c0,-2.94 2.14,-5.44 5.48,-5.44c1.82,0 3.3,0.82 4.24,2.06l-1.34,1.02c-0.62,-0.88 -1.64,-1.48 -2.9,-1.48c-2.16,0 -3.7,1.7 -3.7,3.84c0,2.16 1.54,3.84 3.72,3.84Zm15.12,-0.46c-0.94,1.26 -2.44,2.06 -4.32,2.06c-3.4,0 -5.5,-2.5 -5.5,-5.44c0,-3.06 1.96,-5.44 5.08,-5.44c2.74,0 4.52,1.92 4.52,4.4c0,0.4 -0.06,0.78 -0.12,1.06l-7.74,0c0.06,2.42 1.6,3.88 3.76,3.88c1.3,0 2.4,-0.6 3.06,-1.5l1.26,0.98Zm-4.78,-7.38c-1.66,0 -2.82,0.98 -3.18,2.72l6.04,0c-0.06,-1.48 -1.08,-2.72 -2.86,-2.72Zm7.44,9.04l0,-10.08l1.7,0l0,1.26c0.74,-0.88 1.66,-1.46 2.94,-1.46c0.32,0 0.62,0.04 0.86,0.12l0,1.66c-0.3,-0.08 -0.6,-0.12 -1,-0.12c-1.32,0 -2.18,0.68 -2.8,1.7l0,6.92l-1.7,0Zm9,-3.38l0,-5.16l-1.9,0l0,-1.54l1.9,0l0,-2.52l1.72,0l0,2.52l3.5,0l0,1.54l-3.5,0l0,5.16c0,1.58 0.8,2.02 2.02,2.02c0.66,0 1.12,-0.08 1.5,-0.24l0,1.52c-0.48,0.2 -1.02,0.28 -1.74,0.28c-2.24,0 -3.5,-1.12 -3.5,-3.58Zm8.68,-9.32c-0.66,0 -1.2,-0.54 -1.2,-1.2c0,-0.64 0.54,-1.18 1.2,-1.18c0.66,0 1.18,0.54 1.18,1.18c0,0.66 -0.52,1.2 -1.18,1.2Zm-0.86,12.7l0,-10.08l1.7,0l0,10.08l-1.7,0Zm3.97,-10.08l1.9,0l0,-1.24c0,-2.14 1.38,-3.68 3.58,-3.68c0.92,0 1.66,0.26 2.22,0.58l-0.76,1.42c-0.38,-0.28 -0.84,-0.46 -1.42,-0.46c-1.14,0 -1.9,0.78 -1.9,2.1l0,1.28l3.5,0l0,1.54l-3.5,0l0,8.54l-1.72,0l0,-8.54l-1.9,0l0,-1.54Zm10.05,-2.62c-0.66,0 -1.2,-0.54 -1.2,-1.2c0,-0.64 0.54,-1.18 1.2,-1.18c0.66,0 1.18,0.54 1.18,1.18c0,0.66 -0.52,1.2 -1.18,1.2Zm-0.86,12.7l0,-10.08l1.7,0l0,10.08l-1.7,0Zm14.25,-1.66c-0.94,1.26 -2.44,2.06 -4.32,2.06c-3.4,0 -5.5,-2.5 -5.5,-5.44c0,-3.06 1.96,-5.44 5.08,-5.44c2.74,0 4.52,1.92 4.52,4.4c0,0.4 -0.06,0.78 -0.12,1.06l-7.74,0c0.06,2.42 1.6,3.88 3.76,3.88c1.3,0 2.4,-0.6 3.06,-1.5l1.26,0.98Zm-4.78,-7.38c-1.66,0 -2.82,0.98 -3.18,2.72l6.04,0c-0.06,-1.48 -1.08,-2.72 -2.86,-2.72Zm7.45,9.04l0,-10.08l1.7,0l0,1.14c0.82,-0.9 1.86,-1.54 3.36,-1.54c2.26,0 3.94,1.52 3.94,4.38l0,6.1l-1.7,0l0,-6.04c0,-1.8 -1.02,-2.84 -2.58,-2.84c-1.46,0 -2.38,0.84 -3.02,1.9l0,6.98l-1.7,0Zm13,-3.38l0,-5.16l-1.9,0l0,-1.54l1.9,0l0,-2.52l1.72,0l0,2.52l3.5,0l0,1.54l-3.5,0l0,5.16c0,1.58 0.8,2.02 2.02,2.02c0.66,0 1.12,-0.08 1.5,-0.24l0,1.52c-0.48,0.2 -1.02,0.28 -1.74,0.28c-2.24,0 -3.5,-1.12 -3.5,-3.58Zm13.21,3.38l0,-15l1.7,0l0,15l-1.7,0Zm14.25,-1.66c-0.94,1.26 -2.44,2.06 -4.32,2.06c-3.4,0 -5.5,-2.5 -5.5,-5.44c0,-3.06 1.96,-5.44 5.08,-5.44c2.74,0 4.52,1.92 4.52,4.4c0,0.4 -0.06,0.78 -0.12,1.06l-7.74,0c0.06,2.42 1.6,3.88 3.76,3.88c1.3,0 2.4,-0.6 3.06,-1.5l1.26,0.98Zm-4.78,-7.38c-1.66,0 -2.82,0.98 -3.18,2.72l6.04,0c-0.06,-1.48 -1.08,-2.72 -2.86,-2.72Zm14.3,4.72l0,-5.76l1.7,0l0,5.7c0,3.02 -1.74,4.78 -4.48,4.78c-2.72,0 -4.46,-1.76 -4.46,-4.78l0,-5.7l1.7,0l0,5.76c0,1.98 1.06,3.12 2.78,3.12c1.68,0 2.76,-1.14 2.76,-3.12Zm5.05,4.32l0,-10.08l1.7,0l0,1.26c0.74,-0.88 1.66,-1.46 2.94,-1.46c0.32,0 0.62,0.04 0.86,0.12l0,1.66c-0.3,-0.08 -0.6,-0.12 -1,-0.12c-1.32,0 -2.18,0.68 -2.8,1.7l0,6.92l-1.7,0Zm6.87,-1.38l1.2,-1.02c0.7,0.88 1.54,1.38 2.56,1.38c1.12,0 1.76,-0.68 1.76,-1.56c0,-2.26 -5.04,-1.46 -5.04,-5.02c0,-1.58 1.34,-2.88 3.28,-2.88c1.44,0 2.68,0.68 3.38,1.66l-1.18,1c-0.54,-0.76 -1.3,-1.24 -2.18,-1.24c-1.08,0 -1.66,0.64 -1.66,1.42c0,2.26 5.06,1.54 5.06,4.98c-0.02,1.88 -1.52,3.06 -3.4,3.06c-1.6,0 -2.86,-0.64 -3.78,-1.78Zm18.08,1.66c-1.98,0 -3.32,-1.1 -3.32,-2.82c0,-1.52 1.16,-2.6 3.3,-2.96l3.4,-0.56l0,-0.7c0,-1.4 -1,-2.2 -2.44,-2.2c-1.16,0 -2.1,0.54 -2.72,1.4l-1.28,-0.98c0.88,-1.2 2.3,-1.94 4.06,-1.94c2.56,0 4.08,1.5 4.08,3.72l0,6.76l-1.7,0l0,-1.28c-0.76,0.98 -2.08,1.56 -3.38,1.56Zm-1.6,-2.88c0,0.86 0.7,1.48 1.88,1.48c1.34,0 2.44,-0.64 3.1,-1.72l0,-1.98l-2.98,0.5c-1.38,0.24 -2,0.86 -2,1.72Zm9.23,-2.44c0,-2.94 2.02,-5.44 5.18,-5.44c1.5,0 2.68,0.58 3.58,1.6l0,-6.12l1.7,0l0,15l-1.7,0l0,-1.2c-0.9,1.02 -2.08,1.6 -3.58,1.6c-3.16,0 -5.18,-2.5 -5.18,-5.44Zm1.8,0c0,2.14 1.44,3.84 3.58,3.84c1.4,0 2.64,-0.68 3.38,-1.86l0,-3.96c-0.78,-1.2 -2,-1.86 -3.38,-1.86c-2.14,0 -3.58,1.7 -3.58,3.84Zm12.25,5.04l0,-10.08l1.7,0l0,1.26c0.74,-0.88 1.66,-1.46 2.94,-1.46c0.32,0 0.62,0.04 0.86,0.12l0,1.66c-0.3,-0.08 -0.6,-0.12 -1,-0.12c-1.32,0 -2.18,0.68 -2.8,1.7l0,6.92l-1.7,0Zm16.3,-1.66c-0.94,1.26 -2.44,2.06 -4.32,2.06c-3.4,0 -5.5,-2.5 -5.5,-5.44c0,-3.06 1.96,-5.44 5.08,-5.44c2.74,0 4.52,1.92 4.52,4.4c0,0.4 -0.06,0.78 -0.12,1.06l-7.74,0c0.06,2.42 1.6,3.88 3.76,3.88c1.3,0 2.4,-0.6 3.06,-1.5l1.26,0.98Zm-4.78,-7.38c-1.66,0 -2.82,0.98 -3.18,2.72l6.04,0c-0.06,-1.48 -1.08,-2.72 -2.86,-2.72Zm6.28,7.66l1.2,-1.02c0.7,0.88 1.54,1.38 2.56,1.38c1.12,0 1.76,-0.68 1.76,-1.56c0,-2.26 -5.04,-1.46 -5.04,-5.02c0,-1.58 1.34,-2.88 3.28,-2.88c1.44,0 2.68,0.68 3.38,1.66l-1.18,1c-0.54,-0.76 -1.3,-1.24 -2.18,-1.24c-1.08,0 -1.66,0.64 -1.66,1.42c0,2.26 5.06,1.54 5.06,4.98c-0.02,1.88 -1.52,3.06 -3.4,3.06c-1.6,0 -2.86,-0.64 -3.78,-1.78Zm8.79,0l1.2,-1.02c0.7,0.88 1.54,1.38 2.56,1.38c1.12,0 1.76,-0.68 1.76,-1.56c0,-2.26 -5.04,-1.46 -5.04,-5.02c0,-1.58 1.34,-2.88 3.28,-2.88c1.44,0 2.68,0.68 3.38,1.66l-1.18,1c-0.54,-0.76 -1.3,-1.24 -2.18,-1.24c-1.08,0 -1.66,0.64 -1.66,1.42c0,2.26 5.06,1.54 5.06,4.98c-0.02,1.88 -1.52,3.06 -3.4,3.06c-1.6,0 -2.86,-0.64 -3.78,-1.78Zm18.79,-0.28c-0.94,1.26 -2.44,2.06 -4.32,2.06c-3.4,0 -5.5,-2.5 -5.5,-5.44c0,-3.06 1.96,-5.44 5.08,-5.44c2.74,0 4.52,1.92 4.52,4.4c0,0.4 -0.06,0.78 -0.12,1.06l-7.74,0c0.06,2.42 1.6,3.88 3.76,3.88c1.3,0 2.4,-0.6 3.06,-1.5l1.26,0.98Zm-4.78,-7.38c-1.66,0 -2.82,0.98 -3.18,2.72l6.04,0c-0.06,-1.48 -1.08,-2.72 -2.86,-2.72Zm6.28,7.66l1.2,-1.02c0.7,0.88 1.54,1.38 2.56,1.38c1.12,0 1.76,-0.68 1.76,-1.56c0,-2.26 -5.04,-1.46 -5.04,-5.02c0,-1.58 1.34,-2.88 3.28,-2.88c1.44,0 2.68,0.68 3.38,1.66l-1.18,1c-0.54,-0.76 -1.3,-1.24 -2.18,-1.24c-1.08,0 -1.66,0.64 -1.66,1.42c0,2.26 5.06,1.54 5.06,4.98c-0.02,1.88 -1.52,3.06 -3.4,3.06c-1.6,0 -2.86,-0.64 -3.78,-1.78Z" style="fill:#666;fill-rule:nonzero;"/></svg>