<svg width="56" height="56" viewBox="0 0 56 56" fill="none" xmlns="http://www.w3.org/2000/svg">
<path d="M14.8921 13.9252C18.4846 11.0514 23.0416 9.33301 28 9.33301C32.9583 9.33301 37.5153 11.0514 41.108 13.9252L44.4992 10.534L47.799 13.8338L44.4078 17.2251C47.2815 20.8177 49 25.3747 49 30.333C49 41.9311 39.5981 51.333 28 51.333C16.402 51.333 7 41.9311 7 30.333C7 25.3747 8.71843 20.8177 11.5922 17.2251L8.20101 13.8338L11.5008 10.534L14.8921 13.9252ZM28 46.6663C37.0207 46.6663 44.3333 39.3537 44.3333 30.333C44.3333 21.3124 37.0207 13.9997 28 13.9997C18.9794 13.9997 11.6667 21.3124 11.6667 30.333C11.6667 39.3537 18.9794 46.6663 28 46.6663ZM30.3333 27.9997H37.3333L25.6667 43.1663V32.6663H18.6667L30.3333 17.4885V27.9997ZM18.6667 2.33301H37.3333V6.99967H18.6667V2.33301Z" fill="#68A532"/>
</svg>
