<?xml version="1.0" encoding="utf-8"?>
<!-- Generator: Adobe Illustrator 24.0.2, SVG Export Plug-In . SVG Version: 6.00 Build 0)  -->
<svg version="1.1" id="Calque_1" xmlns="http://www.w3.org/2000/svg" xmlns:xlink="http://www.w3.org/1999/xlink" x="0px" y="0px"
	 viewBox="0 0 160.7 170.8" style="enable-background:new 0 0 160.7 170.8;" xml:space="preserve">
<style type="text/css">
	.st0{fill:#72787A;}
	.st1{fill:#95C11F;}
</style>
<rect x="20.5" y="87.8" class="st0" width="1.4" height="7.8"/>
<path class="st0" d="M31,94.7c0,0.3-0.1,0.5-0.3,0.7c-0.2,0.2-0.5,0.3-0.9,0.3c-0.3,0-0.6-0.1-0.8-0.3c-0.1-0.1-0.2-0.3-0.4-0.6
	l-3.3-5.5v6.3H24v-6.7c0-0.8,0.4-1.1,1.1-1.1c0.3,0,0.6,0.1,0.8,0.2c0.1,0.1,0.2,0.3,0.4,0.6l3.2,5.5v-6.3H31V94.7"/>
<path class="st0" d="M39.1,88.9h-3.6c-0.6,0-1,0.1-1.1,0.4c-0.1,0.1-0.1,0.5-0.1,1c0,0.3,0.1,0.5,0.3,0.6c0.2,0.1,0.5,0.2,0.9,0.2
	H37c0.6,0,1.1,0.1,1.5,0.4c0.4,0.3,0.6,0.7,0.6,1.2V94c0,0.5-0.2,0.9-0.6,1.2c-0.4,0.3-0.9,0.4-1.6,0.4h-4v-1.1h3.6
	c0.6,0,1-0.1,1.1-0.4c0.1-0.1,0.1-0.5,0.1-1.1c0-0.5-0.4-0.8-1.2-0.8h-1.5c-0.6,0-1.1-0.1-1.5-0.4c-0.4-0.3-0.6-0.7-0.6-1.2v-1.2
	c0-0.5,0.2-1,0.7-1.3c0.3-0.2,0.8-0.3,1.4-0.3h4.1V88.9"/>
<polyline class="st0" points="46.9,88.9 44.5,88.9 44.5,95.6 43.1,95.6 43.1,88.9 40.8,88.9 40.8,87.8 46.9,87.8 46.9,88.9 "/>
<rect x="48.4" y="87.8" class="st0" width="1.4" height="7.8"/>
<polyline class="st0" points="57.5,88.9 55.1,88.9 55.1,95.6 53.7,95.6 53.7,88.9 51.3,88.9 51.3,87.8 57.5,87.8 57.5,88.9 "/>
<path class="st0" d="M65.9,93.6c0,0.4,0,0.6-0.1,0.8c-0.1,0.3-0.3,0.5-0.5,0.7c-0.3,0.2-0.5,0.3-0.8,0.4c-0.2,0-0.5,0.1-0.9,0.1
	h-2.2c-0.4,0-0.7,0-0.9-0.1c-0.3-0.1-0.6-0.2-0.8-0.4c-0.3-0.2-0.4-0.5-0.5-0.7C59,94.3,59,94,59,93.6v-5.8h1.4v5.6
	c0,0.4,0.1,0.7,0.3,0.8c0.2,0.1,0.5,0.2,1,0.2h1.4c0.5,0,0.8-0.1,1-0.2c0.2-0.1,0.3-0.4,0.3-0.8v-5.7h1.4V93.6"/>
<polyline class="st0" points="73.5,88.9 71.2,88.9 71.2,95.6 69.8,95.6 69.8,88.9 67.4,88.9 67.4,87.8 73.5,87.8 73.5,88.9 "/>
<path class="st0" d="M85.4,94.7c0,0.3-0.1,0.5-0.3,0.7c-0.2,0.2-0.5,0.3-0.9,0.3c-0.3,0-0.6-0.1-0.8-0.3c-0.1-0.1-0.2-0.3-0.4-0.6
	l-3.3-5.5v6.3h-1.3v-6.7c0-0.8,0.4-1.1,1.1-1.1c0.3,0,0.6,0.1,0.8,0.2c0.1,0.1,0.2,0.3,0.4,0.6l3.2,5.5v-6.3h1.3V94.7"/>
<path class="st0" d="M95.3,95.6h-1.5l-0.8-1.9h-3.8l-0.8,1.9h-1.5l3.1-7.1c0.2-0.5,0.6-0.7,1.1-0.7c0.5,0,0.9,0.2,1.1,0.7L95.3,95.6
	 M92.5,92.6L91,89.2l-1.4,3.5H92.5z"/>
<polyline class="st0" points="101.4,88.9 99,88.9 99,95.6 97.6,95.6 97.6,88.9 95.3,88.9 95.3,87.8 101.4,87.8 101.4,88.9 "/>
<rect x="102.9" y="87.8" class="st0" width="1.4" height="7.8"/>
<path class="st0" d="M113.2,93.8c0,1.2-0.8,1.8-2.3,1.8h-2.1c-0.7,0-1.3-0.1-1.7-0.4c-0.4-0.3-0.7-0.8-0.7-1.4v-4.3
	c0-0.6,0.2-1.1,0.7-1.4c0.4-0.3,0.9-0.4,1.6-0.4h2.1c1.5,0,2.3,0.6,2.3,1.8V93.8 M111.8,93.6v-3.6c0-0.4-0.1-0.6-0.3-0.8
	c-0.2-0.1-0.5-0.2-1-0.2h-1.5c-0.5,0-0.8,0.1-1,0.2c-0.2,0.1-0.3,0.4-0.3,0.8v3.6c0,0.3,0.1,0.6,0.3,0.7c0.2,0.1,0.5,0.2,0.9,0.2
	h1.5c0.4,0,0.7-0.1,0.9-0.2C111.7,94.1,111.8,93.9,111.8,93.6z"/>
<path class="st0" d="M122.3,94.7c0,0.3-0.1,0.5-0.3,0.7c-0.2,0.2-0.5,0.3-0.9,0.3c-0.3,0-0.6-0.1-0.8-0.3c-0.1-0.1-0.2-0.3-0.4-0.6
	l-3.3-5.5v6.3h-1.3v-6.7c0-0.8,0.4-1.1,1.1-1.1c0.3,0,0.6,0.1,0.8,0.2c0.1,0.1,0.2,0.3,0.4,0.6l3.2,5.5v-6.3h1.3V94.7"/>
<path class="st0" d="M132.2,95.6h-1.5l-0.8-1.9h-3.8l-0.8,1.9h-1.5l3.1-7.1c0.2-0.5,0.6-0.7,1.1-0.7c0.5,0,0.9,0.2,1.1,0.7
	L132.2,95.6 M129.4,92.6l-1.5-3.5l-1.4,3.5H129.4z"/>
<path class="st0" d="M139.8,95.6h-3.7c-0.8,0-1.4-0.1-1.9-0.4c-0.4-0.3-0.7-0.8-0.7-1.5v-5.9h1.4v5.7c0,0.4,0.1,0.7,0.3,0.8
	c0.2,0.1,0.5,0.2,1.1,0.2h3.4V95.6"/>
<path class="st0" d="M27.4,112.1c0,0.5-0.2,1-0.5,1.3c-0.4,0.3-0.9,0.5-1.5,0.5h-4.9V106h4.9c1.4,0,2.1,0.6,2.1,1.8V112.1 M26,111.7
	v-3.6c0-0.6-0.4-0.9-1.2-0.9h-3v5.6h3C25.7,112.7,26,112.4,26,111.7z"/>
<path class="st0" d="M35.6,110.5h-4.6v1.3c0,0.6,0.4,0.9,1.2,0.9h3.6v1.1h-4c-0.7,0-1.2-0.1-1.6-0.4c-0.4-0.3-0.6-0.7-0.6-1.3v-4.4
	c0-0.5,0.2-1,0.6-1.3c0.4-0.3,0.9-0.5,1.6-0.5h4.1v1.1h-3.6c-0.8,0-1.2,0.3-1.2,0.9v1.3h4.6V110.5"/>
<path class="st0" d="M49.7,113.8H46c-0.8,0-1.4-0.1-1.9-0.4c-0.4-0.3-0.7-0.8-0.7-1.5V106h1.4v5.7c0,0.4,0.1,0.7,0.3,0.8
	c0.2,0.1,0.5,0.2,1.1,0.2h3.4V113.8"/>
<path class="st0" d="M51,105.7c0,0.2,0,0.3-0.1,0.5l-0.6,1.4h-0.7l0.5-1.2c-0.3-0.3-0.4-0.5-0.4-0.7c0-0.2,0.1-0.4,0.2-0.6
	c0.1-0.2,0.3-0.2,0.5-0.2c0.2,0,0.3,0.1,0.5,0.3C50.9,105.3,51,105.5,51,105.7"/>
<rect x="53.6" y="106" class="st0" width="1.4" height="7.8"/>
<path class="st0" d="M64.1,112.9c0,0.3-0.1,0.5-0.3,0.7c-0.2,0.2-0.5,0.3-0.9,0.3c-0.3,0-0.6-0.1-0.8-0.3c-0.1-0.1-0.2-0.3-0.4-0.6
	l-3.3-5.5v6.3h-1.3v-6.7c0-0.8,0.4-1.1,1.1-1.1c0.3,0,0.6,0.1,0.8,0.2c0.1,0.1,0.2,0.3,0.4,0.6l3.2,5.5v-6.3h1.3V112.9"/>
<path class="st0" d="M72.6,110.5h-4.9v3.3h-1.4v-6.2c0-0.5,0.2-0.9,0.6-1.2c0.3-0.2,0.9-0.4,1.5-0.4h4.1v1.1h-3.7
	c-0.8,0-1.2,0.3-1.2,0.8v1.4h4.9V110.5"/>
<path class="st0" d="M81.8,112.1c0,1.2-0.8,1.8-2.3,1.8h-2.1c-0.7,0-1.3-0.1-1.7-0.4c-0.4-0.3-0.7-0.8-0.7-1.4v-4.3
	c0-0.6,0.2-1.1,0.7-1.4c0.4-0.3,0.9-0.4,1.6-0.4h2.1c1.5,0,2.3,0.6,2.3,1.8V112.1 M80.4,111.8v-3.6c0-0.4-0.1-0.6-0.3-0.8
	c-0.2-0.1-0.5-0.2-0.9-0.2h-1.5c-0.4,0-0.8,0.1-1,0.2c-0.2,0.1-0.3,0.4-0.3,0.8v3.6c0,0.3,0.1,0.6,0.3,0.7c0.2,0.1,0.5,0.2,0.9,0.2
	h1.5c0.4,0,0.7-0.1,0.9-0.2C80.3,112.4,80.4,112.1,80.4,111.8z"/>
<path class="st0" d="M90.9,113.8h-1.7l-3.4-3c-0.1-0.1-0.2-0.3-0.2-0.5c0-0.4,0.3-0.7,0.9-0.7l2,0c0.7,0,1-0.3,1-0.8V108
	c0-0.5-0.4-0.8-1.2-0.8h-2.9v6.7h-1.4V106h4.7c1.4,0,2.1,0.6,2.1,1.7v1.4c0,0.5-0.2,0.9-0.6,1.2c-0.4,0.3-0.9,0.4-1.5,0.4h-1.6
	L90.9,113.8"/>
<path class="st0" d="M102.6,113.9h-1.3v-6.2l-2.5,5.5c-0.2,0.5-0.6,0.8-1,0.8c-0.3,0-0.5-0.1-0.6-0.2c-0.1-0.1-0.2-0.3-0.3-0.5
	l-2.5-5.5v6.2H93v-6.8c0-0.3,0.1-0.5,0.3-0.7c0.2-0.2,0.5-0.3,0.9-0.3c0.6,0,1,0.2,1.2,0.7l2.4,5.5l2.5-5.5c0.2-0.5,0.6-0.7,1.2-0.7
	c0.4,0,0.7,0.1,0.9,0.3c0.2,0.2,0.3,0.5,0.3,0.8V113.9"/>
<path class="st0" d="M112.5,113.8H111l-0.8-1.9h-3.8l-0.8,1.9H104l3.1-7.1c0.2-0.5,0.6-0.7,1.1-0.7c0.5,0,0.9,0.2,1.1,0.7
	L112.5,113.8 M109.7,110.9l-1.5-3.5l-1.4,3.5H109.7z"/>
<polyline class="st0" points="118.7,107.1 116.4,107.1 116.4,113.8 115,113.8 115,107.1 112.6,107.1 112.6,106 118.7,106 
	118.7,107.1 "/>
<rect x="120.3" y="106" class="st0" width="1.4" height="7.8"/>
<path class="st0" d="M130.7,112.1c0,1.2-0.8,1.8-2.3,1.8h-2.1c-0.7,0-1.3-0.1-1.7-0.4c-0.4-0.3-0.7-0.8-0.7-1.4v-4.3
	c0-0.6,0.2-1.1,0.7-1.4c0.4-0.3,0.9-0.4,1.6-0.4h2.1c1.5,0,2.3,0.6,2.3,1.8V112.1 M129.3,111.8v-3.6c0-0.4-0.1-0.6-0.3-0.8
	c-0.2-0.1-0.5-0.2-0.9-0.2h-1.5c-0.5,0-0.8,0.1-1,0.2c-0.2,0.1-0.3,0.4-0.3,0.8v3.6c0,0.3,0.1,0.6,0.3,0.7c0.2,0.1,0.5,0.2,0.9,0.2
	h1.5c0.4,0,0.7-0.1,0.9-0.2C129.2,112.4,129.3,112.1,129.3,111.8z"/>
<path class="st0" d="M139.9,112.9c0,0.3-0.1,0.5-0.3,0.7c-0.2,0.2-0.5,0.3-0.9,0.3c-0.3,0-0.6-0.1-0.8-0.3c-0.1-0.1-0.2-0.3-0.4-0.6
	l-3.3-5.5v6.3h-1.3v-6.7c0-0.8,0.4-1.1,1.1-1.1c0.3,0,0.6,0.1,0.8,0.2c0.1,0.1,0.2,0.3,0.4,0.6l3.2,5.5v-6.3h1.3V112.9"/>
<path class="st0" d="M27.3,130.2c0,0.6-0.2,1.1-0.5,1.4c-0.4,0.3-0.9,0.5-1.6,0.5h-2.4c-0.8,0-1.3-0.1-1.7-0.4
	c-0.3-0.2-0.4-0.4-0.5-0.7c0-0.2-0.1-0.4-0.1-0.8v-4c0-0.4,0-0.6,0.1-0.8c0.1-0.2,0.3-0.5,0.6-0.6c0.4-0.2,0.9-0.4,1.6-0.4h4v1.1
	h-3.7c-0.4,0-0.7,0.1-0.9,0.2c-0.2,0.1-0.3,0.4-0.3,0.7v3.7c0,0.3,0.1,0.6,0.3,0.7c0.2,0.1,0.5,0.2,0.9,0.2h1.8
	c0.7,0,1.1-0.3,1.1-0.9v-2.3h1.4V130.2"/>
<path class="st0" d="M37.6,132.1h-4c-0.7,0-1.2-0.1-1.6-0.4c-0.4-0.3-0.6-0.7-0.6-1.3V126c0-0.5,0.2-1,0.6-1.3
	c0.4-0.3,0.9-0.5,1.6-0.5h4.1v1.1h-3.6c-0.8,0-1.2,0.3-1.2,0.9v1.3h4.8v1.1h-4.8v1.3c0,0.6,0.4,0.9,1.2,0.9h3.6V132.1 M36,122.2
	l-1.1,1.4h-1l0.9-1.4H36z"/>
<path class="st0" d="M48.2,130.3c0,1.2-0.8,1.8-2.3,1.8h-2.1c-0.7,0-1.3-0.1-1.7-0.4c-0.4-0.3-0.7-0.8-0.7-1.4V126
	c0-0.6,0.2-1.1,0.7-1.4c0.4-0.3,0.9-0.4,1.6-0.4h2.1c1.5,0,2.3,0.6,2.3,1.8V130.3 M46.8,130v-3.6c0-0.4-0.1-0.6-0.3-0.8
	c-0.2-0.1-0.5-0.2-0.9-0.2h-1.5c-0.5,0-0.8,0.1-1,0.2c-0.2,0.1-0.3,0.4-0.3,0.8v3.6c0,0.3,0.1,0.6,0.3,0.7c0.2,0.1,0.5,0.2,0.9,0.2
	h1.5c0.4,0,0.7-0.1,0.9-0.2C46.7,130.6,46.8,130.4,46.8,130z"/>
<path class="st0" d="M59.1,130.2c0,0.6-0.2,1.1-0.5,1.4c-0.4,0.3-0.9,0.5-1.6,0.5h-2.4c-0.8,0-1.3-0.1-1.7-0.4
	c-0.3-0.2-0.4-0.4-0.5-0.7c0-0.2-0.1-0.4-0.1-0.8v-4c0-0.4,0-0.6,0.1-0.8c0.1-0.2,0.3-0.5,0.6-0.6c0.4-0.2,0.9-0.4,1.6-0.4h4v1.1
	h-3.7c-0.4,0-0.7,0.1-0.9,0.2c-0.2,0.1-0.3,0.4-0.3,0.7v3.7c0,0.3,0.1,0.6,0.3,0.7c0.2,0.1,0.5,0.2,0.9,0.2h1.8
	c0.7,0,1.1-0.3,1.1-0.9v-2.3h1.4V130.2"/>
<path class="st0" d="M69.9,132.1h-1.7l-3.4-3c-0.1-0.1-0.2-0.3-0.2-0.5c0-0.4,0.3-0.7,0.9-0.7l2,0c0.7,0,1-0.3,1-0.8v-0.9
	c0-0.5-0.4-0.8-1.2-0.8h-2.9v6.7h-1.4v-7.8h4.7c1.4,0,2.1,0.6,2.1,1.7v1.4c0,0.5-0.2,0.9-0.6,1.2c-0.4,0.3-0.9,0.4-1.5,0.4h-1.6
	L69.9,132.1"/>
<path class="st0" d="M81.4,132.1h-1.5l-0.8-1.9h-3.8l-0.8,1.9h-1.5l3.1-7.1c0.2-0.5,0.6-0.7,1.1-0.7c0.5,0,0.9,0.2,1.1,0.7
	L81.4,132.1 M78.6,129.1l-1.5-3.5l-1.4,3.5H78.6z"/>
<path class="st0" d="M91.5,127.5c0,0.5-0.2,0.9-0.6,1.2c-0.4,0.3-0.9,0.4-1.5,0.4H86v2.9h-1.4v-7.8h4.8c0.6,0,1.1,0.1,1.5,0.4
	c0.4,0.3,0.6,0.7,0.6,1.2C91.5,126.3,91.5,126.9,91.5,127.5 M90.1,127.1v-0.9c0-0.5-0.4-0.8-1.1-0.8h-3v2.6H89
	C89.7,128,90.1,127.7,90.1,127.1z"/>
<polyline class="st0" points="102.5,132.1 101.1,132.1 101.1,128.7 96.9,128.7 96.9,132.1 95.5,132.1 95.5,124.3 96.9,124.3 
	96.9,127.6 101.1,127.6 101.1,124.3 102.5,124.3 102.5,132.1 "/>
<rect x="106.5" y="124.2" class="st0" width="1.4" height="7.8"/>
<path class="st0" d="M118.7,130.4c0,0.9-0.5,1.5-1.4,1.7l1.4,1.2h-1.9l-1.4-1.1h-1.2c-0.7,0-1.3-0.1-1.6-0.3
	c-0.4-0.3-0.7-0.8-0.7-1.4V126c0-0.6,0.2-1.1,0.7-1.4c0.4-0.2,0.9-0.4,1.6-0.4h2.2c0.7,0,1.3,0.1,1.6,0.4c0.5,0.3,0.7,0.8,0.7,1.4
	V130.4 M117.3,130.1v-3.8c0-0.4-0.1-0.6-0.3-0.7c-0.2-0.1-0.5-0.2-1-0.2h-1.5c-0.4,0-0.8,0.1-1,0.2c-0.2,0.1-0.3,0.4-0.3,0.7v3.7
	c0,0.4,0.1,0.6,0.3,0.7c0.2,0.1,0.5,0.2,0.9,0.2h1.5c0.4,0,0.8-0.1,1-0.2C117.2,130.7,117.3,130.4,117.3,130.1z"/>
<path class="st0" d="M129.6,130.1c0,0.4,0,0.6-0.1,0.8c-0.1,0.3-0.3,0.5-0.5,0.7c-0.3,0.2-0.5,0.3-0.8,0.4c-0.2,0-0.5,0.1-1,0.1
	h-2.2c-0.4,0-0.7,0-0.9-0.1c-0.3-0.1-0.6-0.2-0.8-0.4c-0.3-0.2-0.4-0.5-0.5-0.7c-0.1-0.2-0.1-0.4-0.1-0.8v-5.8h1.4v5.6
	c0,0.4,0.1,0.7,0.3,0.8c0.2,0.1,0.5,0.2,1,0.2h1.4c0.5,0,0.8-0.1,1-0.2c0.2-0.1,0.3-0.4,0.3-0.8v-5.7h1.4V130.1"/>
<path class="st0" d="M139.6,128.7H135v1.3c0,0.6,0.4,0.9,1.2,0.9h3.6v1.1h-4c-0.7,0-1.2-0.1-1.6-0.4c-0.4-0.3-0.6-0.7-0.6-1.3V126
	c0-0.5,0.2-1,0.6-1.3c0.4-0.3,0.9-0.5,1.6-0.5h4.1v1.1h-3.6c-0.8,0-1.2,0.3-1.2,0.9v1.3h4.6V128.7"/>
<path class="st0" d="M26.4,147h-4.6v1.3c0,0.6,0.4,0.9,1.2,0.9h3.6v1.1h-4c-0.7,0-1.2-0.1-1.6-0.4c-0.4-0.3-0.6-0.7-0.6-1.3v-4.4
	c0-0.5,0.2-1,0.6-1.3s0.9-0.5,1.6-0.5h4.1v1.1h-3.6c-0.8,0-1.2,0.3-1.2,0.9v1.3h4.6V147"/>
<polyline class="st0" points="36.5,143.6 34.1,143.6 34.1,150.3 32.7,150.3 32.7,143.6 30.3,143.6 30.3,142.5 36.5,142.5 
	36.5,143.6 "/>
<path class="st0" d="M52.7,147h-4.9v3.3h-1.4v-6.2c0-0.5,0.2-0.9,0.6-1.2c0.3-0.2,0.9-0.4,1.5-0.4h4.1v1.1H49
	c-0.8,0-1.2,0.3-1.2,0.8v1.4h4.9V147"/>
<path class="st0" d="M63.6,148.5c0,1.2-0.8,1.8-2.3,1.8h-2.1c-0.7,0-1.3-0.1-1.7-0.4c-0.4-0.3-0.7-0.8-0.7-1.4v-4.3
	c0-0.6,0.2-1.1,0.7-1.4c0.4-0.3,0.9-0.4,1.6-0.4h2.1c1.5,0,2.3,0.6,2.3,1.8V148.5 M62.2,148.2v-3.6c0-0.4-0.1-0.6-0.3-0.8
	c-0.2-0.1-0.5-0.2-0.9-0.2h-1.5c-0.5,0-0.8,0.1-1,0.2c-0.2,0.1-0.3,0.4-0.3,0.8v3.6c0,0.3,0.1,0.6,0.3,0.7c0.2,0.1,0.5,0.2,0.9,0.2
	H61c0.4,0,0.7-0.1,0.9-0.2C62.1,148.8,62.2,148.6,62.2,148.2z"/>
<path class="st0" d="M74.4,150.3h-1.7l-3.4-3c-0.1-0.1-0.2-0.3-0.2-0.5c0-0.4,0.3-0.7,0.9-0.7l2,0c0.7,0,1-0.3,1-0.8v-0.9
	c0-0.5-0.4-0.8-1.2-0.8H69v6.7h-1.4v-7.8h4.7c1.4,0,2.1,0.6,2.1,1.7v1.4c0,0.5-0.2,0.9-0.6,1.2c-0.4,0.3-0.9,0.4-1.5,0.4h-1.6
	L74.4,150.3"/>
<path class="st0" d="M84.1,147h-4.6v1.3c0,0.6,0.4,0.9,1.2,0.9h3.6v1.1h-4c-0.7,0-1.2-0.1-1.6-0.4c-0.4-0.3-0.6-0.7-0.6-1.3v-4.4
	c0-0.5,0.2-1,0.6-1.3s0.9-0.5,1.6-0.5h4.1v1.1h-3.6c-0.8,0-1.2,0.3-1.2,0.9v1.3h4.6V147"/>
<path class="st0" d="M94.7,143.6h-3.6c-0.6,0-1,0.1-1.1,0.4c-0.1,0.1-0.1,0.5-0.1,1c0,0.3,0.1,0.5,0.3,0.6c0.2,0.1,0.5,0.2,0.9,0.2
	h1.5c0.6,0,1.1,0.1,1.5,0.4c0.4,0.3,0.6,0.7,0.6,1.2v1.2c0,0.5-0.2,0.9-0.6,1.2s-0.9,0.4-1.6,0.4h-4v-1.1h3.6c0.6,0,1-0.1,1.1-0.4
	c0.1-0.1,0.1-0.5,0.1-1.1c0-0.5-0.4-0.8-1.2-0.8h-1.5c-0.6,0-1.1-0.1-1.5-0.4c-0.4-0.3-0.6-0.7-0.6-1.2v-1.2c0-0.5,0.2-1,0.7-1.3
	c0.3-0.2,0.8-0.3,1.4-0.3h4.1V143.6"/>
<polyline class="st0" points="104.3,143.6 101.9,143.6 101.9,150.3 100.5,150.3 100.5,143.6 98.1,143.6 98.1,142.5 104.3,142.5 
	104.3,143.6 "/>
<rect x="107.5" y="142.5" class="st0" width="1.4" height="7.8"/>
<path class="st0" d="M119.1,150.3h-4c-0.7,0-1.2-0.1-1.6-0.4c-0.4-0.3-0.6-0.7-0.6-1.3v-4.4c0-0.5,0.2-1,0.6-1.3
	c0.4-0.3,0.9-0.5,1.6-0.5h4.1v1.2h-3.6c-0.8,0-1.2,0.3-1.2,0.9v1.3h4.8v1.1h-4.8v1.3c0,0.6,0.4,0.9,1.2,0.9h3.6V150.3 M117.5,141.9
	h-1l-1.1-1.4h1.2L117.5,141.9z"/>
<path class="st0" d="M129.8,150.3h-1.7l-3.4-3c-0.1-0.1-0.2-0.3-0.2-0.5c0-0.4,0.3-0.7,0.9-0.7l2,0c0.7,0,1-0.3,1-0.8v-0.9
	c0-0.5-0.4-0.8-1.2-0.8h-2.9v6.7H123v-7.8h4.7c1.4,0,2.1,0.6,2.1,1.7v1.4c0,0.5-0.2,0.9-0.6,1.2c-0.4,0.3-0.9,0.4-1.5,0.4h-1.6
	L129.8,150.3"/>
<path class="st0" d="M139.5,147H135v1.3c0,0.6,0.4,0.9,1.2,0.9h3.6v1.1h-4c-0.7,0-1.2-0.1-1.6-0.4c-0.4-0.3-0.6-0.7-0.6-1.3v-4.4
	c0-0.5,0.2-1,0.6-1.3s0.9-0.5,1.6-0.5h4.1v1.1h-3.6c-0.8,0-1.2,0.3-1.2,0.9v1.3h4.6V147"/>
<rect x="20.6" y="20.5" class="st0" width="10.3" height="52.6"/>
<path class="st0" d="M130.6,20.5V52c-1.7-1.9-30-33.2-30-33.2h-1.6v54.3h9.5V42c1.7,1.9,29.9,32.8,29.9,32.8h1.6V20.5H130.6"/>
<path class="st0" d="M77.4,57.9l-0.5,0v5.5c-3.4,1.3-6,1.8-9.2,1.8c-11.2,0-18.5-7.5-18.5-19.2c0-11,6.8-17.9,17.8-17.9
	c6.2,0,11.4,2.3,15.3,6.8l0.9,1l0.8-12l-0.2-0.2c-1.7-1.2-2.4-1.6-4.4-2.5c-4.1-1.8-7.6-2.5-12.1-2.5c-8,0-15.2,2.8-20.3,7.8
	c-5.1,5-7.9,12.2-7.9,20.1c0,16.3,11.6,28.2,27.7,28.2c4,0,8.6-0.7,12.4-1.9c2.7-0.8,4.2-1.5,7.8-3.2l0.3-0.1V56.3l-0.7,0.3
	C83.5,57.6,80.5,58,77.4,57.9"/>
<path class="st1" d="M75.4,41C75.4,41,75.3,41,75.4,41c-6.6-1.7-13.3-0.8-18.2,2.5c2.7,5.2,8.1,9.2,14.6,10.9c0,0,0.1,0,0.1,0
	c6.5,1.7,13.2,0.7,18.1-2.5C87.2,46.8,81.9,42.7,75.4,41"/>
</svg>
